<svg width="18" height="17" viewBox="0 0 18 17" fill="none" xmlns="http://www.w3.org/2000/svg">
<path d="M7.07789 9.73759C8.12164 10.7964 9.38454 11.6139 10.7779 12.1326L12.6629 10.6326C12.7188 10.5941 12.785 10.5735 12.8529 10.5735C12.9207 10.5735 12.987 10.5941 13.0429 10.6326L16.5429 12.8876C16.6758 12.9675 16.7882 13.0772 16.8714 13.208C16.9546 13.3388 17.0063 13.4872 17.0223 13.6414C17.0383 13.7956 17.0182 13.9514 16.9637 14.0966C16.9091 14.2417 16.8215 14.3721 16.7079 14.4776L15.0679 16.0976C14.833 16.3297 14.5444 16.5 14.2277 16.5933C13.911 16.6867 13.5761 16.7002 13.2529 16.6326C10.029 15.9668 7.05746 14.4073 4.67789 12.1326C2.35113 9.83522 0.74103 6.91202 0.0428928 3.71759C-0.0260741 3.39941 -0.0116797 3.06881 0.0846809 2.75783C0.181041 2.44685 0.356101 2.16603 0.592893 1.94259L2.29289 0.302594C2.39809 0.194488 2.52639 0.111582 2.66817 0.0600831C2.80995 0.00858457 2.96154 -0.0101717 3.1116 0.00521871C3.26165 0.0206091 3.40629 0.0697475 3.53466 0.148954C3.66304 0.228161 3.77183 0.335384 3.85289 0.462594L6.18289 3.91759C6.22308 3.97185 6.24477 4.03758 6.24477 4.10509C6.24477 4.17261 6.22308 4.23834 6.18289 4.29259L4.64789 6.13759C5.18068 7.50306 6.01076 8.73281 7.07789 9.73759Z" fill="#EC1C24"/>
</svg>
