<svg id="Layer_2" data-name="Layer 2" xmlns="http://www.w3.org/2000/svg" width="2.2748in" height="1.0458in" viewBox="0 0 163.7836 75.2962"><defs><style>.cls-1{fill:#fff;}</style></defs><path class="cls-1" d="M46.83,11.5613V46.746H42.6076V17.4923L24.7132,39.1568h-.3014L6.5173,17.4923V46.746H2.3961V11.5613H7.02L24.6628,33.0741,42.3055,11.5613Z" transform="translate(-2.3961)"/><path class="cls-1" d="M119.6091,36.5427c0,6.4842-6.5849,11.2592-18.0454,11.2592-7.6906,0-15.08-2.4127-20.5582-7.238l2.9658-3.1666c5.1268,4.5233,10.8067,6.4842,17.8434,6.4842,8.4948,0,13.4712-2.6644,13.4712-7.0367,0-4.2729-5.1765-5.3288-14.6775-6.1331-9.399-.8042-18.3966-2.8645-18.3966-9.8017,0-6.6346,8.3437-10.4047,17.7434-10.4047,7.6408,0,13.9236,2.6644,17.9951,6.2828l-3.3176,2.8155c-3.4183-3.368-8.5948-5.1275-14.4768-5.1778-6.2828-.05-13.6215,1.7091-13.6215,6.3338,0,4.3729,6.6352,5.2778,14.9286,5.931C112.17,27.5452,119.6091,29.6067,119.6091,36.5427Z" transform="translate(-2.3961)"/><path class="cls-1" d="M165.9007,42.8255V46.746h-34.028V11.5613h34.028v3.92H136.0952v11.41h24.83v3.92h-24.83V42.8255Z" transform="translate(-2.3961)"/><rect class="cls-1" x="60.1189" y="11.5613" width="4.2219" height="35.1847"/><polygon class="cls-1" points="72.886 0 66.15 0 57.857 7.54 61.777 7.54 72.886 0"/><path class="cls-1" d="M12.1626,71.3353,8.8218,66.6546a9.9469,9.9469,0,0,1-1.36.1H3.4609v4.581H2.44V57.3324h5.021c3.521,0,5.6416,1.7607,5.6416,4.7207a4.2967,4.2967,0,0,1-3.2807,4.3808l3.5005,4.9014ZM7.4614,65.8539c3.001,0,4.6011-1.4,4.6011-3.8008,0-2.42-1.6-3.8008-4.6011-3.8008H3.4609v7.6016Z" transform="translate(-2.3961)"/><path class="cls-1" d="M25.3423,66.3539H16.36a4.2068,4.2068,0,0,0,4.4208,4.1611,4.21,4.21,0,0,0,3.3409-1.46l.58.66a4.9985,4.9985,0,0,1-3.9409,1.7A5.1261,5.1261,0,0,1,15.38,66.1146a4.9992,4.9992,0,1,1,9.9824-.04C25.3623,66.1546,25.3423,66.2543,25.3423,66.3539ZM16.38,65.5746h8.0014a4.0025,4.0025,0,0,0-8.0014,0Z" transform="translate(-2.3961)"/><path class="cls-1" d="M35.7017,64.7142v6.6211h-.9605v-1.86a4.0108,4.0108,0,0,1-3.7607,1.94c-2.34,0-3.7608-1.2-3.7608-2.9805,0-1.581,1-2.9209,3.9009-2.9209h3.5806v-.84c0-1.94-1.06-2.98-3.1006-2.98A5.42,5.42,0,0,0,28,63.014l-.5-.7207a6.37,6.37,0,0,1,4.1807-1.48C34.2612,60.8128,35.7017,62.1332,35.7017,64.7142Zm-1.0005,3.54v-1.96H31.1406c-2.1606,0-2.92.9-2.92,2.1006,0,1.36,1.06,2.2,2.9,2.2A3.5784,3.5784,0,0,0,34.7012,68.2543Z" transform="translate(-2.3961)"/><path class="cls-1" d="M39.82,56.4925h1V71.3353h-1Z" transform="translate(-2.3961)"/><path class="cls-1" d="M50.0806,70.6752a3.17,3.17,0,0,1-2.1407.74,2.59,2.59,0,0,1-2.8408-2.8408V61.7533h-1.92v-.86h1.92v-2.28H46.1v2.28H49.42v.86H46.1V68.475c0,1.34.66,2.08,1.94,2.08a2.4006,2.4006,0,0,0,1.62-.58Z" transform="translate(-2.3961)"/><path class="cls-1" d="M61.0415,60.8929,55.68,72.7552c-.84,1.9209-1.88,2.541-3.2608,2.541a3.3353,3.3353,0,0,1-2.42-.94l.5-.76a2.544,2.544,0,0,0,1.9405.82c.96,0,1.66-.4405,2.3-1.86L55.3,71.2953,50.5991,60.8929h1.06L55.84,70.2347l4.1807-9.3418Z" transform="translate(-2.3961)"/><path class="cls-1" d="M81.9224,71.3353l-.02-11.9824L76.0405,69.475h-.5L69.68,59.3929V71.3353H68.6792V57.3324h.86l6.2617,10.8222L82.062,57.3324h.84l.02,14.0029Z" transform="translate(-2.3961)"/><path class="cls-1" d="M95.0205,64.7142v6.6211h-.96v-1.86a4.0108,4.0108,0,0,1-3.7607,1.94c-2.3408,0-3.7607-1.2-3.7607-2.9805,0-1.581,1-2.9209,3.9-2.9209h3.581v-.84c0-1.94-1.0605-2.98-3.1006-2.98a5.4213,5.4213,0,0,0-3.6015,1.32l-.5-.7207A6.3729,6.3729,0,0,1,91,60.8128C93.58,60.8128,95.0205,62.1332,95.0205,64.7142Zm-1,3.54v-1.96H90.46c-2.1612,0-2.9209.9-2.9209,2.1006,0,1.36,1.06,2.2,2.9,2.2A3.579,3.579,0,0,0,94.0205,68.2543Z" transform="translate(-2.3961)"/><path class="cls-1" d="M104.08,60.8128v.98c-.08,0-.16-.0205-.24-.0205-2.32,0-3.7,1.541-3.7,4.1211v5.4414H99.1387V60.8929H100.1v2.28A3.9659,3.9659,0,0,1,104.08,60.8128Z" transform="translate(-2.3961)"/><path class="cls-1" d="M110.56,65.7543l-2.72,2.48v3.1006h-1.0009V56.4925H107.84v10.502l6.6807-6.1016h1.28L111.3,65.1136l4.9414,6.2217h-1.24Z" transform="translate(-2.3961)"/><path class="cls-1" d="M127.001,66.3539h-8.9824A4.4682,4.4682,0,0,0,125.78,69.055l.58.66a4.9978,4.9978,0,0,1-3.94,1.7,5.1254,5.1254,0,0,1-5.3808-5.3008,4.9939,4.9939,0,0,1,5.0009-5.3018,4.944,4.944,0,0,1,4.98,5.2618C127.0205,66.1546,127.001,66.2543,127.001,66.3539Zm-8.9619-.7793h8.0019a4.0028,4.0028,0,0,0-8.0019,0Z" transform="translate(-2.3961)"/><path class="cls-1" d="M135.3,70.6752a3.17,3.17,0,0,1-2.1406.74,2.59,2.59,0,0,1-2.8408-2.8408V61.7533h-1.92v-.86h1.92v-2.28h1v2.28H134.64v.86h-3.3212V68.475c0,1.34.66,2.08,1.94,2.08a2.4048,2.4048,0,0,0,1.6211-.58Z" transform="translate(-2.3961)"/><path class="cls-1" d="M137.7588,57.5521a.8238.8238,0,0,1,.8193-.82.8106.8106,0,1,1-.8193.82Zm.3193,3.3408h1.001V71.3353h-1.001Z" transform="translate(-2.3961)"/><path class="cls-1" d="M152.6406,65.2337v6.1016H151.64V65.3138c0-2.36-1.26-3.6006-3.3808-3.6006a3.7248,3.7248,0,0,0-3.96,4.0606v5.5615h-1.0009V60.8929h.9609v2.2608a4.3106,4.3106,0,0,1,4.1406-2.3409C150.94,60.8128,152.6406,62.3138,152.6406,65.2337Z" transform="translate(-2.3961)"/><path class="cls-1" d="M166.18,60.8929v9.3223c0,3.501-1.7,5.081-5.0615,5.081a6.8974,6.8974,0,0,1-4.78-1.66l.54-.7608a6.1819,6.1819,0,0,0,4.2207,1.5206c2.78,0,4.0811-1.28,4.0811-4.0606V68.5746a4.82,4.82,0,0,1-4.3408,2.3808,5.0729,5.0729,0,1,1,0-10.1426,4.7919,4.7919,0,0,1,4.3808,2.4405v-2.36Zm-.9805,4.9815a4.272,4.272,0,1,0-4.28,4.1806A4.0551,4.0551,0,0,0,165.1992,65.8744Z" transform="translate(-2.3961)"/></svg>