<?xml version="1.0" encoding="utf-8"?>
<!-- Generator: Adobe Illustrator 25.4.0, SVG Export Plug-In . SVG Version: 6.00 Build 0)  -->
<svg version="1.1" id="Layer_2" xmlns="http://www.w3.org/2000/svg" xmlns:xlink="http://www.w3.org/1999/xlink" x="0px" y="0px"
	 viewBox="0 0 168.3 76.6" style="enable-background:new 0 0 168.3 76.6;" xml:space="preserve">
<style type="text/css">
	.st0{fill:#FFFFFF;}
	.st1{fill:#EC1C24;}
	.st2{display:none;}
	.st3{display:inline;}
</style>
<g>
	<g>
		<path class="st0" d="M46.8,11.6v35.2h-4.2V17.5L24.7,39.2h-0.3L6.5,17.5v29.3H2.4V11.6H7l17.6,21.5l17.6-21.5H46.8z"/>
		<path class="st0" d="M119.6,36.5c0,6.5-6.6,11.3-18,11.3c-7.7,0-15.1-2.4-20.6-7.2l3-3.2c5.1,4.5,10.8,6.5,17.8,6.5
			c8.5,0,13.5-2.7,13.5-7c0-4.3-5.2-5.3-14.7-6.1c-9.4-0.8-18.4-2.9-18.4-9.8c0-6.6,8.3-10.4,17.7-10.4c7.6,0,13.9,2.7,18,6.3
			l-3.3,2.8c-3.4-3.4-8.6-5.1-14.5-5.2c-6.3-0.1-13.6,1.7-13.6,6.3c0,4.4,6.6,5.3,14.9,5.9C112.2,27.5,119.6,29.6,119.6,36.5z"/>
		<path class="st0" d="M165.9,42.8v3.9h-34V11.6h34v3.9h-29.8v11.4h24.8v3.9h-24.8v12H165.9z"/>
		<rect x="62.5" y="11.6" class="st0" width="4.2" height="35.2"/>
		<polygon class="st1" points="75.3,0 68.5,0 60.3,7.5 64.2,7.5 		"/>
		<g class="st2">
			<path class="st3" d="M13.3,69.1l-4-4.5h-6v4.5H2.4V57.8h7.4c2.5,0,4.2,1.3,4.2,3.4c0,2-1.5,3.2-3.7,3.4l4,4.5H13.3z M9.8,63.8
				c2.1,0,3.4-0.9,3.4-2.6c0-1.7-1.3-2.6-3.4-2.6H3.2v5.2H9.8z"/>
			<path class="st3" d="M25.9,64.6c0,0.1,0,0.1,0,0.2h-0.7h-8.6c0,2.6,1.7,4,4.4,4c1.9,0,3.1-0.5,4.1-1.5l0.5,0.6
				c-1.2,1.1-2.6,1.6-4.7,1.6c-3.3,0-5.2-1.9-5.2-4.7c0-2.9,1.9-4.7,5.2-4.7C24,60.1,25.8,61.8,25.9,64.6z M16.5,64.1h8.5
				c-0.3-2.2-1.9-3.3-4.2-3.3C18.5,60.8,16.8,61.9,16.5,64.1z"/>
			<path class="st3" d="M37.3,64.3v3.1c0,0.7,0.1,1.2,0.4,1.7h-0.9c-0.3-0.5-0.4-1-0.4-1.6v0c-0.6,1.1-2.2,2-4.2,2
				c-2,0-4.6-0.8-4.6-3.1c0-2.3,2.6-3.1,4.6-3.1c1.9,0,3.5,0.8,4.2,2v-0.9c0-2.3-1.3-3.5-3.9-3.5c-1.5,0-2.7,0.5-3.7,1.1l-0.4-0.6
				c1-0.7,2.6-1.2,4.2-1.2C35.5,60.1,37.3,61.5,37.3,64.3z M36.4,66.1C35.7,64.6,34,64,32.3,64c-1.5,0-3.8,0.5-3.8,2.4
				c0,1.9,2.3,2.4,3.8,2.4c1.7,0,3.4-0.6,4.1-2.1V66.1z"/>
			<path class="st3" d="M40.3,69.1V57.2h0.8v11.9H40.3z"/>
			<path class="st3" d="M50.2,68.6c-0.7,0.5-1.5,0.8-2.5,0.8c-1.4,0-2.6-0.8-2.6-2.4v-6h-1.8v-0.7h1.8v-2h0.8v2h4.2v0.7h-4.2V67
				c0,1.2,0.9,1.7,1.9,1.7c0.7,0,1.4-0.3,2-0.7L50.2,68.6z"/>
			<path class="st3" d="M61.3,60.4l-7,12h-0.9l2.3-3.9l-4.8-8.1h0.9l4.3,7.3l4.3-7.3H61.3z"/>
			<path class="st3" d="M87.3,57.8v11.3h-0.8V59l-6.1,7.3h-0.1L74.2,59v10.1h-0.8V57.8h0.9l6,7.3l6-7.3H87.3z"/>
			<path class="st3" d="M99.4,64.3v3.1c0,0.7,0.1,1.2,0.4,1.7H99c-0.3-0.5-0.4-1-0.4-1.6v0c-0.6,1.1-2.2,2-4.2,2
				c-2,0-4.6-0.8-4.6-3.1c0-2.3,2.6-3.1,4.6-3.1c1.9,0,3.5,0.8,4.2,2v-0.9c0-2.3-1.3-3.5-3.9-3.5c-1.5,0-2.7,0.5-3.7,1.1l-0.4-0.6
				c1-0.7,2.6-1.2,4.2-1.2C97.7,60.1,99.4,61.5,99.4,64.3z M98.6,66.1c-0.7-1.5-2.4-2.1-4.1-2.1c-1.5,0-3.8,0.5-3.8,2.4
				c0,1.9,2.3,2.4,3.8,2.4c1.7,0,3.4-0.6,4.1-2.1V66.1z"/>
			<path class="st3" d="M102.5,69.1v-8.8h0.8v2.3c0.7-1.5,2.6-2.5,4.5-2.5V61c-2,0-3.8,0.9-4.5,2.8v5.4H102.5z"/>
			<path class="st3" d="M113.6,64.3l-2.9,2.2v2.6h-0.8V57.2h0.8v8.5l6.8-5.3h1.1l-4.4,3.4l4.7,5.3h-1L113.6,64.3z"/>
			<path class="st3" d="M130,64.6c0,0.1,0,0.1,0,0.2h-0.7h-8.6c0,2.6,1.7,4,4.4,4c1.9,0,3.1-0.5,4.1-1.5l0.5,0.6
				c-1.2,1.1-2.6,1.6-4.7,1.6c-3.3,0-5.2-1.9-5.2-4.7c0-2.9,1.9-4.7,5.2-4.7C128.1,60.1,129.9,61.8,130,64.6z M120.6,64.1h8.5
				c-0.3-2.2-1.9-3.3-4.2-3.3C122.6,60.8,120.9,61.9,120.6,64.1z"/>
			<path class="st3" d="M138,68.6c-0.7,0.5-1.5,0.8-2.5,0.8c-1.4,0-2.6-0.8-2.6-2.4v-6h-1.8v-0.7h1.8v-2h0.8v2h4.2v0.7h-4.2V67
				c0,1.2,0.9,1.7,1.9,1.7c0.7,0,1.4-0.3,2-0.7L138,68.6z"/>
			<path class="st3" d="M139.8,58.3c0-0.4,0.3-0.6,0.7-0.6s0.7,0.3,0.7,0.6s-0.3,0.6-0.7,0.6S139.8,58.6,139.8,58.3z M140.9,69.1
				h-0.8v-8.8h0.8V69.1z"/>
			<path class="st3" d="M144.4,69.1v-8.8h0.8v2c0.8-1.5,2.4-2.3,4.3-2.3c2.8,0,4.1,1.8,4.1,4.2v4.9h-0.8v-4.8c0-2.2-1.1-3.5-3.4-3.5
				c-1.8,0-3.4,0.8-4.2,2.6v5.7H144.4z"/>
			<path class="st3" d="M165.8,68.3c0,3-2.2,4.4-5,4.4c-1.6,0-3.1-0.5-4.1-1.2l0.4-0.6c1,0.7,2.2,1.1,3.7,1.1c2.7,0,4.2-1.2,4.2-3.5
				v-1.2c-0.8,1.4-2.5,2.2-4.4,2.2c-3,0-4.8-1.9-4.8-4.7c0-2.8,1.8-4.7,4.8-4.7c2,0,3.6,0.9,4.4,2.2v-1.9h0.8V68.3z M165,66.3v-3.1
				c-0.9-1.6-2.4-2.4-4.3-2.4c-2.6,0-4.1,1.5-4.1,4c0,2.5,1.5,4,4.1,4C162.6,68.7,164.1,67.9,165,66.3z"/>
		</g>
	</g>
</g>
<g>
	<path class="st0" d="M12.2,71.3l-3.3-4.7c-0.4,0.1-0.9,0.1-1.4,0.1h-4v4.6h-1v-14h5c3.5,0,5.6,1.8,5.6,4.7c0,2.2-1.2,3.8-3.3,4.4
		l3.5,4.9H12.2z M7.5,65.9c3,0,4.6-1.4,4.6-3.8c0-2.4-1.6-3.8-4.6-3.8h-4v7.6H7.5z"/>
	<path class="st0" d="M25.3,66.4h-9c0.1,2.5,1.9,4.2,4.4,4.2c1.3,0,2.5-0.5,3.3-1.5l0.6,0.7c-0.9,1.1-2.4,1.7-3.9,1.7
		c-3.2,0-5.4-2.2-5.4-5.3s2.1-5.3,5-5.3c2.9,0,5,2.2,5,5.3C25.4,66.2,25.3,66.3,25.3,66.4z M16.4,65.6h8c-0.1-2.3-1.8-3.9-4-3.9
		C18.2,61.7,16.5,63.3,16.4,65.6z"/>
	<path class="st0" d="M35.7,64.7v6.6h-1v-1.9c-0.7,1.2-1.9,1.9-3.8,1.9c-2.3,0-3.8-1.2-3.8-3c0-1.6,1-2.9,3.9-2.9h3.6v-0.8
		c0-1.9-1.1-3-3.1-3c-1.4,0-2.7,0.5-3.6,1.3l-0.5-0.7c1-0.9,2.6-1.5,4.2-1.5C34.3,60.8,35.7,62.1,35.7,64.7z M34.7,68.3v-2h-3.6
		c-2.2,0-2.9,0.9-2.9,2.1c0,1.4,1.1,2.2,2.9,2.2C32.9,70.6,34.1,69.8,34.7,68.3z"/>
	<path class="st0" d="M39.8,56.5h1v14.8h-1V56.5z"/>
	<path class="st0" d="M50.1,70.7c-0.5,0.5-1.4,0.7-2.1,0.7c-1.8,0-2.8-1.1-2.8-2.8v-6.8h-1.9v-0.9h1.9v-2.3h1v2.3h3.3v0.9h-3.3v6.7
		c0,1.3,0.7,2.1,1.9,2.1c0.6,0,1.2-0.2,1.6-0.6L50.1,70.7z"/>
	<path class="st0" d="M61,60.9l-5.4,11.9c-0.8,1.9-1.9,2.5-3.3,2.5c-0.9,0-1.8-0.3-2.4-0.9l0.5-0.8c0.5,0.6,1.2,0.8,1.9,0.8
		c1,0,1.7-0.4,2.3-1.9l0.6-1.3l-4.7-10.4h1.1l4.2,9.3l4.2-9.3H61z"/>
	<path class="st0" d="M81.9,71.3l0-12L76,69.5h-0.5l-5.9-10.1v11.9h-1v-14h0.9l6.3,10.8l6.3-10.8h0.8l0,14H81.9z"/>
	<path class="st0" d="M95,64.7v6.6h-1v-1.9c-0.7,1.2-1.9,1.9-3.8,1.9c-2.3,0-3.8-1.2-3.8-3c0-1.6,1-2.9,3.9-2.9H94v-0.8
		c0-1.9-1.1-3-3.1-3c-1.4,0-2.7,0.5-3.6,1.3l-0.5-0.7c1-0.9,2.6-1.5,4.2-1.5C93.6,60.8,95,62.1,95,64.7z M94,68.3v-2h-3.6
		c-2.2,0-2.9,0.9-2.9,2.1c0,1.4,1.1,2.2,2.9,2.2C92.2,70.6,93.4,69.8,94,68.3z"/>
	<path class="st0" d="M104.1,60.8v1c-0.1,0-0.2,0-0.2,0c-2.3,0-3.7,1.5-3.7,4.1v5.4h-1V60.9h1v2.3C100.7,61.7,102.1,60.8,104.1,60.8
		z"/>
	<path class="st0" d="M110.6,65.8l-2.7,2.5v3.1h-1V56.5h1V67l6.7-6.1h1.3l-4.5,4.2l4.9,6.2H115L110.6,65.8z"/>
	<path class="st0" d="M127,66.4h-9c0.1,2.5,1.9,4.2,4.4,4.2c1.3,0,2.5-0.5,3.3-1.5l0.6,0.7c-0.9,1.1-2.4,1.7-3.9,1.7
		c-3.2,0-5.4-2.2-5.4-5.3s2.1-5.3,5-5.3s5,2.2,5,5.3C127,66.2,127,66.3,127,66.4z M118,65.6h8c-0.1-2.3-1.8-3.9-4-3.9
		S118.2,63.3,118,65.6z"/>
	<path class="st0" d="M135.3,70.7c-0.5,0.5-1.4,0.7-2.1,0.7c-1.8,0-2.8-1.1-2.8-2.8v-6.8h-1.9v-0.9h1.9v-2.3h1v2.3h3.3v0.9h-3.3v6.7
		c0,1.3,0.7,2.1,1.9,2.1c0.6,0,1.2-0.2,1.6-0.6L135.3,70.7z"/>
	<path class="st0" d="M137.8,57.6c0-0.4,0.4-0.8,0.8-0.8c0.5,0,0.8,0.4,0.8,0.8c0,0.5-0.4,0.8-0.8,0.8
		C138.1,58.4,137.8,58,137.8,57.6z M138.1,60.9h1v10.4h-1V60.9z"/>
	<path class="st0" d="M152.6,65.2v6.1h-1v-6c0-2.4-1.3-3.6-3.4-3.6c-2.5,0-4,1.6-4,4.1v5.6h-1V60.9h1v2.3c0.7-1.5,2.2-2.3,4.1-2.3
		C150.9,60.8,152.6,62.3,152.6,65.2z"/>
	<path class="st0" d="M166.2,60.9v9.3c0,3.5-1.7,5.1-5.1,5.1c-1.9,0-3.7-0.6-4.8-1.7l0.5-0.8c1,1,2.5,1.5,4.2,1.5
		c2.8,0,4.1-1.3,4.1-4.1v-1.8c-0.9,1.5-2.5,2.4-4.3,2.4c-3,0-5.2-2.1-5.2-5.1s2.2-5.1,5.2-5.1c1.9,0,3.5,0.9,4.4,2.4v-2.4H166.2z
		 M165.2,65.9c0-2.5-1.8-4.2-4.3-4.2c-2.5,0-4.3,1.7-4.3,4.2c0,2.5,1.8,4.2,4.3,4.2C163.4,70.1,165.2,68.3,165.2,65.9z"/>
</g>
</svg>
