<svg id="Layer_1" data-name="Layer 1" xmlns="http://www.w3.org/2000/svg" width="127.4322" height="95" viewBox="0 0 127.4322 95"><defs><style>.cls-1{fill:#fff;}</style></defs><path class="cls-1" d="M60.7137,115.8035H43.1472c15.0666-20,24.3412-37.2674,26.2839-43.036a28.1808,28.1808,0,1,1-5.3273-50.2021,31.13,31.13,0,0,1,14.61,11.7381v.0337C87.4068,47.1136,95.2138,66.8035,60.7137,115.8035Z" transform="translate(-26.2138 -20.8035)"/><path class="cls-1" d="M128.2138,115.8035H110.6471c15.0667-20,24.3418-37.2674,26.2838-43.036a28.1807,28.1807,0,1,1-5.3271-50.2021,31.1306,31.1306,0,0,1,14.61,11.7381v.0337C154.9068,47.1136,162.7138,66.8035,128.2138,115.8035Z" transform="translate(-26.2138 -20.8035)"/></svg>