<svg xmlns="http://www.w3.org/2000/svg" viewBox="0 0 4.42 8.18"><defs><style>.cls-1{fill:#fff;}</style></defs><g id="Layer_2" data-name="Layer 2"><g id="Layer_1-2" data-name="Layer 1"><path class="cls-1" d="M3.16,4.23h1c.09,0,.14,0,.15-.12,0-.41.08-.82.13-1.22a.14.14,0,0,0-.14-.16H3.05c-.06,0-.12,0-.12-.08,0-.25,0-.5,0-.75s.23-.47.58-.47h.79c.08,0,.11,0,.11-.09V.09c0-.07,0-.09-.1-.09C3.77,0,3.23,0,2.68,0A1.7,1.7,0,0,0,1.37.61,1.7,1.7,0,0,0,1,1.67c0,.32,0,.63,0,1,0,.11,0,.15-.17.15H.12c-.09,0-.12,0-.12.11,0,.41,0,.83,0,1.24,0,.09,0,.11.13.11H.82c.12,0,.16,0,.16.14,0,.66,0,1.32,0,2V8a.14.14,0,0,0,.14.15h1.7A.15.15,0,0,0,3,8V4.41C3,4.2,2.94,4.24,3.16,4.23Z"/></g></g></svg>