<svg xmlns="http://www.w3.org/2000/svg" viewBox="0 0 8.03 8.03"><defs><style>.cls-1{fill:#fff;}</style></defs><g id="Layer_2" data-name="Layer 2"><g id="Layer_1-2" data-name="Layer 1"><path class="cls-1" d="M4,2A2.07,2.07,0,1,0,6.08,4,2.07,2.07,0,0,0,4,2Zm0,3.4A1.34,1.34,0,1,1,5.35,4,1.33,1.33,0,0,1,4,5.35Z"/><circle class="cls-1" cx="6.16" cy="1.87" r="0.48"/><path class="cls-1" d="M6.65,7.82a2,2,0,0,0,.71-.46,2.06,2.06,0,0,0,.46-.71,3,3,0,0,0,.19-1C8,5.24,8,5.11,8,4S8,2.79,8,2.36a2.86,2.86,0,0,0-.19-1A2,2,0,0,0,7.36.67,2,2,0,0,0,6.65.21a3,3,0,0,0-1-.19C5.24,0,5.11,0,4,0S2.79,0,2.36,0a2.86,2.86,0,0,0-1,.19A2,2,0,0,0,.21,1.39a2.86,2.86,0,0,0-.19,1C0,2.79,0,2.93,0,4S0,5.24,0,5.67a3,3,0,0,0,.19,1,2.06,2.06,0,0,0,.46.71,2,2,0,0,0,.72.46,2.86,2.86,0,0,0,1,.19C2.79,8,2.92,8,4,8S5.24,8,5.67,8A3,3,0,0,0,6.65,7.82ZM4,7.31c-1.08,0-1.2,0-1.63,0a2.16,2.16,0,0,1-.74-.13,1.31,1.31,0,0,1-.46-.3,1.12,1.12,0,0,1-.3-.47,2.1,2.1,0,0,1-.14-.74c0-.42,0-.55,0-1.62s0-1.2,0-1.63a2.1,2.1,0,0,1,.14-.74,1.08,1.08,0,0,1,.3-.46,1.19,1.19,0,0,1,.46-.3A1.89,1.89,0,0,1,2.39.75c.43,0,.55,0,1.63,0s1.2,0,1.62,0a1.89,1.89,0,0,1,.74.14,1.22,1.22,0,0,1,.47.3,1.31,1.31,0,0,1,.3.46,2.36,2.36,0,0,1,.14.74c0,.43,0,.55,0,1.63s0,1.2,0,1.62a2.36,2.36,0,0,1-.14.74,1.29,1.29,0,0,1-.77.77,2.16,2.16,0,0,1-.74.13C5.22,7.3,5.09,7.31,4,7.31Z"/></g></g></svg>