<svg xmlns="http://www.w3.org/2000/svg" viewBox="0 0 8.03 7.98"><defs><style>.cls-1{fill:#fff;}</style></defs><g id="Layer_2" data-name="Layer 2"><g id="Layer_1-2" data-name="Layer 1"><rect class="cls-1" x="0.05" y="2.41" width="1.72" height="5.57"/><path class="cls-1" d="M6.06,2.29a2,2,0,0,0-1.71.9h0l-.08-.78H2.75c0,.5,0,1.08,0,1.78V8H4.51V4.77a1.37,1.37,0,0,1,0-.43,1,1,0,0,1,.89-.65c.62,0,.87.49.87,1.2V8H8V4.69C8,3.05,7.19,2.29,6.06,2.29Z"/><path class="cls-1" d="M.91,0A.85.85,0,0,0,0,.86a.85.85,0,0,0,.89.87A.86.86,0,0,0,1.82.86.85.85,0,0,0,.91,0Z"/></g></g></svg>