<svg xmlns="http://www.w3.org/2000/svg" viewBox="0 0 6.36 8.18"><defs><style>.cls-1{fill:#fff;}</style></defs><g id="Layer_2" data-name="Layer 2"><g id="Layer_1-2" data-name="Layer 1"><path class="cls-1" d="M1.36,8.18A4.31,4.31,0,0,0,2.62,5.41c.39.23.59.48,1.09.52,1.84.14,2.86-1.83,2.61-3.66C6.1.66,4.49-.16,2.77,0A3.07,3.07,0,0,0,0,2.85c0,1,.24,1.68,1.15,1.88C1.55,4,1,3.88.94,3.37a2.33,2.33,0,0,1,3.82-2c1,1,.33,4.08-1.26,3.76S4.25,2.34,3,1.86c-1-.4-1.51,1.19-1,2C1.71,5.2,1.12,6.47,1.36,8.18Z"/></g></g></svg>