<svg id="Layer_1" data-name="Layer 1" xmlns="http://www.w3.org/2000/svg" xmlns:xlink="http://www.w3.org/1999/xlink" width="3.7639in" height="1.5454in" viewBox="0 0 271 111.2724"><defs><style>.cls-1{fill:none;}.cls-2{clip-path:url(#clip-path);}.cls-3,.cls-4{fill:hsla(210, 100%, 6%, 35%);}.cls-4{fill-rule:evenodd;}</style><clipPath id="clip-path"><rect class="cls-1" x="2.8994" y="1.0728" width="264.7992" height="95.8774"/></clipPath></defs><g class="cls-2"><path class="cls-3" d="M240.6313,70.6051a13.0952,13.0952,0,0,0,13.14,13.3389c7.5438,0,13.927-6.1112,13.927-13.3389A13.1813,13.1813,0,0,0,254.1552,57.53c-7.2131,0-13.5239,6.1073-13.5239,13.0747m4.5357-2.06c0-4.4525,2.6715-8.97,7.7591-8.97,6.3959,0,10.2241,6.849,10.2241,13.472,0,4.2479-2.9318,8.8364-7.6417,8.8364C249.0265,81.8831,245.167,75.1075,245.167,68.5452Zm-8.49-11.2095h-.81l-.0529.0851c-.1331.1713-.3757.4854-1.7242.5461l-5.1629.0616H221.7l-5.6405-.0616c-1.3435-.0607-1.5872-.3748-1.7144-.5461l-.0783-.0851h-.9385l-.0479.137c-.1165.2642-1.8759,4.8067-1.94,5.0788l-.0538.1566,1.2016.7153.0969-.2349c.79-2.1147,1.6607-3.1167,6.1582-3.1167a32.2329,32.2329,0,0,1,3.4582.1791c.2779,3.4485.3249,6.7756.3249,9.2954,0,2.42-.0783,9.5372-.3317,11.07-.0949.5509-.2691.91-2.4621,1.3044l-1.5863.2006-.6272.0715.273,1.4169,2.1313-.1379.595-.0343,4.1442-.0978.6537-.0088,2.2869.0215,1.7517.0646,1.8553.0665.03-.1928.1429-1.2653L230.236,81.91l-.28-.03a4.5233,4.5233,0,0,1-2.193-.6977c-.2808-.3161-.7711-1.9659-.7711-9.3267l.1223-5.255.1321-5.9829c0-.5138,0-.5451,2.3662-.5451l.0842.02,1.4033-.02h.3063c4.16,0,4.4808.8641,5.1874,2.7576l.2309.594,1.1919-.7036-.2946-1.3583c-.3972-1.9953-.7544-3.6735-.84-3.8888l-.0665-.137Zm-37.6524.365s2.0765.139,2.6842.184c.6263.05,2.5834.0616,5.34.0616h.2055v1.3661h-.2055c-1.4141,0-2.8946.2887-3.1041,2.0149-.1751.9815-.3337,8.9989-.3337,12.42,0,2.3124,0,7.63.138,9.6859l.01.229-1.6557.0352-.0627-.0812L183.6619,64.47c-.0127.5959-.043,1.4933-.043,1.4933l-.137,10.54c-.0578,4.1452-.0578,4.6785,4.793,5.5279l.1791.03v1.2409l-.0206.226s-1.9718-.138-1.9826-.138l-2.8515-.1281-5.9321.2661V82.1924s1.6088-.3464,1.65-.3562c.9247-.18,1.4649-.2867,1.6557-1.7458.184-1.4248.3758-6.4478.3758-8.083l.0665-4.4319c.1282-7.2248-.4159-7.6153-3.9544-8.267l-.1624-.0323.0107-1.2349-.02-.23,1.8025.135,1.9033.0627,2.82-.0627.0743.0754S201.2194,76.0988,201.56,76.46c.0225-.6977-.0519-6.8392-.0519-6.8392-.1311-10.1723.6419-10.2711-4.2871-10.5549l-.227-.0147.2534-1.2662A10.8851,10.8851,0,0,1,199.0245,57.7007Zm-39.71-.17a13.1709,13.1709,0,0,1,13.5346,13.0747c0,7.2277-6.3734,13.3389-13.9231,13.3389a13.09,13.09,0,0,1-13.1344-13.3389C145.7912,63.6377,152.1089,57.53,159.3141,57.53Zm1.3612,24.3527c4.7138,0,7.6358-4.5885,7.6358-8.8364,0-6.623-3.8253-13.472-10.2134-13.472-5.1032,0-7.7767,4.518-7.7767,8.97C150.321,75.1075,154.1864,81.8831,160.6753,81.8831ZM129.0362,57.7164c5.384,0,9.1476,2.8613,9.1476,6.9586,0,3.3154-2.9093,5.5778-5.709,6.3636,5.1512,7.2444,6.1063,8.3551,8.1613,10.2271a6.6139,6.6139,0,0,0,3.7284,1.7389l.1986.0254-.09,1.3456H144.28a11.9264,11.9264,0,0,1-7.9195-2.5991c-3.9065-3.0062-7.7562-8.8942-8.4784-10.1488-.21-.0039-2.693-.1-3.0844-.11v4.5582c0,1.736.0538,4.2313.4325,4.9829.2632.49,2.3251,1.0823,3.4211,1.4042l.138.0362.091,1.3515-.27-.0353a40.45,40.45,0,0,0-5.6248-.4354c-.8769,0-4.845.2378-5.7051.3043l-.1791.0215-.3063-1.1527.2388-.0353c.5265-.091,2.6245-.5979,3.1148-1.5119.39-.7936.3748-5.2735.3748-7.1885v-6.58c0-7.6515-.321-7.6652-3.4055-7.8521l-.2162-.0117.0949-1.4894.3787.03s2.2674.1135,2.283.1135l2.3623.0617c.5744,0,2.0726-.1272,3.5091-.2505ZM124.8782,69.67a22.4812,22.4812,0,0,0,2.5414.1028c2.2986,0,6.1581-.6253,6.1581-4.7813,0-2.2048-1.6127-5.4722-6.0936-5.4722-2.4846,0-2.4846.0753-2.5482,4.3488C124.9359,63.8677,124.8782,69.3075,124.8782,69.67ZM98.585,57.53a13.1643,13.1643,0,0,1,13.5238,13.0747c0,7.2277-6.3783,13.3389-13.9123,13.3389a13.0988,13.0988,0,0,1-13.149-13.3389C85.0475,63.6377,91.368,57.53,98.585,57.53Zm1.35,24.3527c4.7138,0,7.628-4.5885,7.628-8.8364,0-6.623-3.8262-13.472-10.2065-13.472-5.1081,0-7.7611,4.518-7.7611,8.97C89.5958,75.1075,93.4563,81.8831,99.9354,81.8831ZM81.1038,57.3357h-.8112l-.0695.0881c-.1155.1683-.3679.4824-1.7076.5431l-5.1561.0616H66.118l-5.6444-.0616c-1.3426-.0607-1.5706-.3748-1.7057-.5431l-.0655-.0881h-.9541l-.048.137c-.1047.2642-1.872,4.8067-1.9395,5.0788l-.0372.1566,1.187.7153.0881-.2349c.8132-2.1147,1.6841-3.1167,6.166-3.1167a32.6237,32.6237,0,0,1,3.4729.1791c.2632,3.4485.3043,6.7756.3043,9.2954,0,2.42-.0685,9.5372-.3209,11.07-.09.5509-.2691.91-2.4621,1.3044l-1.5863.2006-.6272.0715.2818,1.4169,2.1274-.1379.5842-.0343,4.1413-.0978.6625-.0088,2.2948.0215,1.7438.0646,1.8456.0665.0313-.1928.1585-1.2653L74.656,81.91l-.274-.03a4.5768,4.5768,0,0,1-2.2-.6977c-.2818-.3161-.76-1.9659-.76-9.3267l.1126-5.255.138-5.9829c0-.5138,0-.5451,2.3661-.5451l.08.02,1.4-.02h.3132c4.1706,0,4.4916.8641,5.1874,2.7576l.2358.594,1.1811-.7036-.2945-1.3583c-.4051-1.9953-.7525-3.6735-.8367-3.8888l-.06-.137ZM244.3685,34.2082a30.1673,30.1673,0,0,1-4.0709.1751L238.26,34.355l-2.1049-.0588-.7.04-.5372.0557-.0059.092v.412l.0959.0078c.5333.0255,1.0275.0754,1.2467.3924.3072.4658.3376.9444.3376,5.13a41.92,41.92,0,0,1-.2378,4.5269c-.1047.46-.7574.6243-1.2418.7036l-.0734.0176-.04.6282.1135-.0127c1.185-.0851,2.4738-.1125,2.8114-.1125l1.0441.0274c.01,0,1.9308.092,1.9308.092v-.69l-.1351-.0118c-1.3758-.1311-1.8377-.3669-1.9806-.5411a3.9141,3.9141,0,0,1-.2055-1.64c0-.2182.0059-.44.0108-.6566,0,0,.0508-1.7654.0646-2.1783.1428-.0088.9834-.0519.9834-.0519a9.8418,9.8418,0,0,1,2.7811.3973c.182.0607.3464.44.42.9727l.0108.0832h.5969l.0039-.09a30.01,30.01,0,0,0,.0675-3.3614l-.0058-.0979h-.6292l-.0108.0851c-.1507.87-.2065,1.2272-2.5433,1.2272a10.8848,10.8848,0,0,1-1.5912-.1008s-.0264-.003-.0509-.0049c-.0195-.21-.03-.4355-.03-.68,0-.2681.0078-.5529.0176-.8435,0,0,.0372-2.46.0372-2.8428.6782-.0793,1.2663-.1086,1.4375-.1086a5.55,5.55,0,0,1,2.9113.595,2.0162,2.0162,0,0,1,.6214,1.1654l.0166.08.6615-.0392-.0059-.1017c-.0176-.1909.0245-.8367.0666-1.4111l.0646-1.2585Zm-18.2024-.0861A6.1426,6.1426,0,0,1,232.475,40.22a6.4474,6.4474,0,0,1-6.49,6.2208,6.1108,6.1108,0,0,1-6.13-6.2208A6.3658,6.3658,0,0,1,226.1661,34.1221Zm.6292,11.3563c2.1979,0,3.5571-2.1392,3.5571-4.1188,0-3.09-1.778-6.2844-4.7539-6.2844-2.3857,0-3.6285,2.1069-3.6285,4.1834C221.97,42.32,223.7755,45.4784,226.7953,45.4784ZM204.3968,34.3657v.59l.1419.0049c.5989.0294,1.4238.0665,1.4238.5392,0,.1448-.2554.84-2.52,4.0875a29.27,29.27,0,0,1-3.13-4.2607c0-.1321,0-.2809,1.368-.3073l.1018-.0029v-.6929l-1.142.0206-2.1979.0391L196.06,34.351V34.99h.0988a2.05,2.05,0,0,1,1.233.273,36.9618,36.9618,0,0,1,3.3918,3.9006c.0078.0107,1.0353,1.3142,1.1292,1.4414.0636.8435.12,1.7829.12,2.9377,0,1.7761,0,2.146-1.6724,2.2017l-.0969.002-.0391.595.0978.01c.2437.0176,1.0168-.0411,1.7634-.095l1.2751-.0792.9678.044.1957.0118,1.31.0636-.0068-.1047v-.4991l-.091-.0049c-1.6381-.1429-1.6577-.3494-1.6812-.6674v-.1213q-.0573-1.1038-.0587-2.4357c0-.6674.0107-1.3778.0342-2.1235.03-.047,2.3564-3.5571,2.3564-3.5571.7418-1.1381.56-1.7663,2.1734-1.7927l.094-.004v-.682l-.091-.0079a7.1846,7.1846,0,0,0-.8328.048l-.7721.0391-.9159-.0479-.641-.0392-.9-.03h-.1057Zm-10.6135-.3346h-.3846l-.0255.0411c-.06.0792-.1722.224-.7946.2544l-2.4121.0284h-3.3722l-2.6284-.0284c-.63-.03-.7349-.1752-.7985-.2544l-.0284-.0411h-.4443l-.0264.0645c-.0538.1224-.8729,2.241-.9032,2.3682l-.0245.0724.5607.3347.0441-.1106c.3738-.9854.7779-1.4532,2.874-1.4532a15.0512,15.0512,0,0,1,1.6137.0842c.1292,1.6078.1468,3.1588.1468,4.3341,0,1.1282-.0372,4.4476-.1468,5.1619-.0441.2574-.1253.4257-1.1538.6087.0079,0-.74.0939-.74.0939l-.2877.0333.1234.6625.9971-.0656.274-.0156,1.9317-.047.3053-.0039,1.0686.01.8132.03.866.0313.0157-.09.0714-.59-.5431-.0538-.1213-.0147a2.0877,2.0877,0,0,1-1.0275-.3249c-.1311-.1468-.3582-.9159-.3582-4.3487l.0548-2.4514.0676-2.79c0-.24,0-.2544,1.094-.2544l.045.01.6527-.01h.136c1.9454,0,2.0942.4032,2.4259,1.2859l.1047.2779.5539-.3288-.139-.6322c-.1849-.9326-.3464-1.7144-.3885-1.8143l-.0264-.0645Zm-20.0421.364v.59l.0929.0049c1.5687.0557,1.8241.3738,1.9493.6957a34.1811,34.1811,0,0,1,.2662,5.1473v.2075c0,1.0235.0078,3.4181-.318,3.9661-.1028.184-.5089.5069-2.0521.6224l-.092.0078v.6018l1.9014-.0616H177.23l2.8985.091-.0069-.1106-.0362-.56h-.0939c-1.2682,0-1.6783-.0225-1.829-.5118a23.8907,23.8907,0,0,1-.1164-3.3507c0-4.6306.0293-5.8528.2877-6.301.3161-.5157,1.4336-.4491,1.7653-.4178l.1106.0137v-.7036h-1.4209c-.0078,0-2.009.0567-2.009.0567l-1.3259-.0391-.5666-.0176-1.0481-.03-.0978-.0019Zm-10.6263,3.1754c0,2.0237,1.7448,2.7332,3.0159,3.2469l.1086.0411c2.1783.88,3.1755,1.279,3.1755,2.77a1.8932,1.8932,0,0,1-2.1157,1.825,4.412,4.412,0,0,1-2.7938-1,3.049,3.049,0,0,1-.9228-1.691l-.0186-.0743h-.72l.0352.1252a8.6554,8.6554,0,0,1,.504,3.3751v.0969l.5852.04.0293-.0665c.03-.0675.1263-.2887.2662-.2887a5.273,5.273,0,0,1,.7339.1517l.0842.02.1751.0509a4.5527,4.5527,0,0,0,1.4718.2172c2.9308,0,4.5083-1.7643,4.5083-3.422,0-2.3339-2.3251-3.244-3.8566-3.8438-1.46-.5529-2.5638-1.07-2.5638-2.2449a1.9888,1.9888,0,0,1,2.2341-1.9395,3.3251,3.3251,0,0,1,2.2751.8983,2.597,2.597,0,0,1,.7193,1.4767l.0157.0763.0851.0274h.5274l-.16-1.5608a6.2254,6.2254,0,0,1,.181-1.4013l.0225-.1067-.5363-.0792s-.3229.2182-.3855.2612a8.4289,8.4289,0,0,0-2.4093-.3738C164.8724,34.1788,163.1149,35.5743,163.1149,37.5705Zm-8.4872-3.3623c2.512,0,4.2676,1.3357,4.2676,3.2459a3.3378,3.3378,0,0,1-2.6666,2.967c2.4112,3.379,2.8535,3.8967,3.8076,4.77a3.1212,3.1212,0,0,0,1.7409.8171l.0978.0068-.044.6273h-.091a5.544,5.544,0,0,1-3.6912-1.2115,19.8728,19.8728,0,0,1-3.9613-4.7333c-.0939-.003-1.2564-.047-1.43-.0519v1.5863s-.004.43-.004.54a8.1347,8.1347,0,0,0,.2,2.3241,4.5067,4.5067,0,0,0,1.5941.6537l.0665.0176.0421.63-.1223-.0156a18.7978,18.7978,0,0,0-2.6275-.2045c-.412,0-2.2566.1115-2.66.1428l-.0841.0088-.138-.5362.1067-.0166c.2427-.0431,1.2242-.28,1.4522-.7056a17.8878,17.8878,0,0,0,.1732-3.3526V38.6489c0-3.5678-.1527-3.5747-1.5833-3.6608l-.1028-.0059.045-.6957.18.0156s1.0559.0529,1.06.0538l1.1009.0274c.2671,0,.9668-.06,1.64-.1174Zm-1.9424,5.5749a10.66,10.66,0,0,0,1.19.0479c1.0715,0,2.8731-.2906,2.8731-2.23a2.6125,2.6125,0,0,0-2.8408-2.5512c-1.16,0-1.16.0353-1.1948,2.0276C152.7127,37.0773,152.6921,39.6148,152.6853,39.7831Zm-7.36-5.5172c-1.4766.0851-3.7958.1174-5.3351.1174-.9356,0-3.2763-.0567-4.1414-.0871l-.0988-.0048v.5969l.0773.0107c1.0187.1762,1.0862.2007,1.1547.4277.11.2779.2369,1.3553.2369,4.9535a40.0339,40.0339,0,0,1-.2682,4.7891c-.0743.4-.5842.5324-1.3846.6185l-.1.0107.0891.6645.092-.0117a47.2,47.2,0,0,1,4.7294-.1742l4.7989.0577.0421-.0714a6.3245,6.3245,0,0,0,.8983-2.8986l.0206-.1047-.5754-.042-.0235.0665c-.4071,1.0921-1.2183,2.2106-4.1384,2.2106a4.8578,4.8578,0,0,1-2.0432-.3523,15.7448,15.7448,0,0,1-.14-2.2879s-.0235-1.7761-.0284-2.1842a13.7828,13.7828,0,0,1,1.7947-.1027c2.3408,0,2.52.1791,2.8408,1.6127l.0206.0763h.5646v-.1008c-.0293-1.5716-.0293-1.9376.0607-3.5776l.0078-.1048h-.6331l-.0186.0725c-.2329.8738-.42,1.0431-.7584,1.094a22.2416,22.2416,0,0,1-3.7959.1233c-.0029-.1517-.0548-1.5686-.0548-1.5686a19.6919,19.6919,0,0,1,.2016-2.7733,18.233,18.233,0,0,1,2.3124-.2153c1.3269,0,2.1078.1693,2.4532.5382a1.5938,1.5938,0,0,1,.2672,1.2506l-.003.091.6753.0871V36.96c0-.1282.0861-.6028.1477-.9463l.07-.4393a7.1859,7.1859,0,0,0,.09-1.2086V34.26Zm-25.99.138.0352.5147.0812.0108c1.6147.2016,1.6744.2055,2.9817,2.8584l2.7028,5.45c0-.0039.0235.0509.0235.0509a27.0683,27.0683,0,0,1,1.3847,3.1921l.0147.0734h.594l.0264-.0646a24.9217,24.9217,0,0,1,1.646-3.8653l2.9083-5.6483c.6713-1.3328.9658-1.6695,2.2732-1.93l.0783-.0156v-.65l-.1.0029c-.75.0265-1.4728.0265-2.2145,0-.0049,0-2.286-.0606-2.286-.0606l-.0078.0871-.0352.6145.1037-.0049c.6008,0,1.4042.0763,1.4042.7153a4.2915,4.2915,0,0,1-.4286,1.3192l-.046.0978c-.5989,1.327-.9737,2.057-1.3729,2.8291l-1.3269,2.7028s-.1948.4345-.3083.6771a57.2542,57.2542,0,0,1-3.7039-8.0056c0-.1439.0343-.16,1.0158-.28l.3092-.04v-.6518l-1.8407.0079-.9913-.0079c-.6918,0-2.0922-.0323-2.81-.0871l-.1185-.01Zm-8.1036-.0088v.59l.0989.0049c1.5657.0557,1.826.3738,1.9512.6957a33.9355,33.9355,0,0,1,.2652,5.1473v.2075c0,1.0235.0069,3.4181-.32,3.9661-.1047.184-.5127.5069-2.052.6224l-.091.0078v.6018l1.8994-.0616h1.7418l2.8956.091-.0068-.1106-.0382-.56h-.092c-1.2682,0-1.6723-.0225-1.825-.5118a24.1337,24.1337,0,0,1-.1135-3.3507c0-4.6306.0244-5.8567.2857-6.301.3171-.5157,1.4268-.4491,1.7654-.4178l.1086.0137v-.7036h-1.4189c-.0079,0-2.012.0567-2.012.0567l-1.322-.0391-.5647-.0176-1.05-.03-.1057-.0019Zm-6.0182-.1938s.9727.0646,1.2585.0852c.2916.0234,1.2026.03,2.4855.03h.1v.637h-.1c-.66,0-1.3475.1331-1.4482.9385-.0832.458-.1537,4.1971-.1537,5.7922,0,1.0783,0,3.558.0558,4.517l.0137.1077-.7721.0156-.0284-.0372-8.5713-8.9294c-.0058.2769-.0235.6967-.0235.6967l-.0587,4.9144c-.0283,1.9337-.03,2.1822,2.2321,2.5786l.0852.0146v.5784l-.01.1057s-.9218-.0646-.9277-.0646l-1.3269-.06-2.7752.1243v-.5412l.0078-.0822s.7515-.1615.773-.1664c.4287-.0841.6851-.134.7673-.8141.0861-.6635.1751-3.0062.1751-3.7685l.0255-2.0677c.0665-3.3692-.185-3.5513-1.8358-3.8556l-.0744-.0147.0078-.5754-.0215-.1086.85.0646.8836.0274,1.32-.0274.0313.0342s8.081,8.4314,8.2376,8.5987c.0118-.3258-.02-3.19-.02-3.19-.0617-4.7431.2955-4.7891-1.9983-4.9222l-.1115-.0059.1262-.591A4.9907,4.9907,0,0,1,105.2138,34.2013Zm-20.3533.0949.1018.003V34.98l-.0969.0078c-1.8534.1693-2.006.182-2.006,4.3v2.2155c0,1.281,0,3.95,3.379,3.95,3.7146,0,3.9847-2.3946,3.9847-6.3411V38.0677c0-.7937-.1027-2.3868-.4805-2.7557a2.33,2.33,0,0,0-1.461-.2926h-.1v-.595l-.0029-.1017.7143.0205,1.6108.04,2.0873-.0479.2651-.0166-.042.6634-.09.0059c-1.3944.0812-1.4062.4276-1.43,1.2584l-.0039.0744-.0293,1.7164c-.0871,5.6924-.3611,8.43-5.53,8.43-3.2645,0-4.9878-1.414-4.9878-4.0924l.1478-3.8732c0-1.8084-.1674-3.18-.41-3.3232-.182-.1292-.4442-.1292-1.23-.1292h-.0949l-.0411-.6546.0939-.0118c.2407-.0283,1.8955-.0567,2.7116-.0567l.6909-.0127C83.37,34.2962,84.4016,34.2767,84.8605,34.2962Z"/><path class="cls-3" d="M42.6656,74.994l-.5725-1.2271L41.3122,72.13A3.4621,3.4621,0,0,0,38.57,70.109a32.764,32.764,0,0,0,4.48-16.4028V33.6876a.2333.2333,0,0,0-.2338-.231H3.2037a.2293.2293,0,0,0-.23.231V53.7062A32.7826,32.7826,0,0,0,7.4517,70.109a3.4523,3.4523,0,0,0-2.73,2.0207l-.7829,1.6411L3.3662,74.994C2.85,76.0577,2.31,78.235,4.4377,80.9163c1.7233,2.1656,5.3528,4.4887,9.7172,6.2149l.2016.0783c.3709.1487.732.29,1.0764.4335-.3571.3533-.8582.7594-1.25,1.0764l-.3513.2907a2.8707,2.8707,0,0,0-.2417.2153c-.0059.0039-.0186,0-.0245.0117a.7826.7826,0,0,0-.0734.0881,2.2168,2.2168,0,0,0-.57,1.6528v3.84c0,1.5735,2.1969,2.1323,4.25,2.1323H28.857c2.055,0,4.2528-.5588,4.2528-2.1323v-3.84a2.2205,2.2205,0,0,0-.5705-1.6528c-.0284-.0284-.0421-.0607-.0743-.0881-.0079-.0117-.0186-.0078-.0265-.0137-.0773-.0724-.1546-.1438-.2407-.2133l-.3445-.2858c-.3953-.317-.8953-.728-1.2564-1.0813.3444-.1438.7075-.2848,1.08-.4335l.1987-.0783c4.3605-1.7262,7.9929-4.0493,9.7142-6.2149,2.1313-2.6813,1.5892-4.8586,1.0755-5.9223M3.4347,49.287H42.5892v4.4192c0,19.7818-18.36,31.005-19.5782,31.7292-1.22-.7242-19.5763-11.9474-19.5763-31.7292Zm36.6768,22.34a3.4079,3.4079,0,0,1,.03,3.1226,4.5072,4.5072,0,0,1-.3082.592l-1.4131-2.0423a.23.23,0,0,0-.4071.0636,1.4363,1.4363,0,0,1-.865.8543,1.8894,1.8894,0,0,1-1.32.0558,40.4214,40.4214,0,0,0,2.4836-3.7205c.0754.0078.15.0078.2241.0176.0049.002.0069.0068.0147.0068A2.078,2.078,0,0,1,40.1115,71.6268ZM27.5564,91.3205l.2447.2515H18.2287l.2476-.2554a2.5265,2.5265,0,0,0,1.0343-2.1656V86.4227c0-2.6607-2.2869-3.71-4.9408-4.9212-.9218-.4276-1.8778-.8651-2.8339-1.4A23.5452,23.5452,0,0,1,8.534,77.8818l2.099-3.0365A47.7894,47.7894,0,0,0,22.8965,85.908a.2419.2419,0,0,0,.2309,0A47.7092,47.7092,0,0,0,35.3928,74.84l2.0961,3.0414a23.1063,23.1063,0,0,1-3.197,2.2194c-.9541.5352-1.9062.9727-2.8339,1.4C28.808,82.713,26.52,83.762,26.52,86.4227V89.151A2.5333,2.5333,0,0,0,27.5564,91.3205ZM8.1847,77.5774a10.9768,10.9768,0,0,1-1.7106-1.824C6.7374,75.37,7.5359,74.217,7.79,73.852a1.9441,1.9441,0,0,0,.9208.7956,2.4254,2.4254,0,0,0,1.4053.1341Zm27.7268-2.7957a2.454,2.454,0,0,0,1.4121-.1341,1.9763,1.9763,0,0,0,.9188-.7956c.2525.365,1.05,1.5178,1.3123,1.9014a11.1349,11.1349,0,0,1-1.71,1.824ZM3.4347,33.9185H42.5892V48.8231H3.4347ZM5.9212,71.6268a2.0666,2.0666,0,0,1,1.5569-1.05c.0069,0,.0108-.0048.0167-.0068.07-.01.1448-.01.2162-.0157a40.1732,40.1732,0,0,0,2.4836,3.7206,1.89,1.89,0,0,1-1.31-.0578,1.42,1.42,0,0,1-.867-.8543.222.222,0,0,0-.1859-.1585.22.22,0,0,0-.2231.0949L6.1962,75.3414a5.2489,5.2489,0,0,1-.3131-.592A3.4062,3.4062,0,0,1,5.9212,71.6268Zm8.6026,15.1521-.1976-.0822c-4.293-1.6929-7.8511-3.9651-9.5274-6.072-1.87-2.3544-1.5872-4.2509-1.0167-5.4281L4.3585,73.96l.773-1.6215c.0079-.0127.0167-.0225.0255-.0353a4.2284,4.2284,0,0,0,.2994,2.6255c.8729,2.0766,3.8057,4.2989,6.0544,5.572.9669.551,1.9327.9943,2.8663,1.4219,2.6088,1.1948,4.6707,2.1382,4.6707,4.5V89.151a2.7651,2.7651,0,0,1-.0744.6684,1.8844,1.8844,0,0,0-.4041-.8054A10.6534,10.6534,0,0,0,14.5238,86.7789Zm-.7681,2.9524c.01-.0108.0215-.0284.0371-.0441a.0814.0814,0,0,1,.0137-.0225,2.9124,2.9124,0,0,1,.321-.2994l.3464-.2838a15.08,15.08,0,0,0,1.415-1.2418A6.7338,6.7338,0,0,1,18.22,89.32a1.2,1.2,0,0,1,.15,1.461c-.0665.0646-.138.1331-.21.2006l-.58.59h-.407c-1.9083.0186-3.1814-.6439-3.4554-1.3094A.57.57,0,0,1,13.7557,89.7313Zm18.8707.9071a3.3388,3.3388,0,0,1,.0176.34v3.84c0,1.23-2.04,1.67-3.787,1.67H17.1719c-1.7439,0-3.7861-.44-3.7861-1.67v-3.84a3.2617,3.2617,0,0,1,.0176-.3366c.454.7163,1.7506,1.412,3.7733,1.3964h11.68C30.8767,92.0534,32.1714,91.3577,32.6264,90.6384Zm-1.0647-1.551.3406.2779a2.5107,2.5107,0,0,1,.32.3014.2141.2141,0,0,1,.0176.02.5352.5352,0,0,1,.0342.0441.5616.5616,0,0,1,.04.5313c-.2731.6655-1.55,1.328-3.4573,1.3094h-.4061l-.58-.59c-.0734-.0675-.1458-.136-.2065-.2006h-.0059A1.1974,1.1974,0,0,1,27.81,89.32,6.6919,6.6919,0,0,1,30.1418,87.84,15.4038,15.4038,0,0,0,31.5617,89.0874Zm9.6663-8.4627c-1.6733,2.1069-5.2343,4.3791-9.5244,6.072l-.1976.0793a10.73,10.73,0,0,0-4.0435,2.238,1.8253,1.8253,0,0,0-.4061.8054,2.7289,2.7289,0,0,1-.0714-.6684V86.4227c0-2.3622,2.0579-3.3056,4.6658-4.5.9326-.4276,1.9013-.8709,2.8721-1.4219,2.2458-1.2731,5.1766-3.4954,6.0466-5.572a4.2314,4.2314,0,0,0,.3092-2.6255.2035.2035,0,0,0,.0186.0353l.775,1.6215.5735,1.2369C42.8163,76.3738,43.1,78.27,41.228,80.6247Z"/></g><path class="cls-4" d="M10.3228,81.0063c.048-.0851.092-.1732.138-.2563-.3239-.1977-.6419-.4071-.9492-.6312-.0489.0812-.1027.1928-.1409.272.0763.0558.1556.1077.2309.1615-.33.6918-.6448,1.3485-.9727,2.0393-.08-.05-.1575-.088-.2368-.1379-.044.0822-.0871.1829-.1282.2632.5187.365,1.0559.6821,1.599.99.1566-.1986.3-.3934.46-.59.003-.0107.0108-.02.0157-.0332-.0793-.0744-.1556-.1488-.2368-.22a1.6922,1.6922,0,0,1-.4051.38,1.9846,1.9846,0,0,1-.6224-.38,21.9869,21.9869,0,0,1,.9512-2.0237,1.0517,1.0517,0,0,1,.2974.1663m-2.4934.1752c.1243-.2339.2506-.47.3758-.7046-.0646-.0567-.13-.1145-.2016-.1751-.043.0646-.0841.1252-.13.1908a2.1709,2.1709,0,0,1-.4277-.3141c.1419-.2672.2917-.57.4463-.8709.1487.12.46.3336.5264.4824.0509.1047-.0871.32-.1037.4491.0118.0725.1713.13.231.17.1047-.2231.23-.4785.3307-.7055-.4844-.3748-.958-.7584-1.4307-1.1489-.0518.0822-.0959.1674-.1428.2476.07.0646.136.1262.2094.1889-.366.7094-.6449,1.28-1.01,1.9777-.0724-.0519-.14-.1047-.2143-.1586-.047.0842-.09.1586-.1341.2408a18.1471,18.1471,0,0,0,1.4385,1.1977c.139-.2.2858-.4119.4228-.61a.1383.1383,0,0,0,.0078-.0284c-.07-.0734-.1478-.1468-.2212-.2231-.0469.0714-.272.364-.3248.3679-.1038.0079-.4991-.36-.5774-.4746a5.03,5.03,0,0,1,.4237-.8611,1.9186,1.9186,0,0,1,.3993.3532,1.1493,1.1493,0,0,1-.0979.2506C7.6944,81.0739,7.7629,81.1248,7.8294,81.1815Zm8.4471,2.5208c-.6968-.3885-1.4415-.7-2.1568-1.0383-.1223.2329-.2427.4619-.364.6909.0968.0548.1937.1126.29.1654.0969-.1311.1869-.2564.2818-.3885a1.3959,1.3959,0,0,1,.5216.1693c-.3053.6742-.64,1.4062-.9462,2.0892-.1028-.0411-.2144-.0841-.3181-.1262-.044.0851-.0841.1654-.1213.2476.3748.1654.7486.3288,1.12.4951.04-.0861.0773-.1683.1145-.2514-.1076-.0509-.2133-.1057-.3209-.1566.3082-.6811.6536-1.4121.958-2.0873a1.0074,1.0074,0,0,1,.4335.3063c-.0519.1448-.1037.2828-.1546.4257.0274.0538.2387.1125.3131.1477C16.0455,84.1642,16.16,83.9333,16.2765,83.7023Zm-2.4974-1.1841c-.2984-.1526-.6037-.3053-.9081-.4579-.0391.0841-.0763.1624-.1193.24.1.0626.2055.1184.3121.1762-.3278.6889-.8269,2.2556-1.5383,1.7907-.501-.3288-.3141-.73-.0362-1.3152.1595-.3248.34-.7.4981-1.0235.1086.0469.2074.1027.3141.1516.0372-.0851.0783-.1683.1174-.2475-.3337-.1732-.6683-.36-1.002-.5275-.0421.0832-.0871.1625-.1253.2456.0695.0372.1409.0744.2114.1126a3.017,3.017,0,0,1-.3034.6889c-.34.7094-.6732,1.2594-.3591,1.76a1.3566,1.3566,0,0,0,.9414.5548c.822.0724,1.2027-1.0392,1.6518-2.0022.0724.0333.1517.0676.229.1048C13.7018,82.6807,13.741,82.6024,13.7791,82.5182ZM6.8822,78.4347c.0567.0509.1145.1017.1761.1507.0362-.0871.0812-.1762.1165-.2672-.2359-.226-.4736-.458-.7144-.6869a2.5233,2.5233,0,0,1-.137.2593,3.3478,3.3478,0,0,0,.2545.2446c-.231.2642-1.1029,1.2066-1.1734,1.278,0,.003,0,.0069-.0078.0147-.0323-.0685.3112-2.0217.365-2.2.0832.0881.1595.1781.24.2671.05-.0851.0988-.1712.1468-.2485a10.4017,10.4017,0,0,1-.7173-.97c-.0587.0754-.1175.15-.1772.23.0451.0724.09.1507.1312.2251-.0646.2466-.4433,2.7067-.4668,2.9768.0812.1076.16.2172.2407.3268A22.4085,22.4085,0,0,0,6.8822,78.4347ZM32.326,83.9792l-.0117-.0088c.0195-.4247.0714-.8034.12-1.2251a.1125.1125,0,0,1,.0186-.0186c.1595.3464.2946.6282.4648.9756C32.7282,83.7894,32.5109,83.8922,32.326,83.9792Zm2.2478-.2935c.0146.1106.1.3493.0538.4394a2.5019,2.5019,0,0,1-.79.43c-.136-.2613-.2349-.5636-.365-.8239a3.9035,3.9035,0,0,1,.6576-.2985c.0362.0714.0773.1458.12.2172.0871-.0479.1772-.089.2652-.137-.1174-.2593-.228-.5215-.3425-.7789-.0871.046-.1741.0851-.2583.1262.0254.0842.045.1654.0656.2486a2.8684,2.8684,0,0,1-.6342.3738c-.1653-.3347-.2945-.6517-.4511-.9923a5.05,5.05,0,0,1,.7594-.36,1.2476,1.2476,0,0,1,.274.3464c.0832-.0469.1644-.1037.2515-.1526a4.412,4.412,0,0,0-.3239-.6371c-.5245.2789-1.1743.61-1.6988.8514-.0783.9727-.1732,1.9552-.2564,2.9142-.0783.0411-.1507.0978-.227.14.0391.0842.0743.1683.1086.2515.2965-.12.592-.273.8924-.3944-.0381-.0861-.0733-.17-.1086-.2544-.1047.0362-.1967.0842-.2955.1223.0137-.3141.0245-.7094.0333-1.0275.229-.1047.4961-.23.7231-.3415.1341.2544.2437.5911.3827.8455-.09.0558-.1889.09-.278.1438.0451.0832.0832.1674.1224.2476.5754-.2622,1.2613-.6106,1.8221-.8973-.0676-.2319-.1351-.46-.2036-.6919C34.7714,83.6289,34.6726,83.6573,34.5738,83.6857ZM36.662,80.36c.0646-.05.1292-.0988.1948-.15-.0431-.0832-.0822-.1625-.1282-.2476-.2789.19-.5578.38-.8445.5705.046.0812.0861.1625.1311.2466.093-.0616.1908-.1213.28-.1781.0861.3983.2016,1.5736.2211,1.8485.0118.11.02.2173.0333.3308l.0039.0078c-.0646.0216-.2818-.272-.3425-.3386l-.6987-.7975c-.1057-.12-.228-.2427-.3258-.3679.1086-.0627.2133-.1292.316-.1928-.0332-.0871-.0636-.1742-.0959-.26-.3571.2016-.7133.4-1.0686.6028.0353.0881.07.1722.1018.2583.0763-.0352.1546-.0724.229-.1115.1331.1575.2965.317.4394.4687.3268.3376.6546.6772.98,1.0177.1409.138.2838.2838.4228.4237.1154-.0714.2358-.14.3522-.21-.043-.6742-.088-1.3553-.134-2.0295C36.71,80.9711,36.6953,80.63,36.662,80.36Zm-7.9528,13.9c.0029-.3738.0068-.7456.0068-1.12a1.1545,1.1545,0,0,1,.4521.0314.5944.5944,0,0,1,.2349.88C29.267,94.2317,29.0223,94.265,28.7092,94.2591Zm1.279.8807c-.1174-.2133-.2877-.6713-.5187-.7515a.0632.0632,0,0,0-.0068-.0254.7563.7563,0,0,0,.3229-1.2693,3.33,3.33,0,0,0-1.8309-.2162c-.0049.0841-.0088.1722-.0147.2564V93.14c.091.004.185.0118.276.0167v2.2243c-.091.0058-.1781.0166-.2691.02-.001.0871-.0069.1762-.0069.26v.0108h1.0667c.0019-.091.01-.184.01-.2711-.1038,0-.2085-.0068-.3112-.0147.0039-.2808.0039-.5685.0039-.8533a1.0626,1.0626,0,0,1,.3513.0206c.2681.1115.4218.8885.6419,1.1077a3.3977,3.3977,0,0,0,.7.0108l.0039-.275c-.0871-.0108-.1732-.0166-.2612-.0235C30.0586,95.3326,30.0293,95.2211,29.9882,95.14Zm-6.485-.1154a.5541.5541,0,0,1-.5108.3865c-.1243.02-.319,0-.364-.0646-.04-.045-.0314-.1526-.0284-.2348a4.68,4.68,0,0,1,.0225-.7486C23.102,94.357,23.6334,94.4989,23.5032,95.0244Zm-.8885-1.8906c.3131-.0128.55.01.68.1937a.4438.4438,0,0,1,.0753.3249c-.0607.3552-.3425.4668-.7613.44C22.6107,93.7747,22.6147,93.4557,22.6147,93.1338Zm.7711,1.0431H23.37v-.03c.4893-.1967.7486-.84.1791-1.1567a4.293,4.293,0,0,0-1.7262-.1125V93.14c.091.004.19.004.29.0079v2.2389c-.1.0108-.1987.0147-.29.0245-.0039.0851-.0069.1722-.0078.2613a4.249,4.249,0,0,0,1.8348-.1634.7232.7232,0,0,0,.28-1.01C23.7831,94.2934,23.6334,94.2816,23.3858,94.1769Zm-3.653.0822c.0039-.3738.0039-.7456.0078-1.12a1.13,1.13,0,0,1,.4472.0314.5889.5889,0,0,1,.2349.88C20.2886,94.2317,20.044,94.265,19.7328,94.2591Zm1.277.8807c-.1174-.2133-.2916-.6713-.5177-.7515-.0029-.0108-.0029-.0176-.0058-.0254a.7562.7562,0,0,0,.3209-1.2693c-.3767-.3-1.1625-.228-1.8309-.2162-.0049.0841-.0068.1722-.0146.2564V93.14c.0939.004.1839.0118.2749.0167v2.2243c-.091.0058-.181.0166-.2652.02-.0019.0871-.0039.1762-.01.26v.0108h1.0715c0-.091.001-.184.0049-.2711-.1057,0-.2055-.0068-.3122-.0147.0059-.2808.0069-.5685.0069-.8533a1.1076,1.1076,0,0,1,.3562.0206c.2632.1115.4159.8885.6409,1.1077a3.3385,3.3385,0,0,0,.6938.0108l.0059-.275c-.0871-.0108-.1761-.0166-.26-.0235C21.0793,95.3326,21.0519,95.2211,21.01,95.14Zm-4.32-.5352c.1243-.3866.2574-.77.3836-1.1518.0137.0029.0206.0029.0255.0068l.3767,1.145Zm.6811-1.7664a.9312.9312,0,0,0-.3993.0108c-.318.84-.6321,1.6812-.9492,2.5247a.7153.7153,0,0,1-.2475.0274v.2711h.9834v-.275c-.1047-.0029-.2133-.0068-.32-.0108.0529-.1653.1028-.3317.1546-.4951.3161-.001.6361-.0078.9512-.0127a1.5353,1.5353,0,0,1,.1762.5078c-.0959.0079-.1958.0147-.2926.0147v.2711h1.0735v-.275c-.0822-.0029-.1664-.0068-.2476-.0108Q17.81,94.1123,17.3705,92.8382ZM39.23,81.3087c-.5852.4864-1.2252-.2652-1.3847-.9834a1.12,1.12,0,0,1,.1165-.9424c.0558-.0538.1106-.1076.1673-.1634a.6834.6834,0,0,1,.4022-.1429C39.24,79.105,39.9285,80.72,39.23,81.3087Zm.2349-2.3055a1.0722,1.0722,0,0,0-1.4473-.047c-.095.0813-.1869.1654-.2789.2476a1.6023,1.6023,0,0,0-.3993.9854,1.8167,1.8167,0,0,0,.044.4649,1.9775,1.9775,0,0,0,.2555.61,1.0786,1.0786,0,0,0,1.4561.4492A1.7045,1.7045,0,0,0,39.4647,79.0032ZM26.0837,95.4305c-.7339.1223-1.0246-.82-.8748-1.5139a.9869.9869,0,0,1,.498-.7525c.0734-.02.1449-.0362.22-.0558a.7633.7633,0,0,1,.43.0842C26.9987,93.578,26.9732,95.2827,26.0837,95.4305Zm-.1478-2.606c-.12.0245-.2417.046-.3611.0685a1.3921,1.3921,0,0,0-.773.6518,1.6154,1.6154,0,0,0-.1488.4188,1.808,1.808,0,0,0-.0088.62,1.2524,1.2524,0,0,0,1.1528,1.1283,1.49,1.49,0,0,0,1.4463-2.11A1.2125,1.2125,0,0,0,25.9359,92.8245Z"/><path class="cls-3" d="M3.3075,49.0276l39.4706.0431v4.42c0,19.7818-18.5547,31.41-19.7789,32.1323C21.78,84.9011,3.2634,73.5673,3.2634,53.7855l.0441-4.7579M30.501,65.8992c-3.6119-4.3723-8.7661-2.193-8.816-2.1715a8.5,8.5,0,0,0-2.3456.9179l-.4727.2231c-.0039,0-.636.0773-.636.0773l-1.0853.1371a9.7809,9.7809,0,0,0-2.2438,1.04l-.6615.362c-1.0911.5911-1.3514,1.0745-1.4092,1.2174a.7863.7863,0,0,0-.4315.5167c-.0039.0391-.0059.0783-.0059.1164a.7292.7292,0,0,0,.2094.505.684.684,0,0,0,.7878.5088c.0293,0,.2084-.0421.2084-.0421a.5086.5086,0,0,1,.6821.3572l-.004.0754a.8.8,0,0,1-.361.3053c-.0783.0254-.139.0734-.1165.1507.1556.5509.913.3464,1.2447.3112l.092-.0079.3161-.0508a5.2263,5.2263,0,0,1,1.5853-.0177,2.8418,2.8418,0,0,1,.7828.3494c-.0557.093-.0626.2622-.1585.2985l-.3121.0675c-.4854.0832-1.2781.1017-1.5413.7525a1.6693,1.6693,0,0,0-.0108,1.2829l.1869.2388c.1282.0509.3885-.1586.62-.2946.5235-.3043.43-.4521.4354-.5137a.3238.3238,0,0,1,.183-.27,1.0077,1.0077,0,0,0,.1135.0509,2.1729,2.1729,0,0,0,1.5188.1468c-.0284.1526-.1566.6272-.4208.7652a1.4788,1.4788,0,0,1-.7212.1037.8116.8116,0,0,0-.5265.093,3.909,3.909,0,0,0-.5685.74.1467.1467,0,0,0,0,.1615l.044.0851a.1619.1619,0,0,0,.138.0763l1.4923-.0059.1967.0059a1.9,1.9,0,0,0,1.2428-.2965l.226-.183.7594-.61.732-.642.3493-.2779a.8672.8672,0,0,0,.1722-.3092,12.0212,12.0212,0,0,0,1.3133.7094,2.801,2.801,0,0,0-.9228.1967,2.3556,2.3556,0,0,0-1.04.8641c-.0216.0284-.0049.13-.05.1126-.0206.0411-.0421.045-.0186.088a2.2911,2.2911,0,0,0,.9521.59,1.5872,1.5872,0,0,0,.6752-.091l.4238-.092c.1477-.02,1.9816-.0665,3.2126-.0577l-.6821.6429a30.7,30.7,0,0,0-2.7644,1.9591,5.0969,5.0969,0,0,0-2.0423,3.1666c0,.1194-.1409.2868-.11.3827a.7685.7685,0,0,0,.7261.57c2.3574.2544,3.72-1.2007,4.85-2.422l.29-.3121a13.434,13.434,0,0,0,1.7643-2.5071,4.2269,4.2269,0,0,1,.3895-.6116,7.9635,7.9635,0,0,0,2.7791-5.0328A5.7055,5.7055,0,0,0,30.501,65.8992Zm9.1046-13.8761h-.868l-.8621-.55a.224.224,0,0,0-.1409-.0519H36.618a1.1737,1.1737,0,0,1-.6537-.3141,2.8657,2.8657,0,0,0-1.8475-.6576,2.1791,2.1791,0,0,0-1.8427.7388,2.1454,2.1454,0,0,0-1.83-.7388,2.8629,2.8629,0,0,0-1.8466.6576,1.1754,1.1754,0,0,1-.6507.3141H26.8294a.2228.2228,0,0,0-.1517.0587l-.8514.5432h-.8709a.2272.2272,0,0,0-.2251.226v7.7a.2244.2244,0,0,0,.2251.225h5.9879a1.8943,1.8943,0,0,0,.9384.4551,3.0125,3.0125,0,0,0,.8289-.0039,1.8321,1.8321,0,0,0,.9052-.4512h5.99a.2231.2231,0,0,0,.2221-.225v-7.7A.2259.2259,0,0,0,39.6056,52.0231ZM20.909,52.0025h-.866l-.8524-.549a.2173.2173,0,0,0-.1477-.0616H17.9254a1.1688,1.1688,0,0,1-.6508-.3112,2.8707,2.8707,0,0,0-1.8466-.6566,2.1582,2.1582,0,0,0-1.84.7407,2.1224,2.1224,0,0,0-1.83-.7407,2.8615,2.8615,0,0,0-1.8436.6566,1.1775,1.1775,0,0,1-.6508.3112H8.1445a.24.24,0,0,0-.1565.0646l-.8416.546h-.868a.223.223,0,0,0-.226.22V59.924a.2248.2248,0,0,0,.226.2231H12.26a1.8619,1.8619,0,0,0,.9336.4541,2.7147,2.7147,0,0,0,.8269-.0059,1.8094,1.8094,0,0,0,.9081-.4482h5.98a.2268.2268,0,0,0,.229-.2231V52.2227A.225.225,0,0,0,20.909,52.0025Z"/><path class="cls-3" d="M30.5969,65.817c-3.67-4.432-8.9089-2.2243-8.96-2.2018a8.7416,8.7416,0,0,0-2.3848.9287l-.4834.2289-.638.0793-1.1078.1351a9.9853,9.9853,0,0,0-2.282,1.0519l-.6694.3689c-1.1145.596-1.3729,1.0911-1.4336,1.235a.7756.7756,0,0,0-.4344.5206.58.58,0,0,0-.0128.12.72.72,0,0,0,.2143.5088,1.04,1.04,0,0,0,.8494.7056,2.1531,2.1531,0,0,0,.2134-.05c.2857-.093.4677-.1224.6077.24l-.004.0754a.8367.8367,0,0,1-.3884.27.1574.1574,0,0,0-.0989.1938c.1566.5588.9394.47,1.2761.4325l.092-.0078.3239-.0548a5.3026,5.3026,0,0,1,1.6009-.1292,2.6755,2.6755,0,0,1,.7907.3523.4322.4322,0,0,1-.227.1967l-.3171.0675c-.4912.0832-1.231.21-1.4982.87a1.6977,1.6977,0,0,0-.0117,1.2995l.2319.3024c.1331.0538.4364-.0988.6713-.2349.5294-.3121.5558-.5039.5607-.57a.3117.3117,0,0,1,.1879-.274.9446.9446,0,0,0,.1116.0519c.319.135.9384.4022,1.366.1791a.7023.7023,0,0,1-.38.5078,1.5282,1.5282,0,0,1-.7281.1057.84.84,0,0,0-.5372.0949,5.357,5.357,0,0,0-.6537.91.1718.1718,0,0,0-.003.1644l.0558.0842a.1514.1514,0,0,0,.1351.0773L18.15,74.65l.2.0039a2.035,2.035,0,0,0,1.3015-.2231l.2309-.185.7995-.66.8053-.65.3562-.2779a.6679.6679,0,0,0,.1556-.2877,6.3532,6.3532,0,0,0,.9659.5186,1.9914,1.9914,0,0,0-.7643.1791,1.9453,1.9453,0,0,0-1.0353,1.0089.1585.1585,0,0,0-.01.093.1868.1868,0,0,0,.0029.1321,2.3092,2.3092,0,0,0,.97.5988,1.5838,1.5838,0,0,0,.686-.0929l.4276-.093c.1527-.0205,1.7732-.0107,3.0228-.0029l-.68.49a33.998,33.998,0,0,0-2.7664,2.0345A5.2952,5.2952,0,0,0,20.773,80.56a1.2251,1.2251,0,0,0,.0421.33.8058.8058,0,0,0,.7447.5774c2.3916.2593,3.82-1.281,4.9662-2.5159l.2985-.3142a13.7519,13.7519,0,0,0,1.79-2.5394,5.25,5.25,0,0,1,.3943-.6214,8.0647,8.0647,0,0,0,2.8252-5.1042,5.717,5.717,0,0,0-1.2369-4.5552m-11.921,6.5486c-.26.2622-.8973-.0127-1.17-.1321l-.24-.0754a.5991.5991,0,0,0-.504.551c-.0127.0538-.1057.1311-.227.2162a.7105.7105,0,0,1-.0969-.274c-.0244-.21-.0019-.4824-.0528-.5069-.0763-.0391-.3611.4736-.1908.9864a1.5166,1.5166,0,0,1-.228.0969,1.0685,1.0685,0,0,1-.1566-.5969,1.4779,1.4779,0,0,1,.1135-.5559c.2006-.4961.8073-.5969,1.2535-.67l.3758-.0851a.7493.7493,0,0,0,.3885-.3229,1.6894,1.6894,0,0,1,.3963.3542,4.8522,4.8522,0,0,1,.3641,1.004C18.6935,72.3587,18.6847,72.3558,18.6759,72.3656Zm4.53,2.0315-.4717.1008a1.4755,1.4755,0,0,1-.5333.089.3608.3608,0,0,1-.0567-.0176,1.3608,1.3608,0,0,1,.3885-.4511c.3425-.24.7965-.367.6928-.4159a1.3158,1.3158,0,0,0-.8328.0685,1.3371,1.3371,0,0,0-.6595.592,1.2766,1.2766,0,0,1-.26-.1839,1.6193,1.6193,0,0,1,.8425-.8132c.5128-.2026.6821-.1488.6821-.1488.1947.0411,1.55.2682,1.8436.2682.0059,0,.0137-.01.02-.01.0626.0372.1145.0763.1732.1076a5.0464,5.0464,0,0,0,1.6567.4443,1.7463,1.7463,0,0,1-.1478.3669C25.9291,74.3883,23.4327,74.37,23.2057,74.3971Zm8.31-4.067a7.8531,7.8531,0,0,1-2.6842,4.8841,2.6959,2.6959,0,0,0-.4922.72,13.5047,13.5047,0,0,1-1.7487,2.4836l-.2985.3181c-1.1537,1.2437-2.465,2.6529-4.6981,2.4131a.4882.4882,0,0,1-.47-.3513c-.2006-.6586.53-2.1842,1.8994-3.3144a33.3471,33.3471,0,0,1,2.742-2.0159l.819-.59a1.1149,1.1149,0,0,0,.1644-.2046c.0215-.0117.0274-.0323.0372-.0557a1.9918,1.9918,0,0,0,.2574-.7164.1471.1471,0,0,0-.0353-.1233.1606.1606,0,0,0-.1144-.0587,4.8275,4.8275,0,0,1-1.7155-.42,2.4392,2.4392,0,0,1-1.2085-1.5,2.3087,2.3087,0,0,1,.7-2.3505,2.1192,2.1192,0,0,0,.6879-1.5472.1609.1609,0,0,0-.32.0245.0974.0974,0,0,0,.002.0235.5542.5542,0,0,1,.01.1155,2.1664,2.1664,0,0,1-.6292,1.1821,3.1528,3.1528,0,0,0-.8856,1.917,2.2311,2.2311,0,0,0,.1341.7417,3.2163,3.2163,0,0,0,.6292,1.1088,7.5708,7.5708,0,0,1-2.13-.915.16.16,0,0,0-.0969-.0215,8.4056,8.4056,0,0,0-.0509-2.0032.1564.1564,0,0,0-.1762-.1379.1627.1627,0,0,0-.1418.179,4.6382,4.6382,0,0,1-.0725,2.2987l-.3366.2662-.8171.6615L19.44,74.19c-.1957.1732-.7467.1527-1.0764.1468l-.2134-.0039h-.5333c.0734-.1732.1282-.3454.0646-.3924-.0959-.07-.3817.2192-.5431.3963h-.3171a4.09,4.09,0,0,1,.4785-.6723l.3288-.02a1.8064,1.8064,0,0,0,.8778-.1429,1.03,1.03,0,0,0,.5647-.821,4.476,4.476,0,0,0-.4658-1.508,3.6028,3.6028,0,0,0-1.6626-1.02,5.4456,5.4456,0,0,0-1.7262.1321l-.2642.045-.1263.0137a1.342,1.342,0,0,1-.8269-.11.8005.8005,0,0,0,.3641-.3336l.0117-.3269a.7023.7023,0,0,0-1.006-.4266l-.1145.03a.7947.7947,0,0,1-.5421-.4619l.3034-.1644A.16.16,0,0,0,13.08,68.33a.1569.1569,0,0,0-.2143-.0616l-.3132.1673a.3844.3844,0,0,1-.0372-.2123.4833.4833,0,0,1,.3161-.33.2027.2027,0,0,0,.0881-.0979c.0019-.0088.181-.5,1.3074-1.1067l.6713-.367a9.8271,9.8271,0,0,1,2.189-1.0226l1.7683-.2162.547-.2564a8.5819,8.5819,0,0,1,2.331-.9072c.0822-.0342,5.1022-2.145,8.6163,2.102A5.4143,5.4143,0,0,1,31.5157,70.33Z"/><path class="cls-3" d="M16.85,65.9227a.6365.6365,0,0,0-.5049-.0333c-.3142.1135-.413.46-.2359.5421.1732.0812.27-.0988.3357-.1233a.2252.2252,0,0,1,.1986-.001.1647.1647,0,0,1,.1145.138c.01.0323.0157.2026.1585.231.1429.0332.4492-.506-.0665-.7535"/><path class="cls-3" d="M14.105,68.0325c-.2192.4628.364,1.0529.5558.959.1938-.1-.2612-.4962-.137-.7594.137-.2916,1.1176-.7085,1.1019-.8729-.0166-.1615-1.3152.2427-1.5207.6733"/><path class="cls-3" d="M25.9134,76.6c-.4579-.02-.8856-.0743-.9169.1361-.0294.2094.4394.2661.914.2838.3219.0146.8866-.0607.86-.2437-.0371-.182-.5568-.1664-.8572-.1762"/><path class="cls-3" d="M24.7959,77.6371c-.546-.02-1.0637-.0743-1.1038.1312-.0372.2113.5333.2691,1.1038.2857.39.0176,1.0725-.0577,1.0353-.2407-.0421-.1879-.67-.1634-1.0353-.1762"/><path class="cls-3" d="M23.8222,78.693c-.5128-.02-1.0011-.07-1.0353.1331-.0313.1967.4981.2534,1.0353.272.367.0108,1.0079-.0577.9717-.2368-.0381-.1761-.6292-.1565-.9717-.1683"/><path class="cls-3" d="M22.921,79.8017c-.3817-.0117-.7428-.0636-.77.1116-.0225.1761.37.226.77.2388.271.0107.7486-.049.7192-.2026-.0254-.1556-.4648-.139-.7192-.1478"/><path class="cls-3" d="M14.3966,67.461l.1214-.0431a.2325.2325,0,0,0,.1507-.2926.2292.2292,0,0,0-.2916-.1458l-.1243.04a.2307.2307,0,0,0-.1488.2926.2338.2338,0,0,0,.2926.1488"/><path class="cls-3" d="M21.5284,65.0077a.165.165,0,0,0-.1859-.06l-1.2751.43a.2526.2526,0,0,0-.0949.3317.27.27,0,0,0,.3239.1576l1.1909-.6586a.1475.1475,0,0,0,.0411-.2006"/><path class="cls-3" d="M21.6429,66.3288a.1447.1447,0,0,0,.0734-.1869.1623.1623,0,0,0-.1732-.09l-.9874.1449a.2546.2546,0,0,0-.1516.3141.2678.2678,0,0,0,.2916.2114l.9472-.3934"/><path class="cls-3" d="M21.5862,67.2408l-.776-.0343a.23.23,0,0,0-.1771.2545c.0117.1164.1115.2417.227.23l.7828-.1585a.1516.1516,0,0,0,.1038-.1752.1655.1655,0,0,0-.16-.1164"/><path class="cls-3" d="M21.43,68.3642l-.5773-.1321a.2044.2044,0,0,0-.1918.2026.2331.2331,0,0,0,.1771.2377l.6038-.044c.0645.0039.1213-.0724.1184-.1409a.1476.1476,0,0,0-.13-.1233"/><path class="cls-3" d="M26.7266,64.3227a.2314.2314,0,0,0-.2769.17.2263.2263,0,0,0,.17.2808c.0019,0,.6713.2036,1.1889.4179a.1875.1875,0,0,0,.2515-.0793.1841.1841,0,0,0-.0773-.2525,11.3305,11.3305,0,0,0-1.2565-.5372"/><path class="cls-3" d="M26.985,65.4119a.2046.2046,0,0,0-.2525.1555.2082.2082,0,0,0,.1546.2515,8.6009,8.6009,0,0,1,.8944.2975.175.175,0,0,0,.229-.0714.1646.1646,0,0,0-.0734-.2251,5.564,5.564,0,0,0-.9521-.408"/><path class="cls-3" d="M27.0378,66.4237a.1777.1777,0,0,0-.2084.1262.169.169,0,0,0,.1262.2026c.002,0,.4648.14.62.2055a.1626.1626,0,0,0,.2075-.0636.1484.1484,0,0,0-.0656-.2055,1.7618,1.7618,0,0,0-.68-.2652"/><path class="cls-3" d="M26.983,67.3161a.1788.1788,0,0,0-.1859.1116.1524.1524,0,0,0,.1154.183c.002.0029.275.0616.4052.1018a.1426.1426,0,0,0,.183-.0548.14.14,0,0,0-.0568-.186,1.64,1.64,0,0,0-.4609-.1556"/><path class="cls-3" d="M30.041,66.7163a4.66,4.66,0,0,0-.729-.6185.23.23,0,1,0-.2319.3973,4.5369,4.5369,0,0,1,.6987.4883.1905.1905,0,0,0,.2642-.0019.1855.1855,0,0,0-.002-.2652"/><path class="cls-3" d="M29.1192,67.1674a.2022.2022,0,0,0-.2808.0842.2047.2047,0,0,0,.0841.2808,2.127,2.127,0,0,1,.4942.3132.18.18,0,0,0,.2407-.0118.1675.1675,0,0,0-.0137-.24c-.4325-.3924-.5039-.4208-.5245-.4267"/><path class="cls-3" d="M28.8188,68.0364a.18.18,0,0,0-.23.0616.1707.1707,0,0,0,.06.2319,2.1987,2.1987,0,0,1,.3073.21.1517.1517,0,0,0,.2123,0,.15.15,0,0,0,0-.2134,1.71,1.71,0,0,0-.3493-.29"/><path class="cls-3" d="M28.4724,68.7468a.1787.1787,0,0,0-.2094.0372.1493.1493,0,0,0,.0323.2133.7393.7393,0,0,1,.1624.1155.1449.1449,0,0,0,.1947.0127.134.134,0,0,0,.0157-.19c-.1076-.1223-.1341-.1595-.1957-.1889"/><path class="cls-3" d="M30.6409,68.9279a.1559.1559,0,0,0,.2084.0528.1528.1528,0,0,0,.0519-.2075,1.2447,1.2447,0,0,0-.2035-.3053.1762.1762,0,0,0-.2388,0,.1713.1713,0,0,0,0,.2388,1.4173,1.4173,0,0,1,.182.2212"/><path class="cls-3" d="M30.1986,69.0952a.1807.1807,0,0,0-.2163.0039.1485.1485,0,0,0,.0039.2153c.0568.0558.093.0871.1.0939.0646.0578.1253.0871.186.049a.14.14,0,0,0,.0509-.1879.4178.4178,0,0,0-.1243-.1742"/><path class="cls-3" d="M39.816,51.87h-.8954l-.8837-.5734a.241.241,0,0,0-.1448-.0568H36.7433a1.2215,1.2215,0,0,1-.6674-.321,2.9216,2.9216,0,0,0-1.8955-.683,2.21,2.21,0,0,0-1.8926.7691,2.1741,2.1741,0,0,0-1.8788-.7691,2.9232,2.9232,0,0,0-1.8975.683,1.22,1.22,0,0,1-.6693.321H26.6953a.2225.2225,0,0,0-.1527.0626l-.8719.5676h-.8963a.2307.2307,0,0,0-.229.23v7.9861a.23.23,0,0,0,.229.229h6.1493a1.9007,1.9007,0,0,0,.9619.4736,2.9543,2.9543,0,0,0,.8475-.0059,1.8762,1.8762,0,0,0,.9335-.4677H39.816a.2289.2289,0,0,0,.227-.229V52.1a.23.23,0,0,0-.227-.23m-7.2884-.3973c0,.0274.2466-.7721,1.6528-.7721a2.4709,2.4709,0,0,1,1.6215.5891,1.56,1.56,0,0,0,.9414.4159h.9188v6.4987h-.9355A2.7683,2.7683,0,0,1,35.7,57.89a4.16,4.16,0,0,0-1.6636-.44,2.2758,2.2758,0,0,0-1.5089.6547Zm-5.6.2329h.915a1.5581,1.5581,0,0,0,.9453-.4159,2.46,2.46,0,0,1,1.6215-.5891c1.4042,0,1.6528.8,1.6577.8337,0,0-.0049,5.9674-.0049,6.5692a2.2761,2.2761,0,0,0-1.509-.6547,4.1247,4.1247,0,0,0-1.6616.44,2.8143,2.8143,0,0,1-1.0285.3151h-.9355Zm-.98.5353c.09-.0558.318-.2055.5167-.3337v6.5251a.236.236,0,0,0,.2319.2339h1.1674a3.1662,3.1662,0,0,0,1.2115-.3494,3.6592,3.6592,0,0,1,1.4786-.4051,1.9918,1.9918,0,0,1,1.3387.6684.2233.2233,0,0,0,.17.0822l.228.0039.0029-.0039.003.0039.2319-.0039a.2337.2337,0,0,0,.1722-.0822,1.9762,1.9762,0,0,1,1.3367-.6684,3.681,3.681,0,0,1,1.4787.4051,3.1319,3.1319,0,0,0,1.2114.3494h1.1655a.2339.2339,0,0,0,.2309-.2339V51.9076c.2007.1282.4277.2779.5187.3337V58.87H33.4445a.237.237,0,0,0-.1712.0705,1.5945,1.5945,0,0,1-.8534.4247h-.226a1.5883,1.5883,0,0,1-.8807-.4247.2235.2235,0,0,0-.1664-.0705h-5.2Zm13.6325,7.6113h-6.01a.23.23,0,0,0-.1771.0832,1.3628,1.3628,0,0,1-.7457.39,2.4717,2.4717,0,0,1-.6762.0069,1.41,1.41,0,0,1-.7721-.3993.2421.2421,0,0,0-.1761-.0812H25.0073V52.3342h.4746V59.103a.2332.2332,0,0,0,.2329.2319h5.342a1.9824,1.9824,0,0,0,1.0891.4932l.3308-.0029a2.0536,2.0536,0,0,0,1.0578-.49h5.3372a.2347.2347,0,0,0,.2338-.2319V52.3342h.4737Z"/><path class="cls-3" d="M27.9312,52.8764a3.0257,3.0257,0,0,0,1.0373-.2642l.3777-.1811.7173-.2887A2.6068,2.6068,0,0,1,31.07,52.11a.0992.0992,0,0,1-.0822-.1193.1029.1029,0,0,1,.12-.08,2.68,2.68,0,0,0-1.09.0343l-.7632.3014-.3709.179a2.7483,2.7483,0,0,1-.9629.2447.1018.1018,0,0,0-.1.1047.1056.1056,0,0,0,.1105.1018"/><path class="cls-3" d="M27.9312,54.25a3.0858,3.0858,0,0,0,1.0373-.2633l.3826-.181.7124-.2906a2.499,2.499,0,0,1,1.006-.03.1.1,0,0,0,.1214-.08.1135.1135,0,0,0-.0832-.1223,2.7625,2.7625,0,0,0-1.09.0313l-.7583.3063-.3758.1761a2.8687,2.8687,0,0,1-.9649.25.1005.1005,0,0,0-.0978.1056.1077.1077,0,0,0,.1105.0989"/><path class="cls-3" d="M27.9312,55.6232a2.9974,2.9974,0,0,0,1.0373-.2622l.3777-.1821.7173-.2886a2.5793,2.5793,0,0,1,1.006-.0314.1035.1035,0,0,0,.1214-.0812.1048.1048,0,0,0-.0832-.1184,2.7412,2.7412,0,0,0-1.09.03l-.7632.3062-.3709.1752a2.8088,2.8088,0,0,1-.9629.2486.1.1,0,0,0-.1.1037.1046.1046,0,0,0,.1105.1"/><path class="cls-3" d="M28.9685,56.731l.3826-.18.7124-.2906a2.5879,2.5879,0,0,1,1.006-.0294.1007.1007,0,0,1-.0822-.1223.1071.1071,0,0,1,.12-.0793,2.699,2.699,0,0,0-1.09.0362l-.7583.2985-.3758.181a2.6617,2.6617,0,0,1-.9629.2427.1066.1066,0,0,0-.1.1086.1052.1052,0,0,0,.1105.0989,2.9262,2.9262,0,0,0,1.0373-.2642"/><path class="cls-3" d="M33.4768,52.11a2.6042,2.6042,0,0,1,1.003.0314l.7124.29.3856.1811a3.002,3.002,0,0,0,1.04.2642.105.105,0,0,0,.1057-.1018.1038.1038,0,0,0-.1-.1047,2.7641,2.7641,0,0,1-.9649-.2447l-.3748-.179-.7554-.3014a2.7354,2.7354,0,0,0-1.097-.0343.1038.1038,0,0,0-.0764.1184.0974.0974,0,0,0,.1214.0812"/><path class="cls-3" d="M33.4768,53.485a2.5593,2.5593,0,0,1,1.003.03l.7124.2906.3856.181a2.9838,2.9838,0,0,0,1.0373.2633.1087.1087,0,0,0,.1086-.0989.1028.1028,0,0,0-.1-.1056,2.89,2.89,0,0,1-.9649-.25l-.3748-.1761-.7554-.3063a2.807,2.807,0,0,0-1.097-.0313.1069.1069,0,0,0-.0764.1223.1014.1014,0,0,0,.1214.08"/><path class="cls-3" d="M33.4768,54.8589a2.5639,2.5639,0,0,1,1.003.0314l.7124.2886.3856.1821a2.97,2.97,0,0,0,1.04.2622.1039.1039,0,0,0,.1057-.1.1017.1017,0,0,0-.1-.1037,2.8252,2.8252,0,0,1-.9649-.2486l-.3748-.1752-.7554-.3062a2.7183,2.7183,0,0,0-1.0931-.03.102.102,0,1,0,.0411.2"/><path class="cls-3" d="M35.1922,56.5509l.3856.18a2.9227,2.9227,0,0,0,1.04.2642.1046.1046,0,0,0,.1057-.0989.1088.1088,0,0,0-.1-.1086,2.6684,2.6684,0,0,1-.9649-.2427l-.3748-.181-.7554-.2985a2.763,2.763,0,0,0-1.0931-.0362.1105.1105,0,0,0-.0832.1253.1064.1064,0,0,0,.1243.0763,2.5722,2.5722,0,0,1,1.003.0294l.7124.2906"/><path class="cls-3" d="M9.2856,52.8764a3.0277,3.0277,0,0,0,1.0392-.2642l.3807-.1811.72-.2887a2.5614,2.5614,0,0,1,.9972-.0323.1013.1013,0,0,1-.0793-.1193.1059.1059,0,0,1,.1233-.08,2.6861,2.6861,0,0,0-1.0921.0343l-.7594.3014-.3767.179a2.7352,2.7352,0,0,1-.959.2447.1035.1035,0,0,0-.1018.1047.1061.1061,0,0,0,.1077.1018"/><path class="cls-3" d="M9.2856,54.25a3.0981,3.0981,0,0,0,1.0392-.2633l.3856-.181.7153-.2906a2.4551,2.4551,0,0,1,.9972-.03.1027.1027,0,0,0,.1242-.08.1112.1112,0,0,0-.08-.1223,2.7769,2.7769,0,0,0-1.0921.0313l-.7594.3063-.3767.1761a2.8435,2.8435,0,0,1-.959.25.1025.1025,0,0,0-.1018.1056.1064.1064,0,0,0,.1077.0989"/><path class="cls-3" d="M9.2856,55.6232a2.9856,2.9856,0,0,0,1.0392-.2622l.3807-.183.72-.2877a2.5348,2.5348,0,0,1,.9972-.0314.1039.1039,0,0,0,.1242-.0812.1026.1026,0,0,0-.08-.1184,2.7536,2.7536,0,0,0-1.0921.03l-.7594.3062-.3767.1752a2.7806,2.7806,0,0,1-.959.2486.1014.1014,0,0,0-.1018.1037.105.105,0,0,0,.1077.1"/><path class="cls-3" d="M9.2856,56.9952a2.9377,2.9377,0,0,0,1.0392-.2642l.3856-.18.7153-.2906a2.5427,2.5427,0,0,1,.9972-.0294.1029.1029,0,0,1-.0793-.1223.1121.1121,0,0,1,.1233-.0793,2.7066,2.7066,0,0,0-1.0921.0362l-.7594.2985-.3767.181a2.6316,2.6316,0,0,1-.959.2427.1083.1083,0,0,0-.1018.1086.1057.1057,0,0,0,.1077.0989"/><path class="cls-3" d="M14.9133,51.9908a.0987.0987,0,0,1-.0783.1193,2.5944,2.5944,0,0,1,1.0011.0314l.7173.29.38.1811a3.0212,3.0212,0,0,0,1.04.2642.1.1,0,0,0,.1037-.1018.0973.0973,0,0,0-.0978-.1047,2.78,2.78,0,0,1-.9639-.2447l-.3719-.179-.7584-.3014a2.699,2.699,0,0,0-1.094-.0343.102.102,0,0,1,.1223.08"/><path class="cls-3" d="M14.835,53.485a2.4744,2.4744,0,0,1,1.0011.03l.7173.2906.38.181a2.9751,2.9751,0,0,0,1.04.2633.1.1,0,0,0,.1037-.0989.0965.0965,0,0,0-.0978-.1056,2.8911,2.8911,0,0,1-.9639-.25l-.3719-.1761-.7584-.3063a2.7875,2.7875,0,0,0-1.094-.0313.1113.1113,0,0,0-.08.1223.1024.1024,0,0,0,.1243.08"/><path class="cls-3" d="M15.8361,54.89l.7183.2877.3787.183a2.9654,2.9654,0,0,0,1.04.2622.0986.0986,0,0,0,.1037-.1.0954.0954,0,0,0-.0978-.1037,2.8265,2.8265,0,0,1-.9639-.2486l-.3719-.1752L15.885,54.69a2.765,2.765,0,0,0-1.094-.03.1027.1027,0,0,0-.08.1184.1059.1059,0,0,0,.1243.0812,2.554,2.554,0,0,1,1.0011.0314"/><path class="cls-3" d="M16.5534,56.5509l.38.18a2.91,2.91,0,0,0,1.04.2642.0991.0991,0,0,0,.1037-.0989.1017.1017,0,0,0-.0978-.1086,2.6862,2.6862,0,0,1-.9639-.2427l-.3719-.181-.7584-.2985a2.7185,2.7185,0,0,0-1.094-.0362.1075.1075,0,0,1,.1223.0793.1.1,0,0,1-.0783.1223,2.5624,2.5624,0,0,1,1.0011.0294l.7173.2906"/><path class="cls-3" d="M21.138,51.887h-.8944l-.8729-.5656a.2181.2181,0,0,0-.1527-.0646H18.0721a1.2254,1.2254,0,0,1-.67-.319,2.9105,2.9105,0,0,0-1.8984-.685,2.2063,2.2063,0,0,0-1.8877.77,2.1867,2.1867,0,0,0-1.88-.77,2.8958,2.8958,0,0,0-1.8965.685,1.22,1.22,0,0,1-.6683.319H8.0232a.2394.2394,0,0,0-.1644.0676l-.8641.5626H6.1032a.2325.2325,0,0,0-.2329.231v7.9851a.2323.2323,0,0,0,.2329.23h6.1474a1.8913,1.8913,0,0,0,.958.4716,2.9625,2.9625,0,0,0,.8494-.0068,1.84,1.84,0,0,0,.9326-.4648H21.138a.2311.2311,0,0,0,.2329-.23V52.118a.2313.2313,0,0,0-.2329-.231m-7.2825-.3943c.0019.0244.2485-.7751,1.6479-.7751a2.4812,2.4812,0,0,1,1.6254.5891,1.5783,1.5783,0,0,0,.9433.414h.915v6.4977h-.9316a2.7685,2.7685,0,0,1-1.0314-.3092,4.0824,4.0824,0,0,0-1.6626-.4443,2.265,2.265,0,0,0-1.506.6517Zm-5.6053.228h.9209a1.5624,1.5624,0,0,0,.9384-.414,2.48,2.48,0,0,1,1.6264-.5891c1.4023,0,1.65.8,1.66.8357,0,0-.0059,5.9644-.0059,6.5633a2.2925,2.2925,0,0,0-1.51-.6517,4.0871,4.0871,0,0,0-1.6635.4443,2.76,2.76,0,0,1-1.03.3092H8.25Zm-.9776.5382c.0881-.0568.3161-.2055.5177-.3347v6.5281a.2275.2275,0,0,0,.2329.228H9.1867a3.1113,3.1113,0,0,0,1.2164-.3465,3.6775,3.6775,0,0,1,1.4766-.4051,1.9889,1.9889,0,0,1,1.3338.6664.2236.2236,0,0,0,.1762.0832l.227.002h.0069l.2289-.002a.2278.2278,0,0,0,.1762-.0832,1.9826,1.9826,0,0,1,1.3328-.6664,3.691,3.691,0,0,1,1.4767.4051,3.0877,3.0877,0,0,0,1.2173.3465H19.218a.2275.2275,0,0,0,.2329-.228V51.9242c.1987.1292.4316.2779.5128.3347v6.6278H14.77a.2338.2338,0,0,0-.1673.0705,1.6259,1.6259,0,0,1-.8572.4237h-.227a1.5952,1.5952,0,0,1-.8808-.4237.2354.2354,0,0,0-.1673-.0705H7.2726ZM20.9071,59.87H14.8957a.2308.2308,0,0,0-.1771.0822,1.3948,1.3948,0,0,1-.7447.3914,2.5917,2.5917,0,0,1-.6811.0059,1.4055,1.4055,0,0,1-.7721-.4.2338.2338,0,0,0-.1752-.0793H6.3322V52.3509h.4786v6.7658a.2305.2305,0,0,0,.228.2329H12.38a2.0307,2.0307,0,0,0,1.096.4971l.3239-.0078a2.0092,2.0092,0,0,0,1.0608-.4893h5.3371a.2334.2334,0,0,0,.2329-.2329V52.3509h.4766Z"/><path class="cls-3" d="M22.9464,44.4352c-2.9357,0-6.06.7056-6.06,2.012,0,.6.6576,1.0734,1.646,1.4081.1076.0392.4041.1165.4286.0656a3.0533,3.0533,0,0,0-.364-.1791c-.9-.411-1.2458-.9218-1.2458-1.2946,0-.731,2.3907-1.5491,5.5955-1.5491s5.5984.8181,5.5984,1.5491c0,.37-.321.8777-1.1978,1.2848a2.3835,2.3835,0,0,0-.3571.1762c-.0323.0518.3855-.0588.3855-.0588.9864-.3346,1.6313-.8053,1.6313-1.4022,0-1.3064-3.1207-2.012-6.06-2.012"/><path class="cls-3" d="M29.9011,42.1757a7.0083,7.0083,0,0,0-.9179,1.6557.11.11,0,0,1-.0088.0274l-.0255-.0137a6.7059,6.7059,0,0,0-.958-.4423,15.05,15.05,0,0,0-4.9985-.7525h-.0186a15.0363,15.0363,0,0,0-4.9956.7525,6.27,6.27,0,0,0-.9551.4423.2262.2262,0,0,0-.0293.0137.1194.1194,0,0,1-.0079-.0274,7.0886,7.0886,0,0,0-.92-1.6557c-.0773-.0979-.185,0-.1351.092a6.4083,6.4083,0,0,1,.642,1.8837c.0235.14.046.2417.16.2916a.2375.2375,0,0,0,.2231-.0166,5.89,5.89,0,0,1,1.186-.593,14.61,14.61,0,0,1,4.8312-.72h.0186a14.643,14.643,0,0,1,4.8351.72,6.19,6.19,0,0,1,1.189.593.2231.2231,0,0,0,.2162.0166c.1184-.05.138-.1516.1644-.2916a6.1317,6.1317,0,0,1,.641-1.8837c.0479-.092-.0558-.19-.137-.092"/><path class="cls-3" d="M23.3946,43.7659a.413.413,0,1,0-.41.4139.4118.4118,0,0,0,.41-.4139"/><path class="cls-3" d="M20.4814,44a.414.414,0,0,0-.8279,0,.414.414,0,0,0,.8279,0"/><path class="cls-3" d="M17.5075,45.2709a.4124.4124,0,1,0-.5578-.1615.4113.4113,0,0,0,.5578.1615"/><path class="cls-3" d="M18.8746,44.3325a.2168.2168,0,1,0-.2173.2153.2137.2137,0,0,0,.2173-.2153"/><path class="cls-3" d="M21.7349,43.8393a.2163.2163,0,1,0-.2192.2143.2188.2188,0,0,0,.2192-.2143"/><path class="cls-3" d="M26.3009,44a.4125.4125,0,0,0-.8249,0,.4125.4125,0,1,0,.8249,0"/><path class="cls-3" d="M28.8452,44.5487a.4121.4121,0,1,0,.1615.5607.4114.4114,0,0,0-.1615-.5607"/><path class="cls-3" d="M27.5173,44.3325a.2156.2156,0,0,0-.22-.2143.2148.2148,0,0,0,0,.43.2158.2158,0,0,0,.22-.2153"/><path class="cls-3" d="M24.654,43.8393a.2143.2143,0,1,0-.2172.2143.2147.2147,0,0,0,.2172-.2143"/><path class="cls-3" d="M22.9738,38.7331a.4164.4164,0,1,0,0,.8328.4164.4164,0,0,0,0-.8328"/><path class="cls-3" d="M22.9738,37.5617a.4174.4174,0,1,0,0,.8348.4174.4174,0,0,0,0-.8348"/><path class="cls-3" d="M22.9738,36.3884a.4184.4184,0,1,0,0,.8367.4184.4184,0,0,0,0-.8367"/><path class="cls-3" d="M20.95,37.3328a.4189.4189,0,0,0,0-.8377.4189.4189,0,1,0,0,.8377"/><path class="cls-3" d="M19.5752,36.8836a.4193.4193,0,1,0,0-.8386.4193.4193,0,0,0,0,.8386"/><path class="cls-3" d="M18.1592,36.5734a.4208.4208,0,0,0,0-.8416.4208.4208,0,0,0,0,.8416"/><path class="cls-3" d="M16.7178,36.7691a.4174.4174,0,1,0-.4169-.4159.4176.4176,0,0,0,.4169.4159"/><path class="cls-3" d="M15.47,37.55a.4174.4174,0,1,0-.4149-.4179.4164.4164,0,0,0,.4149.4179"/><path class="cls-3" d="M14.7489,38.82a.4174.4174,0,1,0-.42-.4179.4172.4172,0,0,0,.42.4179"/><path class="cls-3" d="M15.1805,39.8741a.4189.4189,0,1,0-.42.4188.4176.4176,0,0,0,.42-.4188"/><path class="cls-3" d="M15.2822,40.8165a.4188.4188,0,0,0,0,.8376.4188.4188,0,1,0,0-.8376"/><path class="cls-3" d="M27.7972,46.83c0-1.0168-3.1716-1.2849-4.8508-1.2849-1.6753,0-4.85.2681-4.85,1.2849s3.1745,1.2848,4.85,1.2848c1.6792,0,4.8508-.2681,4.8508-1.2848m-4.8508.82c-2.8936,0-4.385-.5734-4.385-.82,0-.2437,1.4914-.82,4.385-.82,2.8975,0,4.3889.5764,4.3889.82C27.3353,47.0764,25.8439,47.65,22.9464,47.65Z"/><path class="cls-3" d="M22.31,35.5087h.4414v.4629a.2319.2319,0,0,0,.4638,0v-.4629h.4384a.2331.2331,0,0,0,.2339-.23.2358.2358,0,0,0-.2339-.2368h-.4384v-.4247a.2319.2319,0,1,0-.4638,0v.4247H22.31a.2354.2354,0,0,0-.2319.2368.2326.2326,0,0,0,.2319.23"/><path class="cls-3" d="M16.8382,42.3518l.0078.0108.0137.0274v-.0108a1.1187,1.1187,0,0,0,1.3935.5353,1.2429,1.2429,0,0,0,.8924-.5685.6452.6452,0,0,0-.0362-.76c-.0616-.0734-.2339-.1693-.3112-.1282a.1767.1767,0,0,0-.0293.2505.3076.3076,0,0,1-.138.4492.2272.2272,0,0,1-.2936-.0519c-.0078-.0244.2437-.19.02-.3767-.17-.1321-.6136-.5695-.0068-.8543.4775-.2231.8445.4208.8865.5089.047.09.1028.0528.0832-.0363-.0949-.4618-.4844-.6057-.5871-1.12a.9315.9315,0,0,1,.3366-.8191.2112.2112,0,0,1,.2143-.03.934.934,0,0,1,.6048.6194c.1027.5089-.2055.7966-.1135,1.2575.0225.09.0851.1047.0929.0039.0039-.1028.0949-.8347.6214-.8142.6762.0313.43.6038.321.7936-.1341.2574.1526.3063.1654.3249.0185.0509-.0881.19-.2525.1732a.31.31,0,0,1-.3-.362.1708.1708,0,0,0-.1214-.2183c-.091-.0058-.2123.1468-.2339.2359a.6554.6554,0,0,0,.2535.7222,1.5627,1.5627,0,0,0,1.142.2153c.9453-.1,1.002-.6723,1.002-.6723-.1947.0841-.6262.2387-.6262.2387a.3062.3062,0,0,1-.0529.0069.1427.1427,0,0,1-.1409-.1458v-.9052a.1439.1439,0,0,1,.1409-.1458.3261.3261,0,0,1,.0577.01l.6449.2583-.183-.5186a.1975.1975,0,0,1-.0117-.0577.1464.1464,0,0,1,.1478-.1478l.5431.0019.54-.0019a.1541.1541,0,0,1,.1361.2055l-.183.5186.6478-.2583a.2965.2965,0,0,1,.0587-.01.1462.1462,0,0,1,.1429.1458v.9052a.145.145,0,0,1-.1429.1458.2521.2521,0,0,1-.0519-.0069s-.4345-.1546-.6341-.2387c0,0,.0636.5724,1.004.6723a1.5582,1.5582,0,0,0,1.142-.2153.6463.6463,0,0,0,.2564-.7222c-.0205-.0891-.1438-.2417-.2319-.2359a.1685.1685,0,0,0-.1233.2183.3123.3123,0,0,1-.3053.362c-.1586.0167-.2691-.1223-.2437-.1732.0059-.0186.2926-.0675.1615-.3249-.1087-.19-.3513-.7623.3209-.7936.5226-.0205.6126.7114.6234.8142.0059.1008.07.0861.089-.0039.0891-.4609-.2143-.7486-.11-1.2575a.9209.9209,0,0,1,.6067-.6194.2067.2067,0,0,1,.2114.03.9347.9347,0,0,1,.3327.8191c-.0959.5147-.4893.6586-.5822,1.12-.0215.0891.0342.1263.0773.0363.047-.0881.4149-.732.8915-.5089.6047.2848.1624.7222-.0079.8543-.227.1869.0284.3523.0157.3767a.2226.2226,0,0,1-.2906.0519.3028.3028,0,0,1-.137-.4492.1743.1743,0,0,0-.03-.2505c-.08-.0411-.2515.0548-.3072.1282a.6347.6347,0,0,0-.0372.76c.2006.3934.5509.4619.8915.5685a1.1191,1.1191,0,0,0,1.3944-.5353V42.39l.0127-.0274.002-.0068a6.4283,6.4283,0,0,0,1.4718-3.288A2.3676,2.3676,0,0,0,28.0105,36.85a5.4742,5.4742,0,0,0-1.8495.4374,4.3451,4.3451,0,0,1-1.8926.3875V36.3757a.23.23,0,1,0-.46,0V39.79H22.1616V36.3757a.232.232,0,1,0-.4639,0v1.2995a4.3435,4.3435,0,0,1-1.8915-.3875,5.4636,5.4636,0,0,0-1.8486-.4374,2.3723,2.3723,0,0,0-2.59,2.2175,6.4171,6.4171,0,0,0,1.4708,3.284m9.4843-4.6257a4.9285,4.9285,0,0,1,1.688-.4119,1.9222,1.9222,0,0,1,2.1245,1.7536,3.0033,3.0033,0,0,1-.2212,1.0255,1.8217,1.8217,0,0,0-.3219-.6938,2.1828,2.1828,0,0,0-1.8671-.7447,2.8593,2.8593,0,0,0-1.9092-.7026,1.8037,1.8037,0,0,0-.1938.0127C25.8567,37.8915,26.0915,37.8074,26.3225,37.7261Zm-2.0541.4238a2.976,2.976,0,0,0,.4277,0,2.5373,2.5373,0,0,0-.4277.2377Zm.02.8484a1.9239,1.9239,0,0,1,1.5178-.5842,2.2863,2.2863,0,0,1,1.6479.6155.23.23,0,0,0,.1928.089,1.8026,1.8026,0,0,1,1.5755.5627,1.5942,1.5942,0,0,1,.2378,1.3221v.0215c-.0754.1262-.1488.2446-.2192.3542A1.7028,1.7028,0,0,0,28.23,39.7136s-.1624-.0744-.2172.002c-.1155.1644.9942.9384.7114,1.918a1.159,1.159,0,0,1-.733.8611.6789.6789,0,0,1-.0851-.0068.5218.5218,0,0,0,.1889-.3915.5953.5953,0,0,0-.0147-.13c-.0039-.0078-.0127-.0176-.0127-.0274a1.0374,1.0374,0,0,0,.3239-.6987c0-.0274-.002-.0538-.004-.0852a.8743.8743,0,0,0-.5714-.6967.8641.8641,0,0,0-.15-.0568c.0059-.0283.0157-.0518.0245-.0831a1.143,1.143,0,0,0,.0225-.22,1.4928,1.4928,0,0,0-.6243-1.1352.4805.4805,0,0,0-.3826-.0763,1.4917,1.4917,0,0,0-1.0774,1.0148.7717.7717,0,0,1-.0118.091,1.3913,1.3913,0,0,0-.1614-.01.9419.9419,0,0,0-.6665.2584c0-.1106-.1193-.2055-.319-.16a3.0282,3.0282,0,0,1,.5676-.5784c.3122-.2427.6772-.3816.6742-.4394-.0029-.0528-.137-.1008-.2886-.0871a1.4139,1.4139,0,0,0-.4717.1263,2.43,2.43,0,0,0-.6831.5059V39.011C24.2753,39.0071,24.2841,39.0071,24.288,38.9983Zm-3.1089,1.2428a.9439.9439,0,0,0-.6693-.2584,1.3789,1.3789,0,0,0-.1576.01c-.0078-.0313-.0039-.0607-.0127-.091a1.4948,1.4948,0,0,0-1.0745-1.0148.4819.4819,0,0,0-.3846.0763,1.5024,1.5024,0,0,0-.6253,1.1352,1.2279,1.2279,0,0,0,.0225.22c.0088.0313.0157.0548.0255.0831a.7546.7546,0,0,0-.1517.0568.8782.8782,0,0,0-.5725.6967c0,.0314-.0019.0578-.0019.0852a1.0349,1.0349,0,0,0,.3258.6987.1764.1764,0,0,1-.0146.0274.4586.4586,0,0,0-.0167.13.53.53,0,0,0,.19.3915.7117.7117,0,0,1-.0881.0068,1.1564,1.1564,0,0,1-.7251-.8611c-.2916-.98.8239-1.7536.7055-1.918-.0509-.0764-.2192-.002-.2192-.002a1.7055,1.7055,0,0,0-1.005,1.6655c-.07-.11-.1467-.228-.2221-.3513v-.0244a1.6293,1.6293,0,0,1,.2358-1.3221,1.8135,1.8135,0,0,1,1.5775-.5627.226.226,0,0,0,.1918-.089,2.3,2.3,0,0,1,1.6479-.6155,1.9166,1.9166,0,0,1,1.52.5842c.0039.0088.0137.0088.0176.0127v.5979a2.4043,2.4043,0,0,0-.681-.5059,1.4151,1.4151,0,0,0-.47-.1263c-.1546-.0137-.29.0343-.2925.0871-.002.0578.363.1967.6742.4394a2.9566,2.9566,0,0,1,.57.5784C21.2985,40.0356,21.1791,40.1305,21.1791,40.2411Zm.5186-2.0912v.2377a2.3208,2.3208,0,0,0-.4266-.2377A2.9623,2.9623,0,0,0,21.6977,38.15Zm-3.74-.8357a4.9453,4.9453,0,0,1,1.6891.4119c.2358.0813.4658.1654.7016.2388a1.8918,1.8918,0,0,0-.1967-.0127,2.8425,2.8425,0,0,0-1.9053.7026,2.177,2.177,0,0,0-1.869.7447,1.85,1.85,0,0,0-.322.6938,2.9366,2.9366,0,0,1-.2212-1.0255A1.9213,1.9213,0,0,1,17.9576,37.3142Z"/><path class="cls-3" d="M25.021,37.3328a.4189.4189,0,0,0,0-.8377.4189.4189,0,0,0,0,.8377"/><path class="cls-3" d="M26.3929,36.8836a.4193.4193,0,0,0,0-.8386.4193.4193,0,0,0,0,.8386"/><path class="cls-3" d="M27.8118,36.5734a.4208.4208,0,0,0,0-.8416.4208.4208,0,0,0,0,.8416"/><path class="cls-3" d="M29.25,36.7691a.4174.4174,0,1,0-.4178-.4159.4142.4142,0,0,0,.4178.4159"/><path class="cls-3" d="M30.4941,37.55a.4174.4174,0,1,0-.4149-.4179.4159.4159,0,0,0,.4149.4179"/><path class="cls-3" d="M31.2192,38.82a.4174.4174,0,1,0-.4208-.4179.4193.4193,0,0,0,.4208.4179"/><path class="cls-3" d="M31.2026,39.4553a.4188.4188,0,1,0,.4237.4188.42.42,0,0,0-.4237-.4188"/><path class="cls-3" d="M30.6888,40.8165a.4188.4188,0,1,0,.4169.4168.4195.4195,0,0,0-.4169-.4168"/><g class="cls-2"><path class="cls-3" d="M36.5338,16.2025a.7373.7373,0,0,0,.0568-.2339.7891.7891,0,0,0-.2446-.5548c-.4795-.4962-1.2575-.01-1.647.2348a.7632.7632,0,0,0-.2133-.365.4777.4777,0,0,0,.0323-.22c-.0323-.3024-.3317-.4305-.4942-.502l-.0313-.01c.36.03.9159.03,1.0657-.4883l.0244-.2926c-.0538-.0323.3611.0372.3611.0372.5206.1145,1.3035.2858,1.5873-.2662a.5156.5156,0,0,0,.0548-.226.9613.9613,0,0,0-.1948-.4932s-.0215-.0372-.045-.07c.228-.1154.8328-.4237.8328-1.0372a1.2054,1.2054,0,0,0-.1194-.49c-.2779-.6185-.9042-.4355-1.2467-.3386,0,0-.0568.0127-.1145.0284v-.0372a1.5357,1.5357,0,0,0,.0127-.2016.6343.6343,0,0,0-.1448-.4354.7328.7328,0,0,0-.3288-.2173.95.95,0,0,0,.2466-.6165A1.0117,1.0117,0,0,0,35.9,9.0168a.7153.7153,0,0,0-.4-.41A1.698,1.698,0,0,0,34.2763,8.8,1.0018,1.0018,0,0,0,34.2,8.6313a.7286.7286,0,0,0,.0508-.26,1.2573,1.2573,0,0,0-.1017-.4766,1.37,1.37,0,0,0,.6165-.7554.8743.8743,0,0,0,.0117-.1292.6926.6926,0,0,0-.1673-.4443,1.1774,1.1774,0,0,0-1.3915-.2035l-.0411.0137a.8275.8275,0,0,0-.5794-.4844c-.408-.1-.8151.2613-1.1136.5235,0,0-.0783.0626-.135.1106-.0245-.0225-.0489-.0431-.0489-.0431l-.45-.2945c-.4081-.0832-.8562.5725-.9619.7525l-.0176.002a.7943.7943,0,0,0-.2378-.2545.6182.6182,0,0,0,.0557-.0538,1.3847,1.3847,0,0,0,.57-.8915V5.7181a.8353.8353,0,0,0-.2662-.5793,1.0131,1.0131,0,0,0-.7437-.3435,1.6267,1.6267,0,0,0-1.0725.6566s-.0225.0255-.0343.0362a1.3184,1.3184,0,0,0-.1037-.2378.9336.9336,0,0,0,.0372-.2573.9033.9033,0,0,0-.0548-.3014.469.469,0,0,0-.1214-.1615A1.3727,1.3727,0,0,0,28.5037,3.6a.5654.5654,0,0,0-.0783-.2975.9428.9428,0,0,0-.728-.5392.0423.0423,0,0,1,.0058-.0166,3.3867,3.3867,0,0,0,.0216-.3562.8.8,0,0,0-.5911-.8876c-.6087-.1517-1.004.38-1.2173.6605,0,0-.03.0372-.06.0705a.8537.8537,0,0,0-.6987-.2946.9441.9441,0,0,0-.6958-.4442c-.58-.0744-.8014.6174-.9453,1.0754,0,0-.0568.1537-.0842.2261-.0381-.0059-.0792-.0147-.0792-.0147a.7932.7932,0,0,0-.6547.0352.6063.6063,0,0,0-.319.5607,2.6237,2.6237,0,0,0,.3787,1.08s.0323.0695.0695.1419a.9358.9358,0,0,0-.6077.3219.8194.8194,0,0,0-.1213.2916c-.0343-.0391-.0666-.0743-.1-.11.0715-.3953.2506-1.6322-.0332-1.9786a.4286.4286,0,0,0-.3367-.1683c-.0508-.0049-.0939.0342-.1419.0518-.0078-.4589-.1007-1.093-.5783-1.2428a.6094.6094,0,0,0-.6772.1126c-.2867-.366-.8386-1.0236-1.4629-.732a.6474.6474,0,0,0-.3787.64,2.6855,2.6855,0,0,0,.2339.9286.4752.4752,0,0,0,.0176.048.6791.6791,0,0,0-.6792.6772.3139.3139,0,0,0,.0059.0411,1.0674,1.0674,0,0,0-1.3377-.0539.7807.7807,0,0,0-.3493.6841,2.3627,2.3627,0,0,0,.3571,1.0764.7969.7969,0,0,0-.5362.639.6347.6347,0,0,0-.0088.12c0,.73.7965.9609,1.2388,1.0881,0,0,.0382.0137.0764.0284a.0222.0222,0,0,1-.0118.0088.703.703,0,0,1-.3689.1987,1.0419,1.0419,0,0,0-.1556-.1057c-.3709-.2368-1.14-.732-1.7869-.0352a.7017.7017,0,0,0-.2113.4892,1.493,1.493,0,0,0,.4433.8651s.135.1654.1419.1742c-.02,0-.0754.1409-.0754.1409l-.1458.4746a.794.794,0,0,0,.0157.1194c-.0108.01-.0607.0411-.1057.07-.0079-.0919-.0225-.22-.0225-.22-.03-.4247-.0666-1.0031-.5275-1.15a.5432.5432,0,0,0-.593.2222.1036.1036,0,0,1-.0078-.0352c-.0705-.458-.1909-1.2233-.7692-1.234-.3131-.0118-.4765.2965-.592.5206l-.0411.0665a.19.19,0,0,0-.0431-.05c-.1781-.2221-.5147-.6361-.9756-.4374a.85.85,0,0,0-.4971.8592,2.9581,2.9581,0,0,0,.0743.593s.0079.06.02.1155a.3815.3815,0,0,0-.06.03.9187.9187,0,0,0-.5372.4756.54.54,0,0,0-.04.2094c0,.4746.5715.8308,1.0118,1.0539a1.5882,1.5882,0,0,0-.2887.2417,1.0417,1.0417,0,0,0-.8552-.089.6246.6246,0,0,0-.3983.6478c0,.0372.0049.0616.0059.0949a.8017.8017,0,0,0-1.0412.4355,1.1258,1.1258,0,0,0-.1194.4814.7971.7971,0,0,0,.0978.3934,1.543,1.543,0,0,0,.9316.6517.7768.7768,0,0,0-.1546.3259l.1615.501c.3092.3631.7535.18,1.0813.048.3728-.1527.5089-.183.6008-.0666a1.155,1.155,0,0,1-.226.3406.5347.5347,0,0,0-.2417-.0127.6056.6056,0,0,0-.4971.4442c-.28-.2378-.73-.62-1.21-.5157a.556.556,0,0,0-.4648.6028,1.83,1.83,0,0,0,.0313.2965v.0157c-.0225-.0049-.0548-.0137-.0548-.0137a1.2459,1.2459,0,0,0-.9532.05.7382.7382,0,0,0-.3063.5128,1.0964,1.0964,0,0,0-.0166.18c0,.6459.6772.8543,1.0285.9492a.8323.8323,0,0,0-.184.4678A.5707.5707,0,0,0,8.69,17.9a1.032,1.032,0,0,0,1.3817-.046l.0323-.02a1.7626,1.7626,0,0,0,.046.2651s.0118.0891.0186.1439c-.0469.0186-.1047.0352-.1047.0352a1.03,1.03,0,0,0-.686.4286.6492.6492,0,0,0-.0655.2789.9041.9041,0,0,0,.0548.2907c.2162.6223.8641.59,1.1733.5734h.0929a.4224.4224,0,0,1,.0079.0489.9145.9145,0,0,0,.271.6351c.5676.5157,1.3387-.1233,1.6675-.3943l.0059-.0059c.0656.05.1331.0988.1879.14a.9286.9286,0,0,0,.184.322v.0039l-.0588.0568a1.5757,1.5757,0,0,0-.6106,1.0333.8848.8848,0,0,0,.17.502c.2838.4179.911.1175,1.4111-.1282,0,0,.2994-.1262.34-.1458l-.0019.0059a.2182.2182,0,0,0,.0117.0587.5834.5834,0,0,0,.7858.4844,1.4568,1.4568,0,0,0,1.09-1.1185,2.0156,2.0156,0,0,1,.1449-.3122c.0538.0656.2681.3044.2681.3044l.3171-.0538a3.3457,3.3457,0,0,0,.84-1.6059,4.982,4.982,0,0,1,1.8485,2.0266,16.4828,16.4828,0,0,0,.9052,1.5286c.29.4609.6341,1.0138.7006,1.1654a3.405,3.405,0,0,1-1.6567,2.6647l-.364.184a17.243,17.243,0,0,0-2.6314,1.5138,1.782,1.782,0,0,0-.1957-.01,1.5954,1.5954,0,0,0-.9228.2368,2.3074,2.3074,0,0,0-1-.2642,1.5355,1.5355,0,0,0-1.5011.79,1.7278,1.7278,0,0,0,.0381,1.6372,1.6989,1.6989,0,0,0,1.4845.7212,1.49,1.49,0,0,0,.8749-.2329,1.94,1.94,0,0,0,.8963.2084,1.8048,1.8048,0,0,0,.9512-.2221,1.6654,1.6654,0,0,0,.8357.2466,1.354,1.354,0,0,0,.8161-.229,1.8629,1.8629,0,0,0,1.7145-.0088,1.7242,1.7242,0,0,0,.8445.2378,1.3427,1.3427,0,0,0,.8122-.229,1.8715,1.8715,0,0,0,1.71-.0039,1.6961,1.6961,0,0,0,.84.2329,1.3474,1.3474,0,0,0,.8122-.229,1.8624,1.8624,0,0,0,1.71-.0068,1.688,1.688,0,0,0,.8416.2358,1.3261,1.3261,0,0,0,.81-.229,1.7083,1.7083,0,0,0,.83.2045,1.6092,1.6092,0,0,0,.9394-.2456,2.4085,2.4085,0,0,0,1.02.27,1.5683,1.5683,0,0,0,1.5178-.821,1.6776,1.6776,0,0,0-.0646-1.6147,1.7077,1.7077,0,0,0-1.4747-.7124,1.4678,1.4678,0,0,0-.8759.2339,1.9463,1.9463,0,0,0-.6507-.1928c-.2672-.5353-.6762-.7114-2.0883-1.3034l-.1937-.0793a3.6058,3.6058,0,0,1-2.1225-1.7262l-.0392-.0656a6.0823,6.0823,0,0,1,.3063-4.7333,3.96,3.96,0,0,1,1.7927-1.5276,3.0492,3.0492,0,0,0,.4414,1.3172l.3728.1957s.1077-.0567.2026-.1106c.03.0715.0626.141.0626.141.185.4521.4384,1.0725.9326,1.1361a.61.61,0,0,0,.6683-.2574,1.313,1.313,0,0,0,.9.5108.8259.8259,0,0,0,.643-.3532.9154.9154,0,0,0,1.1361-.2457.6643.6643,0,0,0,.1272-.38.8555.8555,0,0,0-.3963-.6165l-.0216-.0177a.6056.6056,0,0,0,.2095-.3933.7625.7625,0,0,0,.4158-.1077.5947.5947,0,0,0,.2672-.4746.0524.0524,0,0,1,.03,0c.2271.0254.6948.0812.8837-.3611a.9451.9451,0,0,0,.0714-.2828.6178.6178,0,0,0,.3474-.3963,1.35,1.35,0,0,0,1.0324.1742.8338.8338,0,0,0,.3963-.7506,1.3068,1.3068,0,0,0,1.01-.0851.8614.8614,0,0,0,.3249-.595.9717.9717,0,0,0,.0166-.1624c0-.7917-.9022-.9581-1.2751-1.0148m-2.144-.7662a.2338.2338,0,0,1-.19.1624A1.2063,1.2063,0,0,0,34.39,15.4363Zm-.3308-.321c0-.0039-.1458.1213-.1458.1213l-.2064.1772-.0842.1918c-.0822.2818-.2711.8454-1.3211,1.04-.0176-.03-.0381-.0636-.0616-.0979a2.0854,2.0854,0,0,1-.366-.8817,3.118,3.118,0,0,1,.0646-1.1674c.8445-.09,1.4336.0225,1.66.3259a2.288,2.288,0,0,0,.2417.1644A.6233.6233,0,0,1,34.059,15.1153Zm-4.9055.0342.14.3347.0646.091a1.3545,1.3545,0,0,1-1.1.0127l-.4179-.0293a.4453.4453,0,0,0-.2211.3728l-.0255.1184a3.5618,3.5618,0,0,1-1.2506-.3082,2.3026,2.3026,0,0,1,.5568-.58.0192.0192,0,0,0,.0147-.0137,6.0635,6.0635,0,0,1,.7672-.3288c.5637-.1859,1.3172-.5245,1.2614-.6576-.0519-.1351-.8308.0274-1.4023.2172-.456.15-1.141.41-1.4493.5314.1732-.5343.48-1.1821.7193-1.2193a.32.32,0,0,0,.29.1947l.4218-.3024c.5617-.54.76-.6145.8239-.5842l.0617.0754.2212.22c.1653.0714.3092-.0274.4961-.1527.1076-.0675.3611-.2378.4423-.2035a.231.231,0,0,1,.1605.1732l.1937.2466.4649-.0059c.1908-.0391.6311-.1341.683-.0039.1292.3161-.0127.4306-.3552.6038-.17.0851-.3425.1712-.3425.366l.0812.2994.04.1889a.2605.2605,0,0,1-.2133.1624.2246.2246,0,0,0-.1194.0166,2.6385,2.6385,0,0,1-.4785-.0332l-.43.03c-.0724.0069-.092-.03-.1292.03C29.08,15.0791,29.1251,15.0791,29.1535,15.15Zm-3.1207,2.9543c-.2114.2271-.411.4678-.5832.685,0-.0714.0059-.133.0117-.2045A5.4631,5.4631,0,0,1,25.69,17a6.1063,6.1063,0,0,1,.412-.8738,2.5657,2.5657,0,0,0,.5734.225c-.0137.1439-.07.1762-.2025.2368l-.4169.3024A1.085,1.085,0,0,0,26.0328,18.1038ZM25.0376,14.11c.0421-.22.0988-.45.1713-.6977.1223-.4071.94-1.82.74-1.8945-.1918-.0744-.9737,1.3044-1.11,1.7614-.0411.14-.0822.272-.12.4032a2.8034,2.8034,0,0,1-.3386-1.1068.5113.5113,0,0,1,.1067-.3494.2094.2094,0,0,1,.179-.0782l.1791-.0372a.2107.2107,0,0,0,.1331-.2016.7776.7776,0,0,0-.0822-.2867,2.6142,2.6142,0,0,1-.2417-.8993.6245.6245,0,0,1,.05-.2662.49.49,0,0,1,.2975-.2476.5654.5654,0,0,0,.0832.0538c.1624.1087.2945.1155.3953.0108l.0949-.2867c.0333-.2182.1282-.8886.412-.8886l.1194.0441a.3127.3127,0,0,0,.3083.0381l.1184-.092c.4726-.4188.6037-.3845.6125-.3777.08.0441.1018.3269.1136.4609.0166.2183.0254.3895.1741.4805l.3318.0734.1663.0225c.1752.41-.1556.7525-.51,1.0265-.092.0715-.2026.1586-.1624.3151,0-.0049.1947.2046.1947.2046l.14.0939c.0529.21-.5636.546-.7642.6547l-.3386.2877c-.0578.0508-.0959.0332-.0852.1086.0089.0783.05.0489.1194.0851l.2691.1351.095.0205C26.9987,13.1787,25.6355,13.8764,25.0376,14.11Zm.8054.1409a6.2845,6.2845,0,0,0-.2907.8983c-.1.049-.2006.0969-.2867.138,0,0-.0714.0333-.135.0636v-.04a4.0786,4.0786,0,0,0-.0861-.7153A7.68,7.68,0,0,0,25.843,14.2512Zm-1.2888-.2182a.1928.1928,0,0,1,.0489-.048.0671.0671,0,0,1,.03-.0137c-.0108.0382-.02.0715-.0284.1087A.25.25,0,0,0,24.5542,14.033Zm.2544.6439h.002c-.0088.0293-.0127.044-.0216.044C24.7979,14.7043,24.8018,14.6877,24.8086,14.6769Zm-.4677-.7183a1.1708,1.1708,0,0,0-.3122.0206h-.0069a2.422,2.422,0,0,0-.5294-1.32c-.3-.25-.67-.0127-.8777.1262-.1909-.3992-.595-.9658-1.0344-1.0735a.7972.7972,0,0,0-.0714-.0685.7021.7021,0,0,1-.3386-.63c.02-.14.1693-.21.3141-.2632.2358-.1106.2231-.2965.2016-.5461-.0411-.5509-.0137-.911.2877-.98.3836-.0861.7075.2946,1.003.6977l.3376.3288c.21.0617.3523-.1086.4541-.228.136-.1653.1673-.1751.2065-.1565a.6512.6512,0,0,1,.2935.4423,1.178,1.178,0,0,0-.0773.4159,2.7451,2.7451,0,0,0,.2457.9942.6673.6673,0,0,0-.3.2035.9657.9657,0,0,0-.22.6508A3.28,3.28,0,0,0,24.3409,13.9586Zm-.6019,2.8506a4.89,4.89,0,0,1,.1087,1.0334c0,.1154-.001.2172-.0079.3053a8.7712,8.7712,0,0,1-.3053,1.3837c-.0313-.0568-.7486-1.2536-.7486-1.2536a3.341,3.341,0,0,1-.4756-1.5774.1506.1506,0,0,0,.0245.01,1.8583,1.8583,0,0,0,1.29.1154Zm.278-1.0275a1.7866,1.7866,0,0,1-.3063-.3122,3.2764,3.2764,0,0,0-.5784-.56c-.5323-.3924-1.2437-.7936-1.3093-.6674s.5676.5549,1.0177.9531a2.9919,2.9919,0,0,1,.6429.8641.58.58,0,0,1,.0353.0754c.0362.07.0577.1516.0871.225l-.0568.0118a1.4642,1.4642,0,0,1-1.0432-.0881l-.1878-.1155a1.8,1.8,0,0,0,.0234-.3258c0-.0685.03-.093-.0234-.138-.0519-.044-.0666-.0157-.1351,0l-.43.091c-.2251.0979-.6038.2642-.8171.1693a.3284.3284,0,0,1-.1634-.2133c-.1233-.3455-.0108-.4541.0988-.5588a.3731.3731,0,0,0,.1507-.3366c-.0323-.2065-.2417-.2437-.4775-.2838-.4374-.0783-.6909-.1634-.6909-.3729,0-.1252.184-.319.3063-.409a.2514.2514,0,0,0,.0969-.1487.2368.2368,0,0,0-.0421-.1752c-.0176-.0225-.3826-.5382-.0274-.8.3357-.2515.5421-.0577.593.0069a.24.24,0,0,0,.2535.0694.2346.2346,0,0,0,.16-.2153c0-.0137.0068-.3219.227-.3728.1977-.047.6987.5392.85.9933a.2979.2979,0,0,0,.1614.1673c.1449.05.2652-.0323.4149-.1311.0725-.048.2858-.1908.3435-.1723a2.3529,2.3529,0,0,1,.3846,1.1391.4065.4065,0,0,0,.1067.2358.4962.4962,0,0,0,.4276.049l.2006-.0186A9.6023,9.6023,0,0,1,24.017,15.7817Zm-3.701.04c0,.0078-.0078.0157-.0078.0206l-.0059.1565c-.0294.2936-.455.6351-.6527.7663a.981.981,0,0,0-.2828-.187,9.4085,9.4085,0,0,1-.276-1.1811c-.17-1.0559-.2192-1.4385-.3513-1.3944s-.2025.38-.0763,1.3964a5.1983,5.1983,0,0,0,.1057.637.5534.5534,0,0,0-.1057-.088l-.3494-.04c-.0244.0059-.0362.0294-.0626.0411a2.1024,2.1024,0,0,0-.5167-1.1058.2455.2455,0,0,0-.0205-.0929.5519.5519,0,0,1-.0108-.28,4.4754,4.4754,0,0,0,.3024-.36c.0342-.1605-.0783-.2672-.2006-.3953-.2182-.2085-.4032-.42-.3317-.6381.01-.0323.0332-.0509.137-.088l.2006-.1087c.1125-.0978.1047-.2338.0939-.4227-.0254-.412-.0166-.8318.3728-.9972h.1057a1.5393,1.5393,0,0,1,.505.7584.23.23,0,0,0,.07.1028.3345.3345,0,0,0,.3748-.002c.2075-.09.3709-.1341.5343.0166a.7983.7983,0,0,0-.2994.6273,1.25,1.25,0,0,0,.1683.5842.9611.9611,0,0,0-.3474.6517c0,.6165.6488.7487,1.03.8181a.7628.7628,0,0,0-.1624.4746A1.1287,1.1287,0,0,0,20.316,15.8218Zm-.2554,1.6293a.49.49,0,0,0,.05.0157c.4629.136,1.4219.4129,1.7389,2.2194a9.834,9.834,0,0,1,.1811,1.6743,2.2,2.2,0,0,1-.0372.458,4.1775,4.1775,0,0,1-1.75-2.9426c0-.0205.0068-.1761.0068-.2319A3.5081,3.5081,0,0,0,20.0606,17.4511ZM17.2335,14.68a.6586.6586,0,0,0-.2319.23,1.2122,1.2122,0,0,0-.8083-.7281c-.2818-.0636-.4188.186-.5079.3631a1.3376,1.3376,0,0,0-.9786-.3063.609.609,0,0,0-.2064.0959,1.4844,1.4844,0,0,0-.9013-.0881c-.0088-.0646-.02-.1223-.0274-.1663-.0049-.0167-.2446-.2721-.2446-.2721-.2427-.1556-.4345-.3014-.37-.5578.045-.1937.2084-.2681.4266-.319h.002a.2374.2374,0,0,0,.1879-.0421l.3933-.179.08-.2046c.0381-.1507.0695-.2152.1272-.2387a1.8055,1.8055,0,0,0,.6547.7182.9021.9021,0,0,0,.55.7271,2.4307,2.4307,0,0,0,1.7389-.1164,2.0866,2.0866,0,0,0,.36.4521l.0069.01c-.02.0205-.1624.1555-.1624.1555a.6237.6237,0,0,0-.094.3719C17.2286,14.6172,17.2315,14.6466,17.2335,14.68Zm-4.5973,1.2487-.0744-.2486a.4282.4282,0,0,0-.0411-.088c-.0626-.1312-.1086-.2476-.0342-.368.0812-.1233.2152-.13.3708-.13l.1742-.0206c.0039-.0019.1537-.1008.1537-.1008a1.042,1.042,0,0,1,1.002-.26.869.869,0,0,0-.0832.3347.93.93,0,0,0,.2926.6351L13.54,17.1135a1.8062,1.8062,0,0,1-.7036-.6458Zm2.7684-3.4808c-.1674.1713-.2506.182-.2643.182l-.0186-.0107A1.5358,1.5358,0,0,1,14.4,11.248v-.0215l-.0607-.2926a.5193.5193,0,0,1-.0235-.0773c.0108.0322.1047.0166.1047.0166l.2163-.01.19-.0372a2.5321,2.5321,0,0,1,1.4366.0578A3.9007,3.9007,0,0,1,15.4046,12.4477Zm3.86-.5333h.0039c.0578.0254.0323.092.0578.1556C19.32,12.0465,19.2963,11.9868,19.265,11.9144ZM18.7063,7.84a.8205.8205,0,0,1-.0147-.3347c.091-.0371.2759.1194.3513.187.0264.0264.0323.05.0675.0548l.2564.0665a1.2871,1.2871,0,0,1,1.185.8132,5.9651,5.9651,0,0,0-1.07.457,7.03,7.03,0,0,0-.77.502,1.2056,1.2056,0,0,1-.0577-1.3113l.0724-.1683Zm.0371,2.4748c-.0039-.0068-.0058-.0137-.0107-.0166Zm6.3294-3.0756c.01-.0049.15-.0832.15-.0832.0988-.0646.2466-.1575.3493-.1253.1292.04.1507.1145.185.2408l.0352.1213a2.0146,2.0146,0,0,1,.2025,1.234.1438.1438,0,0,0-.0283-.0235,7.1869,7.1869,0,0,0-1.9317-.458A1.7424,1.7424,0,0,1,25.0728,7.2388ZM23.77,7.6566l-.01.0069-.0362-.0441A.2489.2489,0,0,0,23.77,7.6566Zm4.5757,1.9679a1.2792,1.2792,0,0,0,.5461-.6126.6269.6269,0,0,0-.0754-.5754c.12-.0567.2173-.1144.322-.1741a1.7909,1.7909,0,0,1,.3112.4521,1.7024,1.7024,0,0,0,.2348.227c.18.0509.3582-.0558.5666-.1762.3435-.1976.6028-.3248.8328-.1458.2006.1576.22.2936.2133.366a1.8981,1.8981,0,0,0-.6507.7731,2.0143,2.0143,0,0,0-1.2624.2613,1.36,1.36,0,0,0-1.18.6811,1.5521,1.5521,0,0,0-.186.546c-.0391-.0411-.1243-.136-.2065-.22A1.4389,1.4389,0,0,0,28.42,9.9876,1.0473,1.0473,0,0,0,28.3461,9.6245Zm3.0434.734-.0607.2123.0059.13c.0059.0577.0069.1321.0069.22a1.4149,1.4149,0,0,1-.5275,1.1391,2.0892,2.0892,0,0,1-1.0216-.7124l-.1683-.3826a1.6727,1.6727,0,0,1-.0656-.52,1.6308,1.6308,0,0,1,1.3573-.1732c.0372.0089.0372.0255.0763.0186l.3122-.0645s.1516-.047.1575-.047C31.4375,10.1794,31.39,10.3585,31.39,10.3585Zm-2.2879-.0715c0-.0205.002-.0391.0039-.0606-.0019.0234-.0019.04-.0019.0606Zm-.504.6645a.0253.0253,0,0,1,.004-.0137.8933.8933,0,0,1,.33-.322Zm.1351,1.44a.8337.8337,0,0,1-.0744-.0832,1.32,1.32,0,0,1-.1742-.547Zm-1.3837.2173a.4225.4225,0,0,0-.1644-.2378,1.855,1.855,0,0,0,.8132-.7065,1.9183,1.9183,0,0,0,.2652.88,2.3242,2.3242,0,0,0-1.0637.7016.2606.2606,0,0,1-.0372.0333.269.269,0,0,0,.044-.05.8678.8678,0,0,0,.1566-.4766A.6235.6235,0,0,0,27.349,12.6092Zm3.4876,1.7086c.0137.05.0274.0675.0274.0782A.647.647,0,0,1,30.8366,14.3178Zm.0372.1066s-.0069-.0176-.01-.0284a.4407.4407,0,0,1,.0568-.0293l.0068-.0049-.0509.1027A.2922.2922,0,0,0,30.8738,14.4244Zm4.8635-3.5982.0254.3777c.1165.2907.4433.1977.6811.1273.4071-.1184.595-.1312.6938.0851.2075.454-.0127.6742-.5.9218l-.2662.2173a.55.55,0,0,0,.13.5186c.0518.0773.14.2133.1174.2574-.12.2338-.6919.1086-1.0764.0225-.3562-.0773-.594-.1292-.7516-.004a.4709.4709,0,0,0-.1712.458l-.004.1272c-.0528.1781-.3082.183-.6986.1409-.1821-.0185-.3523-.0332-.4424.1a3.1585,3.1585,0,0,0-1.4991-.1458.5742.5742,0,0,0-.0568-.0871.8783.8783,0,0,0-.3826-.1537.7029.7029,0,0,0,.0479-.2358,1.0628,1.0628,0,0,0-.0127-.1214c.6146.0343,1.8887.0744,2.2008-.67a.5509.5509,0,0,0,.047-.2172.8556.8556,0,0,0-.1458-.4306c.638.0039,1.6322-.0333,1.6841-.6811.0029-.03.0029-.0606.0029-.0871a.7426.7426,0,0,0-.4119-.6948c.06-.0411.1174-.08.1722-.1164s.1155-.0812.1791-.1233c.2867.0254.3845.0949.4119.1292C35.7627,10.5894,35.7549,10.6892,35.7373,10.8262ZM34.4211,9.2439c.1977-.09.6635-.3053.9081-.2055a.2416.2416,0,0,1,.14.1536c.13.3161-.0265.5323-.3288.7594a.2171.2171,0,0,0-.091.07c-.0578.0431-.1224.0822-.186.1263a1.2,1.2,0,0,0-.52.4951c-.0362.0949-.0714.1253.0127.1869l.2222.1605c.1986.0685.3366.137.3151.4051-.0049.0989-.1948.2662-1.3534.2525-.2857-.0019-.42-.0049-.4883.1576-.05.137.0225.24.11.3591.0695.0959.2241.319.184.4159-.2006.4726-1.4209.4081-1.8221.3856l-.1683.0078a.6277.6277,0,0,0-.3132-.138.865.865,0,0,0,.091-.4443A1.9657,1.9657,0,0,0,31.54,11.91h.002c.042-.0352.2025-.1311.3542-.2251.6889-.42,1.3906-1.2036,1.2555-1.2682-.1184-.0607-.93.5089-1.369.7926a2.3539,2.3539,0,0,0,.0137-.545.4137.4137,0,0,1,.0245-.1409.6017.6017,0,0,0-.0519-.686.5279.5279,0,0,0-.6048-.0548c.1224-.1859.2848-.3885.4423-.4306.16-.0382.2662.0313.4218.1527l.2975.1712c.22.0636.3738-.1243.5509-.3425.2682-.3268.5187-.595.8318-.5382.0842.0176.1214.0861.1713.2437.0352.1037.0841.2593.2563.2828ZM33.1343,6.39a.2009.2009,0,0,0-.048.0107C33.1245,6.3913,33.1323,6.3845,33.1343,6.39Zm-1.8133.1585c-.01.0068-.0362.03-.0362.03C31.3151,6.5538,31.3171,6.5489,31.321,6.5489ZM29.96,7.3728l.1233-.0107.2016-.1967a1.6513,1.6513,0,0,1,.501-.5187,1.9263,1.9263,0,0,0,.186.16l.3571.22.4609-.2642c.183-.1634.5255-.4638.7-.4218a.3782.3782,0,0,1,.2848.2584l.22.2466.3718-.046c.3425-.1145.6713-.2006.8846.0617a.196.196,0,0,1,.0607.1859c-.0411.2133-.3963.4628-.5617.549a.2375.2375,0,0,0-.1.316,1.1869,1.1869,0,0,1,.1311.4228c-.6037-.0979-1.0187.4031-1.2613.7055,0,0-.0822.093-.1341.1458-.0372-.0244-.0763-.0489-.0763-.0489a1.0185,1.0185,0,0,0-.5529-.2564.8714.8714,0,0,0-.2682-.5147c.094-.0685.2046-.1429.3347-.2212.4071-.2436.8523-.5392.7809-.6233-.07-.0881-.5881.1047-1.02.2955a2.5188,2.5188,0,0,0-.49.2926,1.3871,1.3871,0,0,0-1.0765.2574s-.1164.06-.1859.0939a2.2831,2.2831,0,0,0-.3043-.46A.9978.9978,0,0,0,29.96,7.3728Zm-.4129-.6018s.0244-.0235.0411-.0421l.0048.0088S29.58,6.7377,29.5469,6.771Zm-1.4542-.71.4247-.2936c.184-.2016.4658-.503.7369-.51a.5817.5817,0,0,1,.408.2084.3575.3575,0,0,1,.13.2632c-.0069.1958-.2515.413-.413.56l-.2759.3992a.4311.4311,0,0,0,.2338.3514c.1126.0792.1723.1233.1635.2906-.0079.1057-.1361.27-.4238.46a.2074.2074,0,0,0-.0822.0538,3.8239,3.8239,0,0,1-.5372.2711.3309.3309,0,0,0-.1752.1869.3189.3189,0,0,0,.0871.2906c.0764.0989.1184.1664.0813.275a.9836.9836,0,0,1-.4531.4237c-.0656-.0137-.1351-.0234-.2006-.03a.4918.4918,0,0,1-.0646-.0049c-.0078-.0528-.0147-.1174-.0147-.1174-.0205-.2838-.0479-.6713-.3552-.8367a.5544.5544,0,0,0-.43-.0205c.0969-.1263.2045-.2574.3259-.3954.36-.4051.7642-.7985.6879-.8934-.1086-.1331-.6194.2172-1.0422.6292a4.4432,4.4432,0,0,0-.4315.5,2.2762,2.2762,0,0,0-.2457-.8914.5563.5563,0,0,1-.0254-.0744.8891.8891,0,0,0-.1654-.3474.3419.3419,0,0,1,.3963-.09l.138.0235c.1938,0,.2545-.1644.3337-.3964.0989-.2671.276-.776.5754-.8885L27.6,5.44c.047.0225.0939.1556.1213.2387C27.7756,5.83,27.8549,6.0606,28.0927,6.0606ZM25.54,2.571l.28.183c.1986.0421.3219-.12.4658-.3132.2329-.3082.4482-.5577.7339-.4883.2564.0607.2721.3054.2231.7369-.0235.182-.0381.321.0773.4218l.2368.0851a.5611.5611,0,0,1,.4639.3288c.1194.2163-.366.6459-.6537.8289a.2308.2308,0,0,0-.0979.2524.2362.2362,0,0,0,.2134.1713c.0606.0088.08.0283.0929.0528a.3527.3527,0,0,1,.0323.1928l-.29.0019c-.5.1879-.7183.8015-.8465,1.1655,0,0-.0117.0343-.0235.0617a.7878.7878,0,0,0-.499.0421,2.0969,2.0969,0,0,0,.227-.7829.5864.5864,0,0,0-.0343-.2016.5605.5605,0,0,0-.4619-.3493,1.756,1.756,0,0,0,.4355-1.07A1.2962,1.2962,0,0,0,25.88,3.15a.4488.4488,0,0,0-.5422-.1742,1.76,1.76,0,0,0,.0264-.2035,2.3784,2.3784,0,0,0-.0332-.3582A.7033.7033,0,0,1,25.54,2.571Zm-.2427.6488c.002.0078.0079.0107.0079.0176a.4819.4819,0,0,1-.0343.1507A1.4613,1.4613,0,0,0,25.2969,3.22Zm-2.7,1.9718a.6577.6577,0,0,1,.504-.183.3153.3153,0,0,0,.2251-.1341c.0949-.16.0029-.3288-.16-.6341-.1693-.3307-.4619-.8875-.2329-1.0206.0773-.047.1634-.0264.2994.0107l.4521-.0107c.1341-.0773.182-.24.273-.5118.0862-.2711.2457-.778.4453-.7515a.4785.4785,0,0,1,.3709.2387,1.4207,1.4207,0,0,1,.0646,1.0265.2641.2641,0,0,0,.06.2829.3039.3039,0,0,0,.367-.01c.047-.0235.184-.1.229-.09.3513.53.0421,1.0324-.3063,1.4561-.1067.1292-.2006.2388-.1292.3876a.3518.3518,0,0,0,.3553.1516c.1771,0,.271.0128.2945.0822A2.4838,2.4838,0,0,1,25.24,6.6193a1.6558,1.6558,0,0,0-.2652.1468,3.07,3.07,0,0,0-.88.5245,12.0372,12.0372,0,0,0,.323-1.6547c.0685-.6244.08-1.1176-.1038-1.1019a4.6608,4.6608,0,0,0-.2994,1.21c-.138.6185-.3122,1.2731-.3611,1.4493-.05-.0039-.1-.0049-.1507-.0049,0,0-.1233-.01-.2133-.0206V7.1625A2.2158,2.2158,0,0,0,23.556,6.22a1.025,1.025,0,0,0-.4883-.8934.4492.4492,0,0,0-.5206-.0089A.33.33,0,0,1,22.597,5.1916Zm-.64.5852.2926.2671c.1634.0372.2769-.0822.3728-.1849l.182-.1546c.4208.2887.3366.6948.07,1.2614l-.0979.3385c.0646.3357.456.3445.7153.3494l.2652.0205a1.6061,1.6061,0,0,0-.2162.5011.8128.8128,0,0,0-.458.2681,1.0186,1.0186,0,0,0-.2035.66,1.307,1.307,0,0,0-.6146-.3278c-.05-.1429-.1145-.363-.1742-.6175-.1291-.5656-.2681-1.2349-.4227-1.1948-.0969.0225-.0822.6556,0,1.22a5.7109,5.7109,0,0,0,.1262.6165.7852.7852,0,0,0-.33.2055A1.0411,1.0411,0,0,0,21.277,8.67a.4322.4322,0,0,0-.2555-.1379,2.88,2.88,0,0,0-.224-.3944.3331.3331,0,0,0,.1389-.2036c.0215-.1252-.0411-.2-.1918-.3777-.3718-.4306-.5343-.7065-.4814-.8191.0548-.1184.0812-.1105.2182-.091a.4009.4009,0,0,0,.3787-.0812c.11-.1086.0969-.2613.0685-.5176-.0372-.3973-.0607-.8318.1751-.8925C21.4237,5.0712,21.7711,5.5282,21.9571,5.7768Zm-1.4816.4912c0-.0039.0059-.0039.0059-.0068,0,.0274.0049.0665.0049.0665A.4024.4024,0,0,0,20.4755,6.268Zm-1.8-3.41c.01.0284.0235.0705.0235.0705A.4458.4458,0,0,1,18.6759,2.8577Zm-.2407.5157c.0235-.1155.0851-.14.3219-.1624a.4251.4251,0,0,0,.3621-.15c.0881-.1312.0392-.2613-.0636-.5157-.1164-.3014-.3376-.8661-.0881-.98.3161-.15.7584.41.9424.6488l.24.23c.08.0313.2329.0508.3553-.1732.0469-.0813.0685-.1224.2681-.0607.227.07.2828.7349.2348,1.185a.2281.2281,0,0,0,.137.24.2237.2237,0,0,0,.2633-.0607.5542.5542,0,0,1,.2172-.1566,4.3233,4.3233,0,0,1-.04,1.371.7956.7956,0,0,0-.5979-.0812.6042.6042,0,0,0-.33.2133.7438.7438,0,0,0-.6165-.0509c-.0264-.5029-.1106-1.3925-.8044-1.4962a.6711.6711,0,0,0-.6595.4022A.4882.4882,0,0,1,18.4352,3.3734ZM16.56,5.8776c.02-.1556.1566-.2251.3386-.2965.1106-.0489.228-.093.2662-.2261l-.1057-.3591c-.2583-.4658-.4765-.9717-.1634-1.1909.411-.29.7535-.0558,1.2134.4452.1566.1732.2545.2779.4032.2662.1869-.0127.276-.1771.3728-.3542.0715-.1273.19-.3416.2828-.3288.3778.0548.4071.8885.414,1.2007.0117.2182.0137.3493.1683.4139a.299.299,0,0,0,.2985-.0724.34.34,0,0,1,.42-.03,1.8453,1.8453,0,0,0-.0265.31,4.3105,4.3105,0,0,0,.0284.4393s.0049.047.0049.092a.5682.5682,0,0,0-.637.3591.5536.5536,0,0,0-.049.2261,1.33,1.33,0,0,0,.3347.75A1.79,1.79,0,0,0,19.677,7.38a4.1438,4.1438,0,0,0-.3875-.8856c-.1791-.3044-.7467-.94-.89-.777-.1488.16.2789.6742.43.913a3.7377,3.7377,0,0,1,.272.5255.6636.6636,0,0,0-.6038-.0695c-.3366.1507-.2984.5333-.2583.778-.5754-.0871-.6694-.1654-.6694-.2075,0-.0606.0656-.1213.1644-.2123l.275-.4325c.0108-.2564-.2446-.3347-.548-.4208C16.9429,6.44,16.5172,6.2847,16.56,5.8776ZM15.428,7.4443c.35-.3807.7506-.1732,1.1949.1125l.4012.1781a.6035.6035,0,0,0,.092-.0078c.0548.3914.5264.5186,1.0118.5891a1.7751,1.7751,0,0,0,.227,1.5745l-.0048.0039a.4636.4636,0,0,0-.0989.43,1.3919,1.3919,0,0,0,.8328.8347,2.1484,2.1484,0,0,0,1.4492.0852l.09.0205.0469-.0685c.0147-.0078.0323-.0107.047-.0186a1.0922,1.0922,0,0,0,.3239.6674.7908.7908,0,0,0-.2309.32.8068.8068,0,0,0-.5138-.047.8208.8208,0,0,0-1.0519-.2476,1.66,1.66,0,0,0-.6733-.8337l-.4785-.0039a.9611.9611,0,0,0-.1938.1086,1.3479,1.3479,0,0,0-.8318-.7789.5656.5656,0,0,0-.0939-.0118.8261.8261,0,0,0,0-.4061c-.0675-.2622-.3591-.2808-.6175-.2975-.4893-.0274-.6507-.089-.6507-.3728l.092-.2544.1184-.4169-.2427-.42C15.3615,7.823,15.2539,7.6322,15.428,7.4443ZM15.16,9.5511s-.0059-.0362-.0059-.0469C15.16,9.5032,15.154,9.5081,15.16,9.5511ZM11.0108,9.376c.0284-.0812.1888-.1556.3014-.2143l.2642-.1654c.1027-.1184.0773-.2681.0293-.49-.1027-.5069-.1086-.8239.15-.9335.1242-.0509.2407.0538.4393.3033l.3523.2926c.26.0685.3983-.1928.4981-.3865a.9389.9389,0,0,1,.183-.277c.18.0069.2721.597.31.8436.047.3131.0773.502.2613.5627.2388.0714.4032-.1224.4981-.2378.0793-.0979.13-.1419.1575-.138.1625.0518.19.4814.2055.7368.02.2848.0323.49.18.6048a.4886.4886,0,0,0,.6136-.047,1.3748,1.3748,0,0,0,.8738.2819s.1409.0146.2065.0234l.002.0167a.7192.7192,0,0,1-.0725.2955,2.9222,2.9222,0,0,0-1.7457-.0724l-.1351.0313-.1663.0049-.47.1781a.23.23,0,0,0-.0265.047,4.4634,4.4634,0,0,1-.7672-.7212c-.3728-.4649-.548-1.0177-.6869-.9659-.2789.1077.08.85.275,1.13a4.6153,4.6153,0,0,0,1.188,1.1165l.0058.0235a2.61,2.61,0,0,0,.0773.6116.7306.7306,0,0,0-.4139.5529.2911.2911,0,0,0-.0108.0313c-.0479.01-.1037.0206-.1037.0206a.1463.1463,0,0,1-.0313.0058,1.6,1.6,0,0,1-.1321-.4159.9078.9078,0,0,0-.2486-.545c-.1947-.15-.4579-.0548-.7065.04,0,0-.228.0714-.2623.0812-.0616-.0558-.1428-.1027-.1428-.1458,0-.0127.01-.0235.0264-.0381-.1135-.15-.322-.4091-.322-.4091a.0786.0786,0,0,1-.02-.0205,1.1487,1.1487,0,0,1,.4276-.2545.28.28,0,0,0,.2535-.1761c.0489-.1957-.1048-.2652-.29-.3523C11.0979,9.77,10.9628,9.5149,11.0108,9.376Zm-.2153,4.4114c-.3288.1331-.4785.1742-.5568.0831l-.0529-.15c.0147-.1321.185-.2808.2408-.3219a.239.239,0,0,0,.09-.2476.2344.2344,0,0,0-.1918-.1732c-.2084-.0333-.8024-.19-.9688-.5059a.4942.4942,0,0,1,.0323-.4541c.1253-.2691.3112-.2691.6439-.1683l.3259.0059c.1585-.09.14-.2633.1233-.4022-.0274-.2613-.0088-.3513.0831-.3826a.8571.8571,0,0,1,.7849.2769l.3474.4482.1428.19c.185.1585.44.0636.6909-.03,0,0,.2769-.0812.2926-.0852-.0029,0-.0088.0059-.0088.0206a1.4054,1.4054,0,0,0,.0509.2378,2.1508,2.1508,0,0,0,.137.4433.7956.7956,0,0,0-.4932.57.7333.7333,0,0,0-.0313.2065,1.066,1.066,0,0,0,.6008.8494s.0245.0186.0479.0342a.5273.5273,0,0,1,.0177.13.1662.1662,0,0,1-.0128.0773,2.1783,2.1783,0,0,0-.2387.17.9243.9243,0,0,0-.7966.3669.0183.0183,0,0,1-.01.02,1.972,1.972,0,0,0-.317-.2916c.1771-.227.3689-.5686.17-.8338C11.6194,13.4517,11.139,13.6455,10.7955,13.7874ZM10.15,17.3141,9.812,17.47c-.3.2036-.5382.3327-.8132.0852-.0792-.0734-.1057-.1126.0861-.3572.0862-.1125.2271-.2906.0871-.4717l-.3376-.1615c-.5078-.135-.7907-.2779-.7339-.6116.03-.1575.091-.1947.1106-.2064.1292-.0861.3963-.0294.5969.0127l.4717.0088c.2114-.1116.1673-.3621.137-.5392-.0548-.3415-.0157-.3523.0744-.3709.2632-.0558.6174.2456.8278.43.1791.1527.2858.2476.4345.2182.1869-.0391.231-.2221.2574-.3268.044-.1761.0714-.2309.1712-.2476.1713-.0284.5539.3053.8553.7486.0088.0069.0166.0108.0264.0186.0147.0362.0323.0754.04.0969.0206.044.0822.2437.0822.2437l.139.3806a3.46,3.46,0,0,0-.6322-.1634c-.4755-.0744-1.9082-.002-1.915.1938-.003.1761,1.2731.179,1.6733.2368q.1484.0175.2907.0469a.6494.6494,0,0,0-.21.5588c0,.0656,0,.1311.0039.1908,0,0,0,.0646-.001.1224-.02-.0108-.0519-.0323-.0519-.0323a1.091,1.091,0,0,0-1.1273-.2329A.63.63,0,0,0,10.15,17.3141Zm.5138,2.5355h0Zm2.2712-.2945a1.4345,1.4345,0,0,0-.1086.2094l-.0636-.0411c-.0685-.047-.091-.1331-.1614-.0979l-.3132.1566c-.2192.1791-.7917.6537-1.0657.4061a.4722.4722,0,0,1-.12-.3386l-.1331-.3689-.4521-.091c-.4149.0186-.6263-.0157-.71-.2662a.2794.2794,0,0,1-.0157-.2035c.0519-.0959.2505-.1517.3963-.1938l.3973-.2123.0167-.5187-.0353-.2573c.1605-.0959.38.0332.6527.22.2075.1409.4218.2848.6214.139.182-.136.17-.3865.1615-.6341a1.0676,1.0676,0,0,1,.0147-.3611.7261.7261,0,0,1,.7261.0088c.0137.0049.0215.0029.0332.0068a2.5018,2.5018,0,0,0,.5461.4.8037.8037,0,0,0,.2583.8024,1.2283,1.2283,0,0,0,.4051.2486.4792.4792,0,0,0-.224.3151.2782.2782,0,0,0-.003.05.4371.4371,0,0,0,.0636.19A1,1,0,0,0,12.9346,19.5551Zm3.7039,1.277a.2621.2621,0,0,0-.02-.0333c-.0588-.1262-.1282-.2789-.2975-.319a.33.33,0,0,0-.2877.0714,1.3589,1.3589,0,0,0-.3729.6332c-.137.3748-.2652.729-.7495.8269-.1967.0411-.2007.0293-.2427-.1449-.0353-.134-.1194-.4452-.4678-.4207l-.5314.2006c-.1937.0939-.7172.3454-.8327.2808-.1987-.2926-.0127-.5646.3767-.9326l.2075-.2231a.4057.4057,0,0,0-.1-.4648c-.1165-.1458-.184-.2339-.01-.4775a.6463.6463,0,0,1,.729-.22.42.42,0,0,0,.4149-.0773.2377.2377,0,0,0,.0666-.1674.4893.4893,0,0,0-.1811-.3063l-.1125-.1252a.2469.2469,0,0,0,.0822-.0431c.3738-.1957.9081.1018,1.1175.21a.2956.2956,0,0,0,.2848.0578.2406.2406,0,0,0,.14-.1449c.047-.1242-.01-.2241-.0841-.3571l-.1233-.2731a.3464.3464,0,0,1,.2867-.0792c.1018.0088.1977.0166.2848.0166a.67.67,0,0,0-.1272.3357.3253.3253,0,0,0,.0469.1722.779.779,0,0,0,.3455.3092,3.7432,3.7432,0,0,0-1.3074.7222c-.2486.19-.7574.63-.7349.7525a17.9979,17.9979,0,0,0,2.0618-.956,5.5,5.5,0,0,1,.7643-.2134.4121.4121,0,0,0-.0343.0646A3.6006,3.6006,0,0,1,16.6385,20.8321Zm-.0851-2.2194c.0333-.0039.1174-.1468.1174-.1468l.1429-.3826c-.0323-.22-.2456-.22-.458-.22-.1076,0-.2153-.0068-.3249-.0166H16.024a.224.224,0,0,1-.0489-.0039.7916.7916,0,0,1-.7486-.4453c.0058.0626.1526-.0978.1526-.0978.1116-.1057.3151-.2995.1527-.5079l-.3445-.1282c-.4208-.0548-.5539-.136-.5539-.3347,0-.0381.0979-.0929.1693-.1331.12-.0606.2926-.1536.2926-.3493l-.2211-.3406c-.2858-.2563-.3895-.4149-.2378-.6732a.2582.2582,0,0,1,.1663-.1429c.229-.047.59.2055.7242.3024l.134.0793c.2388.0968.3572-.1537.411-.274,0,0,.0509-.0832.0764-.1341a.8583.8583,0,0,1,.5852.8034.2347.2347,0,0,0,.2084.2133.232.232,0,0,0,.2456-.1644.9343.9343,0,0,1,.2163-.4061,1.9032,1.9032,0,0,1,.4217,1.3133.2327.2327,0,0,0,.1752.2358.2266.2266,0,0,0,.2632-.1106c.05-.0881.138-.19.1772-.1967.091.0578.2984.4169.3385,1.3514l-.0176.1214a1.4841,1.4841,0,0,1-.8406-.3474.0424.0424,0,0,1-.0225-.0039c-.0235-.0128-.042-.0235-.06-.0333-.2475-.1566-.5519-.3631-.8454-.592,0,0-.7438-.5373-.8475-.3739-.1008.16.5969.7643.5969.7643a10.0254,10.0254,0,0,0,.8514.5911c.0264.0176.047.0313.0675.044a2.214,2.214,0,0,1,.5226.6919C17.3206,18.8554,16.7168,18.873,16.5534,18.6127Zm-.7643,10.6782.02.0323c-.0117-.01-.0225-.0206-.0342-.0294ZM16.14,31.384a1.464,1.464,0,0,1-.7789-.2055.24.24,0,0,0-.3122.0343.92.92,0,0,1-.68.1976,1.2479,1.2479,0,0,1-1.1058-.5206,1.2987,1.2987,0,0,1-.0068-1.1586,1.1079,1.1079,0,0,1,1.0842-.54,1.6709,1.6709,0,0,1,1.2135.5236l.9805,1.4316a1.35,1.35,0,0,0,.1752.1458A1.5891,1.5891,0,0,1,16.14,31.384Zm6.8,0a1.1976,1.1976,0,0,1-.7016-.2006.239.239,0,0,0-.3249.0382.8086.8086,0,0,1-.6116.1888A1.2754,1.2754,0,0,1,20.29,30.885l-.9884-1.44a1.4518,1.4518,0,0,0-.1409-.1586,1.4379,1.4379,0,0,1,.4736-.07,1.2332,1.2332,0,0,1,.7036.2.2367.2367,0,0,0,.3249-.0352.7908.7908,0,0,1,.6106-.19,1.2561,1.2561,0,0,1,1.0109.5236l.9825,1.4316a1.4438,1.4438,0,0,0,.1546.1664A1.4922,1.4922,0,0,1,22.9405,31.384Zm-2.08-2.6069a1.2711,1.2711,0,0,0-.4022.1762,1.7387,1.7387,0,0,0-.824-.2h-.0655a2.1975,2.1975,0,0,1,1.29-.1937C20.8542,28.6382,20.8581,28.71,20.86,28.7771Zm1.6763.5089.045.07a.8031.8031,0,0,1-.0626-.07Zm1.2878-.3327a1.7229,1.7229,0,0,0-.8269-.2,1.764,1.764,0,0,0-.28.0167.8257.8257,0,0,1,.6615-.5353.4208.4208,0,0,1,.319.1223.9482.9482,0,0,1,.2085.549C23.877,28.92,23.8467,28.9405,23.8242,28.9533Zm5.844,2.4307a1.1758,1.1758,0,0,1-.7016-.2006.24.24,0,0,0-.3269.0382.8162.8162,0,0,1-.6116.1888,1.2758,1.2758,0,0,1-1.0138-.5254l-.99-1.44a1.5655,1.5655,0,0,0-.1321-.15,1.4909,1.4909,0,0,1,.5079-.0793,1.2565,1.2565,0,0,1,.7065.2.2364.2364,0,0,0,.3249-.0352.7845.7845,0,0,1,.61-.19,1.2619,1.2619,0,0,1,1.0148.5236c-.0029-.0127.9874,1.4424.9874,1.4424.04.05.1.0949.1438.1419A1.33,1.33,0,0,1,29.6682,31.384ZM25.5523,20.6031a6.4308,6.4308,0,0,0-.316,5.2207l.0362.0656a4.0647,4.0647,0,0,0,2.3466,1.9219l.1927.0812a5.2836,5.2836,0,0,1,1.7155.8778,1.5917,1.5917,0,0,0-.6459.2035,1.5885,1.5885,0,0,0-1.2868-.1869c-.0519-.1321-.1057-.2535-.1145-.2769a2.0327,2.0327,0,0,0-1.188-.9091,2.4,2.4,0,0,1-1.5706-1.4757,6.2543,6.2543,0,0,1-.3229-1.8309,7.8251,7.8251,0,0,0-.2877-1.8818,6.4568,6.4568,0,0,0-.1791,1.916,6.8294,6.8294,0,0,0,.3552,1.9679,2.8762,2.8762,0,0,0,1.828,1.7341c.4609.1927.8289.3454.9933.7975l.0127.0714a1.8053,1.8053,0,0,0-.7212-.1458,1.6612,1.6612,0,0,0-.9.22,1.72,1.72,0,0,0-.8621-.2476,1.53,1.53,0,0,0-.2838.0245,1.2911,1.2911,0,0,0-.319-.7173.9114.9114,0,0,0-.6557-.2632c-.5274,0-.9707.4119-1.2222,1.1273a.1537.1537,0,0,1-.0049.046c-.0108.0049-.0235.0137-.0372.0186a1.7135,1.7135,0,0,0-.7926-.2271,2.0328,2.0328,0,0,1,0-.3.0507.0507,0,0,1,.01-.0215.2561.2561,0,0,0,0-.094,1.5188,1.5188,0,0,1,.1477-.52c.0724-.1458.1693-.3141.2721-.49.5421-.9356.5783-1.8163.454-1.8163a11.1135,11.1135,0,0,0-.8523,1.5863c-.1057.1761-.2085.3523-.2887.5069a1.88,1.88,0,0,0-.1673.5088,2.0487,2.0487,0,0,0-2.1284.8279.1131.1131,0,0,0-.0069.0343l-.0107.0049a1.6729,1.6729,0,0,0-.8357-.2359,1.3768,1.3768,0,0,0-.8171.2271c-.0206-.01-.047-.0216-.0705-.0333a22.3921,22.3921,0,0,1,2.2732-1.2565l.37-.184a3.87,3.87,0,0,0,1.921-3.0629c.0176-.1272-.004-.181-.7819-1.4287-.3523-.5627-.7956-1.2643-.8651-1.45A5.0814,5.0814,0,0,0,17.68,19.1852a5.1185,5.1185,0,0,0,.7075-.2.3871.3871,0,0,0,.27-.2886.4179.4179,0,0,0,.01-.0842.8488.8488,0,0,0-.12-.37.6528.6528,0,0,0,.4424-.0166.5308.5308,0,0,0,.2534-.5441,5.2625,5.2625,0,0,0-.0724-.6968c.0078,0,.0117.004.02.004.1282.02.6332.3992.5931,1.8093-.0578,2.0726,2.0921,3.53,2.236,3.5689a.3371.3371,0,0,0,.2574-.0734,1.39,1.39,0,0,0,.2162-.9277,10.6673,10.6673,0,0,0-.1879-1.7575,2.795,2.795,0,0,0-2.0638-2.5864l-.1174-.0372a2.0219,2.0219,0,0,0,.5539-.6507.5379.5379,0,0,0,.0743.0538,1.4217,1.4217,0,0,0,1.0911-.1292V16.3a3.9719,3.9719,0,0,0,.5471,2.2185l.66,1.1038.3376.57a.2363.2363,0,0,0,.2623.0959c.367-.1.6537-2.0961.6537-2.1166.0078-.093.0088-.2036.0088-.3249a4.9311,4.9311,0,0,0-.3024-1.6783l.01-.0029a.1825.1825,0,0,0,.1125.0734.23.23,0,0,0,.2858-.1576c.1105-.3845.1849-.6928.2348-.9394.0049.0734.0108.1419.0108.1928l.092.4863c.14.1684.2975.09.7182-.1164.1429-.0714.3249-.1595.5128-.2378a5.748,5.748,0,0,0-.732,1.3729,5.8051,5.8051,0,0,0-.2583,1.7253,3.6888,3.6888,0,0,1-.1164.9824.2423.2423,0,0,0-.0167.0832.2366.2366,0,0,0,.1243.2036.2324.2324,0,0,0,.2985-.0695,15.1254,15.1254,0,0,1,1.3641-1.63,3.3113,3.3113,0,0,0-.2212.593c-.0009.0137-.0009.0274-.0009.0421a.2371.2371,0,0,0,.0929.1888.2328.2328,0,0,0,.25.0128,1.7633,1.7633,0,0,1,.9013-.1321v.0244A4.373,4.373,0,0,0,25.5523,20.6031ZM27.03,18.4278c.1076-.25.2544-.5647.3914-.8328a1.1305,1.1305,0,0,1,.4912-.3572c.0783-.0362.689-.3983.5989-.5509-.0861-.1566-.71.088-.8.136a6.8853,6.8853,0,0,0-.6753.3787,3.7894,3.7894,0,0,0-.6664.5431.5676.5676,0,0,1,.0519-.5646l.2505-.1713a.6826.6826,0,0,0,.456-.5578,1.5283,1.5283,0,0,0,.684.0049.5281.5281,0,0,0,.2633-.44.444.444,0,0,0,.0567.0205,1.5944,1.5944,0,0,0,1.5364-.1663.3909.3909,0,0,0,.1536-.3c0-.046-.05-.0988-.0694-.1477a2.3582,2.3582,0,0,0,.4256.0234.369.369,0,0,1,.0157.1126v.0372c-.0069.0949-.1077.1761-.2466.2759l-.2652.28a.3312.3312,0,0,0-.0206.1184.4242.4242,0,0,0,.141.2916.3056.3056,0,0,1,.1056.227.3425.3425,0,0,1-.0019.0441c-.0274.2671-.3043.35-.8132.41l-.4785.1507a.2672.2672,0,0,0-.08.1918.5161.5161,0,0,0,.1605.3151l.1.137a.719.719,0,0,0-.07.0763,2.4974,2.4974,0,0,1-.6508.1781l-.3258.091A2.4335,2.4335,0,0,0,27.03,18.4278Zm5.6806,2.9807c-.1253.18-.2907.1634-.5911.0646l-.2074-.05a.4259.4259,0,0,0-.3112.1937.3726.3726,0,0,1-.3093.185c-.1761.01-.4168-.2378-.56-.3866l-.3053-.22a.3071.3071,0,0,0-.3239.2134c-.0509.1066-.0852.1751-.2946.1458-.228-.03-.457-.59-.5656-.8612-.1174-.2779-.1761-.4188-.318-.4746a.3437.3437,0,0,0-.3826.1341,3.3553,3.3553,0,0,1-.3885-1.3671,5.7257,5.7257,0,0,1,1.186.5774c.2564.1879.732.5832.86.4726.1321-.1086-.2975-.6351-.5891-.8474a6.1877,6.1877,0,0,0-.913-.5558,2.4867,2.4867,0,0,1,1.5471-.2016l-.0245.0959-.0264.2388c.0342.2309.2544.2573.7339.3151a2.8281,2.8281,0,0,1,.776.1467v.0079a.5626.5626,0,0,1-.0685.1624.6906.6906,0,0,0-.0871.2721.3116.3116,0,0,0,.0284.1262c.0626.1526.2368.2.4981.274a1.7211,1.7211,0,0,1,.4717.1859c-.0127.002-.0754.0754-.0754.0754a.4911.4911,0,0,0-.183.3317.3772.3772,0,0,0,.0079.0783l.2436.2945c.1586.1233.2153.19.2153.2564A.2373.2373,0,0,1,32.7106,21.4085Zm-.7643-1.8662a.4453.4453,0,0,0,.0568.01v.0059Zm2.2341-.408c-.0362.0949-.1233.1115-.3993.0783l-.412.0675-.134.3288c-.01.1115-.02.13-.0538.1487a.6942.6942,0,0,1-.4316.0176l-.1742-.0274c-.1223-.0469-.2495-.088-.3728-.1252,0,0-.0744-.0206-.1429-.0441a.7653.7653,0,0,0,.1067-.3493.4779.4779,0,0,0-.1047-.2965c-.15-.1967-.5059-.25-1.0784-.3151,0,0-.1791-.0294-.3034-.046a.8724.8724,0,0,0,.02-.15.4351.4351,0,0,0-.1624-.3533,1.7993,1.7993,0,0,0-1.3152-.0734c-.0343-.0783-.092-.2006-.1292-.2847.0284-.004.0528-.0059.0528-.0059a1.9379,1.9379,0,0,0,.95-.3073,2.5,2.5,0,0,0,2.011.1762.7511.7511,0,0,0,.091-.0548.6208.6208,0,0,0,.2848.25l.5333-.03c.1615-.0353.4854-.1038.5646-.0451.1918.16.1732.2046.1086.3465l-.0665.4031c.0411.1361.1585.1889.2877.2408C34.2146,18.8133,34.288,18.89,34.18,19.1343Zm.683-.5695a1.0592,1.0592,0,0,1,.11.0479C34.9319,18.6186,34.9153,18.5843,34.8634,18.5648Zm1.6059-.5774-.001.0029a.3672.3672,0,0,1,.0059-.0567.135.135,0,0,0-.0049.0381Zm.8689-.6733a.3975.3975,0,0,1-.1428.2809.9547.9547,0,0,1-.6459.0108l-.3953.0127a.5041.5041,0,0,0-.1586.3963c-.02.184-.0391.3386-.1311.3777-.1223.0568-.4893-.1125-.6459-.181-.2172-.0979-.3767-.1693-.5078-.0362-.0039.0029-.0979.22-.0979.22a.4843.4843,0,0,1-.0626.1741,1.1871,1.1871,0,0,0-.4531-.31l.0088-.0235a.78.78,0,0,0,.09-.3385.7339.7339,0,0,0-.3248-.5627,1.18,1.18,0,0,0-.9532-.0519l-.2857.045a.6587.6587,0,0,1-.15-.2485c.1213-.0264.228-.0607.3327-.094.0949-.0107.1888-.0234.2945-.0313.4228-.0264,2.0306.2515,2.0325.0382.003-.1664-.956-.3523-1.596-.414a1.7563,1.7563,0,0,0,.5206-.8317s.0205-.0666.0244-.0744c0,.0078.05-.0294.0715-.0431.0577.0314.0959.1057.1389.2584a.3737.3737,0,0,0,.1918.2975c.1341.0538.2378-.01.4365-.1351.2564-.1624.8582-.5431,1.0832-.3151a.3335.3335,0,0,1,.0685.4267c-.088.2133-.0528.3611.1028.4374l.228.0509C37.1308,16.7612,37.3891,16.9442,37.3382,17.3141Z"/></g></svg>