<svg xmlns="http://www.w3.org/2000/svg" width="3.7639in" height="1.5454in" viewBox="0 0 271 111.2724"><defs><style>.cls-1{fill:hsla(210, 100%, 6%, 35%);}.cls-2{fill:hsla(210, 100%, 6%, 35%);}</style></defs><g id="svg2"><g id="layer1"><g id="g3546"><path id="path2588" class="cls-1" d="M34.5536,73.5224c0,2.5345-1.5247,3.1688-2.7919,3.1688S28.97,76.0569,28.97,73.5224V68.8817h.988V73.78c0,1.0315.4514,2.1157,1.8039,2.1157,1.3541,0,1.8054-1.0842,1.8054-2.1157V68.8817h.9865Z"/><path id="path2590" class="cls-1" d="M45.1441,68.8817h1.3091L49.5258,74.22a9.2349,9.2349,0,0,1,.5149,1.0532h.0543c-.0217-.259-.0543-.6236-.0543-.957V68.8817h.988V76.53h-1.32L46.647,71.1276a9.3491,9.3491,0,0,1-.5149-1.0531h-.0543c.0217.2575.0543.622.0543.9554v5.5h-.988Z"/><path id="path2592" class="cls-1" d="M62.6165,76.53h-.988V68.8817h.988Z"/><path id="path2594" class="cls-1" d="M75.3753,74.65c.1071.3118.1831.6236.2575.9338h.0543c.0745-.31.15-.622.2575-.9338l1.9124-5.7683h1.0191L76.2672,76.53h-1.278l-2.5453-7.6482h1.0842Z"/><path id="path2596" class="cls-1" d="M88.6926,68.8817h4.5957v.7957H89.6806v2.491h3.4263v.7957H89.6806v2.77h3.7163V76.53H88.6926Z"/><path id="path2598" class="cls-1" d="M103.62,68.8817h2.6321c1.3106,0,2.3421.6437,2.3421,2.0521a1.8608,1.8608,0,0,1-1.3959,1.9543l1.8256,3.6418h-1.1819l-1.579-3.4588h-1.6535V76.53h-.99Zm.99,3.3953h1.5573c1.1168,0,1.4394-.6778,1.4394-1.2688,0-1.278-1.1075-1.3308-1.5479-1.3308h-1.4488Z"/><path id="path2600" class="cls-1" d="M119.473,74.7137a1.5234,1.5234,0,0,0,1.59,1.1819,1.3768,1.3768,0,0,0,1.4813-1.3324,1.215,1.215,0,0,0-.805-1.2129l-1.8473-.8593a1.7607,1.7607,0,0,1-1.1385-1.6751,2.1736,2.1736,0,0,1,2.3948-2.0955,2.2224,2.2224,0,0,1,2.3405,1.396l-.9663.3226a1.2907,1.2907,0,0,0-1.3742-.9228,1.1726,1.1726,0,0,0-1.3432,1.2346c0,.7522.5165.9879,1.01,1.2036l1.3742.6a2.052,2.052,0,0,1,1.4083,1.9884c0,.72-.4405,2.1482-2.6213,2.1482a2.3564,2.3564,0,0,1-2.46-1.6223Z"/><path id="path2602" class="cls-1" d="M134.8732,76.53h-.988V68.8817h.988Z"/><path id="path2604" class="cls-1" d="M146.9326,69.741h-2.2211v-.8593h5.4333v.8593h-2.2242V76.53h-.988Z"/><path id="path2606" class="cls-1" d="M159.9722,68.8817h4.5957v.7957H160.96v2.491h3.4247v.7957H160.96v2.77h3.7147V76.53h-4.7027Zm2.4475-2.0178h1.1618l-1.5247,1.5355h-.7523Z"/><path id="path2608" class="cls-1" d="M34.5675,88.5055c0,2.5344-1.5262,3.1672-2.7934,3.1672s-2.7919-.6328-2.7919-3.1672V83.8664H29.97V88.763c0,1.03.4513,2.1156,1.8038,2.1156,1.3541,0,1.8039-1.0857,1.8039-2.1156V83.8664h.9895Z"/><path id="path2610" class="cls-1" d="M45.0913,83.8664H46.402l3.071,5.3355a9.6464,9.6464,0,0,1,.5165,1.0532h.0527c-.02-.2575-.0527-.622-.0527-.9555V83.8664h.9865v7.645h-1.32l-3.06-5.4007a9.6647,9.6647,0,0,1-.5165-1.0532h-.0527c.02.2575.0527.6236.0527.957v5.4969h-.988Z"/><path id="path2612" class="cls-1" d="M62.5018,91.5114h-.9881V83.8648h.9881Z"/><path id="path2614" class="cls-1" d="M75.1939,89.6331c.1086.3118.183.622.259.9337h.0543c.0744-.3117.1489-.6219.2559-.9337l1.9125-5.7667h1.02l-2.61,7.645H74.8092l-2.5468-7.645h1.0858Z"/><path id="path2616" class="cls-1" d="M88.4475,83.8664h4.5974v.7925H89.4356v2.4925h3.4262v.7942H89.4356v2.7732h3.7163v.7926H88.4475Z"/><path id="path2618" class="cls-1" d="M103.3112,83.8664h2.632c1.3091,0,2.3406.6436,2.3406,2.0489a1.8614,1.8614,0,0,1-1.3959,1.9558l1.8256,3.64h-1.182l-1.5789-3.4572h-1.6535v3.4572h-.9879Zm.9879,3.392h1.5573c1.1168,0,1.4394-.6762,1.4394-1.2655,0-1.28-1.1059-1.334-1.5464-1.334h-1.45Z"/><path id="path2620" class="cls-1" d="M119.0976,89.6967a1.526,1.526,0,0,0,1.59,1.1819,1.3769,1.3769,0,0,0,1.4828-1.3308,1.2125,1.2125,0,0,0-.8049-1.2145l-1.8474-.8592A1.7582,1.7582,0,0,1,118.38,85.799a2.1733,2.1733,0,0,1,2.3948-2.0939,2.22,2.22,0,0,1,2.3405,1.3959l-.9663.3226a1.2888,1.2888,0,0,0-1.3742-.9245,1.1737,1.1737,0,0,0-1.3432,1.2363c0,.7506.5165.9864,1.01,1.2l1.3742.6034a2.05,2.05,0,0,1,1.4084,1.9869c0,.7181-.4405,2.1466-2.6212,2.1466a2.3506,2.3506,0,0,1-2.4585-1.6208Z"/><path id="path2622" class="cls-1" d="M134.4343,91.5114h-.988V83.8648h.988Z"/><path id="path2624" class="cls-1" d="M146.43,84.7256h-2.2212v-.8592h5.4334v.8592H147.42v6.7858H146.43Z"/><path id="path2626" class="cls-1" d="M161.3914,88.3876l-2.7066-4.5212h1.18l1.72,2.9966a6.8539,6.8539,0,0,1,.31.6436h.0217a6.9158,6.9158,0,0,1,.3242-.6436l1.7278-2.9966h1.1167l-2.7065,4.5212v3.1238h-.988Z"/><path id="path2628" class="cls-1" d="M29.0319,79.587v.4809l135.9005-.0125v-.4823Z"/><path id="path2630" class="cls-1" d="M35.8239,58.0323h1.0609c2.21,0,2.6957-.8392,2.6957-3.1378V47.91L31.0948,32.7068c-1.7233-3.0942-2.2987-3.4913-4.4639-3.4913h-.3971V27.8893c1.9.045,3.7566.1335,5.5682.1335,1.8566,0,3.7582-.0885,5.6132-.1335v1.3262H36.62c-.9275,0-1.6347.31-1.6347,1.4145a7.3381,7.3381,0,0,0,.9724,2.6073l6.5408,11.8,6.0987-11.6669A10.0031,10.0031,0,0,0,49.791,30.233c0-.7523-.53-1.0175-1.7248-1.0175h-.8391V27.8893c1.8116.045,3.0059.1335,4.3755.1335,1.458,0,2.9609-.0885,4.3755-.1335v1.3262H54.8738c-1.8117,0-2.21.5738-3.58,3.1377L43.4705,46.9826v7.9119c0,2.6072.9725,3.1378,2.6957,3.1378H47.05v1.3261c-1.8566-.045-3.7566-.1334-5.6132-.1334-1.945,0-3.9769.0884-5.6132.1334Z"/><path id="path2632" class="cls-1" d="M75.5584,27.3155A16.4765,16.4765,0,0,1,92.0444,43.623,16.31,16.31,0,0,1,75.425,59.9323c-9.5466,0-16.441-7.203-16.441-15.9541A16.4821,16.4821,0,0,1,75.5584,27.3155M75.425,29.172c-6.1871,0-12.0221,3.8017-12.0221,14.054,0,7.16,4.6857,15.028,12.2874,15.028,8.177,0,11.9336-6.0118,11.9336-14.1439,0-7.1162-4.4638-14.9381-12.1989-14.9381"/><path id="path2634" class="cls-1" d="M98.9822,58.0323h.7957c2.0334,0,2.9175-.7523,2.9175-3.6248V32.84c0-2.8724-.8841-3.6247-2.9175-3.6247h-.7957V27.8893c1.5464.045,3.6682.1335,5.6582.1335,2.9594,0,5.0812-.1335,7.0262-.1335,7.8235,0,9.238,6.1437,9.238,8.1771,0,5.79-4.0668,7.5566-6.277,8.2655l5.9234,9.8119c2.43,3.9768,3.1377,4.2421,6.7175,4.4639v.9275c-.8391,0-1.6348.0434-2.4754.0434-3.8885,0-5.7017-.4855-8.0438-4.3305l-5.1711-8.4423c-1.0159-1.6348-1.5913-1.7232-4.9943-1.8116v8.3539c0,4.1986.7522,4.6842,2.52,4.6842h1.2811v1.3261c-1.945-.045-3.8015-.1334-5.745-.1334-1.99,0-4.1118.0884-5.6582.1334Zm7.6017-15.0266a9.97,9.97,0,0,0,3.0059.3087c3.9768,0,7.248-1.8116,7.248-6.4088,0-1.9451-1.3262-7.3365-7.47-7.3365a26.0791,26.0791,0,0,0-2.7841.1768Z"/><path id="path2636" class="cls-1" d="M134.1628,58.0323h.7958c2.0334,0,2.9175-.7523,2.9175-3.6248V32.84c0-2.8724-.8841-3.6247-2.9175-3.6247h-.7958V27.8893c1.5465.045,3.6683.1335,5.6582.1335,1.9435,0,3.8017-.0885,5.7451-.1335v1.3262h-1.2827c-1.7666,0-2.5189.487-2.5189,4.6857V44.2869l9.68-10.7844c.442-.4854,2.1218-2.2536,2.1218-3.1377,0-.7957-.6189-1.1493-1.4595-1.1493h-.7958V27.8893c1.6364.045,3.4915.1335,5.2163.1335,1.7681,0,3.4913-.0885,5.26-.1335v1.3262h-.7957c-2.1652,0-2.9175.3971-5.5248,3.1377l-8.5307,8.9728,11.4032,13.3482c2.4755,2.916,3.7582,3.3581,5.5682,3.3581h.6639v1.3261c-1.4145-.045-2.8741-.1334-4.2871-.1334s-2.8725.0884-4.2871.1334c-.22-1.2812-.3536-1.945-2.8725-4.8176l-9.0612-10.3857-2.2986,2.43v6.7626c0,4.1986.7523,4.6842,2.5189,4.6842h1.2827v1.3261c-1.9434-.045-3.8016-.1334-5.7451-.1334-1.99,0-4.1117.0884-5.6582.1334Z"/><path id="path2638" class="cls-2" d="M221.2739,83.3964c-11.4156,0-21.3-7.0573-21.3-22.4839V24.2366H174.4651V91.5347h67.3011V66.98c-2.0241,9.7855-9.1387,16.4162-20.4923,16.4162"/><path id="path2640" class="cls-2" d="M221.2739,69.6185c6.1251,0,8.0049-5.3821,8.0049-10.6463V24.2366H213.6164V58.9722c0,5.4829,1.9481,10.6463,7.6575,10.6463"/></g></g></g></svg>