<svg width="108" height="108" viewBox="0 0 108 108" fill="none" xmlns="http://www.w3.org/2000/svg">
<circle cx="4" cy="4" r="4" fill="#312FA2"/>
<circle cx="4" cy="44" r="4" fill="#312FA2"/>
<circle cx="4" cy="84" r="4" fill="#312FA2"/>
<circle cx="4" cy="24" r="4" fill="#312FA2"/>
<circle cx="4" cy="64" r="4" fill="#312FA2"/>
<circle cx="4" cy="104" r="4" fill="#312FA2"/>
<circle cx="84" cy="4" r="4" fill="#312FA2"/>
<circle cx="84" cy="44" r="4" fill="#312FA2"/>
<circle cx="84" cy="84" r="4" fill="#312FA2"/>
<circle cx="84" cy="24" r="4" fill="#312FA2"/>
<circle cx="84" cy="64" r="4" fill="#312FA2"/>
<circle cx="84" cy="104" r="4" fill="#312FA2"/>
<circle cx="44" cy="4" r="4" fill="#312FA2"/>
<circle cx="44" cy="44" r="4" fill="#312FA2"/>
<circle cx="44" cy="84" r="4" fill="#312FA2"/>
<circle cx="44" cy="24" r="4" fill="#312FA2"/>
<circle cx="44" cy="64" r="4" fill="#312FA2"/>
<circle cx="44" cy="104" r="4" fill="#312FA2"/>
<circle cx="24" cy="4" r="4" fill="#312FA2"/>
<circle cx="24" cy="44" r="4" fill="#312FA2"/>
<circle cx="24" cy="84" r="4" fill="#312FA2"/>
<circle cx="24" cy="24" r="4" fill="#312FA2"/>
<circle cx="24" cy="64" r="4" fill="#312FA2"/>
<circle cx="24" cy="104" r="4" fill="#312FA2"/>
<circle cx="104" cy="4" r="4" fill="#312FA2"/>
<circle cx="104" cy="44" r="4" fill="#312FA2"/>
<circle cx="104" cy="84" r="4" fill="#312FA2"/>
<circle cx="104" cy="24" r="4" fill="#312FA2"/>
<circle cx="104" cy="64" r="4" fill="#312FA2"/>
<circle cx="104" cy="104" r="4" fill="#312FA2"/>
<circle cx="64" cy="4" r="4" fill="#312FA2"/>
<circle cx="64" cy="44" r="4" fill="#312FA2"/>
<circle cx="64" cy="84" r="4" fill="#312FA2"/>
<circle cx="64" cy="24" r="4" fill="#312FA2"/>
<circle cx="64" cy="64" r="4" fill="#312FA2"/>
<circle cx="64" cy="104" r="4" fill="#312FA2"/>
</svg>
